<svg xmlns="http://www.w3.org/2000/svg" viewBox="0 0 302.4 56.18"><defs><style>.cls-1{fill:none;}.cls-2{fill:#503f9a;}.cls-3{fill:#fff;}.cls-4{fill:#a556bf;}.cls-5{fill:#cd99e1;}.cls-6{fill:#3a2790;}.cls-7{fill:#1a1a1a;}</style></defs><g id="Layer_2" data-name="Layer 2"><g id="Layer_1-2" data-name="Layer 1"><path class="cls-1" d="M16.22,2.63q.72-.33,1.47-.63Q16.94,2.29,16.22,2.63ZM29,11.28l-.29,0,.48,0Zm3.1.51h0Zm-1-.23H31l-.05,0-.23,0,.43.09Zm.62.13-.19,0-.15,0,.37.08Zm.26.06h-.08l.08,0a.1.1,0,0,1,.07,0S32,11.76,32,11.75Zm-1.58-.32h.08Zm5.45,1.85c-.21-.11-.41-.22-.63-.32.42.21.84.43,1.24.68C36.23,13.51,36,13.39,35.82,13.28Zm3.74,2.78Zm0,0h0S39.55,16,39.55,16.05ZM29,11.28l-.29,0,.48,0Zm3.1.51h0Zm-1-.23H31l-.05,0-.23,0,.43.09Zm.62.13-.19,0-.15,0,.37.08Zm.26.06h-.08l.08,0a.1.1,0,0,1,.07,0S32,11.76,32,11.75Zm-1.58-.32h.08Zm5.45,1.85c-.21-.11-.41-.22-.63-.32.42.21.84.43,1.24.68C36.23,13.51,36,13.39,35.82,13.28Zm3.74,2.78Zm0,0h0S39.55,16,39.55,16.05ZM29,11.28l-.29,0,.48,0Zm3.1.51h0Zm-1-.23H31l-.05,0-.23,0,.43.09Zm.62.13-.19,0-.15,0,.37.08Zm.26.06h-.08l.08,0a.1.1,0,0,1,.07,0S32,11.76,32,11.75Zm-1.58-.32h.08Zm5.45,1.85c-.21-.11-.41-.22-.63-.32.42.21.84.43,1.24.68C36.23,13.51,36,13.39,35.82,13.28Zm3.74,2.78Zm0,0h0S39.55,16,39.55,16.05Zm4.94,9.77a2.34,2.34,0,0,1,0-.26,15.75,15.75,0,0,0-.64-2.65,16,16,0,0,1,.65,2.86h0ZM28.09,44.91v0h0c.26,0,.51,0,.76,0Zm-14-7a16.36,16.36,0,0,0,4.1,4A17.06,17.06,0,0,1,14.1,37.93ZM12.61,20.72h0l-.3.66c.1-.22.2-.45.31-.66h0Zm1,16.52c-.2-.31-.39-.62-.57-1h0L12.9,36v0a16.62,16.62,0,0,1-2-7.89c0-.28,0-.55,0-.82s0-.55,0-.81c0-.1,0-.21,0-.31,0-.26.06-.51.1-.76s0-.23.06-.35l.09-.49.12-.5.06-.26-.06.21a1.6,1.6,0,0,0-.05.21c0,.11,0,.22-.08.34s0,.25-.08.38-.08.46-.11.7c0,0,0,0,0,0l-.06.46v0a1.36,1.36,0,0,0,0,.2l0,.22A2.56,2.56,0,0,0,11,27c0,.05,0,.1,0,.16a1.69,1.69,0,0,1,0,.23c0,.25,0,.5,0,.75a16.76,16.76,0,0,0,2,8h0A13,13,0,0,0,13.63,37.24ZM12,22.18l-.05.13c0,.05,0,.09,0,.13l-.07.25c0-.16.1-.31.16-.46a1,1,0,0,1,.06-.16c.08-.23.17-.46.27-.68C12.2,21.65,12.09,21.91,12,22.18Zm1.12-2.39-.15.27h0c-.06.12-.12.22-.17.33s-.11.22-.16.33c.22-.44.45-.88.7-1.3C13.25,19.55,13.17,19.66,13.11,19.79Zm26.45-3.73Zm0,0h0S39.55,16,39.55,16.05Zm-3.73-2.77c-.21-.11-.41-.22-.63-.32.42.21.84.43,1.24.68C36.23,13.51,36,13.39,35.82,13.28Zm-3.75-1.49h0Zm-1-.23H31l-.05,0-.23,0,.43.09Zm.62.13-.19,0-.15,0,.37.08Zm.26.06h-.08l.08,0a.1.1,0,0,1,.07,0S32,11.76,32,11.75Zm-1.58-.32h.08ZM29,11.28l-.29,0,.48,0Zm10.59,4.78Zm0,0h0S39.55,16,39.55,16.05Zm-3.73-2.77c-.21-.11-.41-.22-.63-.32.42.21.84.43,1.24.68C36.23,13.51,36,13.39,35.82,13.28Zm-3.75-1.49h0Zm-1-.23H31l-.05,0-.23,0,.43.09Zm.62.13-.19,0-.15,0,.37.08Zm.26.06h-.08l.08,0a.1.1,0,0,1,.07,0S32,11.76,32,11.75Zm-1.58-.32h.08ZM29,11.28l-.29,0,.48,0Zm10.59,4.78Zm0,0h0S39.55,16,39.55,16.05Zm-3.73-2.77c-.21-.11-.41-.22-.63-.32.42.21.84.43,1.24.68C36.23,13.51,36,13.39,35.82,13.28Zm-3.75-1.49h0Zm-1-.23H31l-.05,0-.23,0,.43.09Zm.62.13-.19,0-.15,0,.37.08Zm.26.06h-.08l.08,0a.1.1,0,0,1,.07,0S32,11.76,32,11.75Zm-1.58-.32h.08ZM29,11.28l-.29,0,.48,0ZM11.44,50.7h0Zm-6.7-7c-.07-.09-.12-.18-.18-.27h0c-.21-.31-.41-.63-.6-1s-.24-.4-.35-.61-.23-.41-.33-.61-.21-.4-.31-.61-.22-.43-.32-.65-.15-.32-.22-.47v0h0l-.1-.22,0-.08c0-.11-.09-.22-.14-.32l-.27-.67c-.08-.22-.17-.44-.25-.68l-.11-.33-.12-.34c-.07-.24-.15-.47-.21-.7s-.14-.46-.2-.69L.87,35l0-.14a0,0,0,0,0,0,0l-.12-.5c0-.09,0-.17,0-.25l0-.11a.78.78,0,0,1,0-.14,2.61,2.61,0,0,1-.06-.27,2.56,2.56,0,0,1-.05-.27c0-.2-.07-.4-.11-.6l-.06-.39,0-.24c0-.08,0-.16,0-.23,0-.24-.06-.49-.08-.73l-.06-.54v-.23c0-.16,0-.32,0-.48s0-.27,0-.41,0,0,0,0c0-.18,0-.36,0-.54s0-.51,0-.76v-.55c0-.19,0-.38,0-.56s0-.3,0-.44c0,.51-.06,1-.06,1.55H0c0,.26,0,.5,0,.76l0,.47v.12l0,.48c0,.2,0,.4.05.61s0,.38.05.57l.06.56c0,.17.05.34.07.5l.15.9.12.61c0,.22.09.45.14.67.1.45.22.89.34,1.33s.23.79.36,1.18c.07.23.15.46.23.69.17.45.34.9.53,1.35,0,.11.09.21.14.32v0s0,0,0,0a.27.27,0,0,0,0,.11,1.47,1.47,0,0,0,.06.14h0c.38.84.8,1.66,1.25,2.45.09.16.18.32.28.47.19.34.4.67.61,1l.08.11v0l0,0,0,0,0,0h0l0,0v0l0,0,0,.06,0,0v0s0,0,0,0h0ZM6.6,46.14c-.32-.38-.63-.77-.93-1.16l-.38-.51-.16-.23-.08-.1a2.4,2.4,0,0,0,.18.26q.15.23.33.45c.13.17.26.35.4.52s.35.45.53.67l.35.4h0l.07.07h0C6.8,46.39,6.7,46.27,6.6,46.14ZM5,44l0-.06h0s0,0,0,0a0,0,0,0,1,0,0H5l0,0Zm3.12,3.78h0l.16.15h0Zm-.29-.29h0l0,0ZM2.25,17.11h0Zm37.31-1.05Zm0,0h0S39.55,16,39.55,16.05Zm-3.73-2.77c-.21-.11-.41-.22-.63-.32.42.21.84.43,1.24.68C36.23,13.51,36,13.39,35.82,13.28ZM28.09,44.91v0h0c.26,0,.51,0,.76,0ZM12.61,20.72h0l-.3.66c.1-.22.2-.45.31-.66h0Zm1,16.52c-.2-.31-.39-.62-.57-1h0L12.9,36v0a16.62,16.62,0,0,1-2-7.89c0-.28,0-.55,0-.82s0-.55,0-.81c0-.1,0-.21,0-.31,0-.26.06-.51.1-.76s0-.23.06-.35l.09-.49.12-.5.06-.26-.06.21a1.6,1.6,0,0,0-.05.21c0,.11,0,.22-.08.34s0,.25-.08.38-.08.46-.11.7c0,0,0,0,0,0l-.06.46v0a1.36,1.36,0,0,0,0,.2l0,.22A2.56,2.56,0,0,0,11,27c0,.05,0,.1,0,.16a1.69,1.69,0,0,1,0,.23c0,.25,0,.5,0,.75a16.76,16.76,0,0,0,2,8h0A13,13,0,0,0,13.63,37.24ZM12,22.18l-.05.13c0,.05,0,.09,0,.13l-.07.25c0-.16.1-.31.16-.46a1,1,0,0,1,.06-.16c.08-.23.17-.46.27-.68C12.2,21.65,12.09,21.91,12,22.18Zm1.12-2.39-.15.27h0c-.06.12-.12.22-.17.33s-.11.22-.16.33c.22-.44.45-.88.7-1.3C13.25,19.55,13.17,19.66,13.11,19.79Zm1,18.14a16.36,16.36,0,0,0,4.1,4A17.06,17.06,0,0,1,14.1,37.93ZM12.61,20.72h0l-.3.66c.1-.22.2-.45.31-.66h0Zm1,16.52c-.2-.31-.39-.62-.57-1h0L12.9,36v0a16.62,16.62,0,0,1-2-7.89c0-.28,0-.55,0-.82s0-.55,0-.81c0-.1,0-.21,0-.31,0-.26.06-.51.1-.76s0-.23.06-.35l.09-.49.12-.5.06-.26-.06.21a1.6,1.6,0,0,0-.05.21c0,.11,0,.22-.08.34s0,.25-.08.38-.08.46-.11.7c0,0,0,0,0,0l-.06.46v0a1.36,1.36,0,0,0,0,.2l0,.22A2.56,2.56,0,0,0,11,27c0,.05,0,.1,0,.16a1.69,1.69,0,0,1,0,.23c0,.25,0,.5,0,.75a16.76,16.76,0,0,0,2,8h0A13,13,0,0,0,13.63,37.24ZM12,22.18l-.05.13c0,.05,0,.09,0,.13l-.07.25c0-.16.1-.31.16-.46a1,1,0,0,1,.06-.16c.08-.23.17-.46.27-.68C12.2,21.65,12.09,21.91,12,22.18Zm1.12-2.39-.15.27h0c-.06.12-.12.22-.17.33s-.11.22-.16.33c.22-.44.45-.88.7-1.3C13.25,19.55,13.17,19.66,13.11,19.79Zm1,18.14a16.36,16.36,0,0,0,4.1,4A17.06,17.06,0,0,1,14.1,37.93Zm14,7v0h0c.26,0,.51,0,.76,0ZM29,11.28l-.29,0,.48,0Zm3.1.51h0Zm-1-.23H31l-.05,0-.23,0,.43.09Zm.62.13-.19,0-.15,0,.37.08Zm.26.06h-.08l.08,0a.1.1,0,0,1,.07,0S32,11.76,32,11.75Zm-1.58-.32h.08Zm5.45,1.85c-.21-.11-.41-.22-.63-.32.42.21.84.43,1.24.68C36.23,13.51,36,13.39,35.82,13.28Zm3.74,2.78Zm0,0h0S39.55,16,39.55,16.05Zm4.94,9.77a2.34,2.34,0,0,1,0-.26,15.75,15.75,0,0,0-.64-2.65,16,16,0,0,1,.65,2.86h0Zm0,0a2.34,2.34,0,0,1,0-.26,15.75,15.75,0,0,0-.64-2.65,16,16,0,0,1,.65,2.86h0Zm-4.93-9.76Zm0,0h0S39.55,16,39.55,16.05Zm-3.73-2.77c-.21-.11-.41-.22-.63-.32.42.21.84.43,1.24.68C36.23,13.51,36,13.39,35.82,13.28Zm-3.75-1.49h0Zm-1-.23H31l-.05,0-.23,0,.43.09Zm.62.13-.19,0-.15,0,.37.08Zm.26.06h-.08l.08,0a.1.1,0,0,1,.07,0S32,11.76,32,11.75Zm-1.58-.32h.08ZM29,11.28l-.29,0,.48,0Zm-.88,33.63v0h0c.26,0,.51,0,.76,0Zm-14-7a16.36,16.36,0,0,0,4.1,4A17.06,17.06,0,0,1,14.1,37.93ZM12.61,20.72h0l-.3.66c.1-.22.2-.45.31-.66h0Zm1,16.52c-.2-.31-.39-.62-.57-1h0L12.9,36v0a16.62,16.62,0,0,1-2-7.89c0-.28,0-.55,0-.82s0-.55,0-.81c0-.1,0-.21,0-.31,0-.26.06-.51.1-.76s0-.23.06-.35l.09-.49.12-.5.06-.26-.06.21a1.6,1.6,0,0,0-.05.21c0,.11,0,.22-.08.34s0,.25-.08.38-.08.46-.11.7c0,0,0,0,0,0l-.06.46v0a1.36,1.36,0,0,0,0,.2l0,.22A2.56,2.56,0,0,0,11,27c0,.05,0,.1,0,.16a1.69,1.69,0,0,1,0,.23c0,.25,0,.5,0,.75a16.76,16.76,0,0,0,2,8h0A13,13,0,0,0,13.63,37.24ZM12,22.18l-.05.13c0,.05,0,.09,0,.13l-.07.25c0-.16.1-.31.16-.46a1,1,0,0,1,.06-.16c.08-.23.17-.46.27-.68C12.2,21.65,12.09,21.91,12,22.18Zm1.12-2.39-.15.27h0c-.06.12-.12.22-.17.33s-.11.22-.16.33c.22-.44.45-.88.7-1.3C13.25,19.55,13.17,19.66,13.11,19.79Z"/><path class="cls-2" d="M56.18,28.09a26.36,26.36,0,0,1-.32,4.2l-.12.73,0,.14A27.59,27.59,0,0,1,50.6,44.88c-.23.32-.47.63-.72.94l-.51-.21h0l-.49-.16a9.17,9.17,0,0,0-1-.27l-.3-.07-.21,0L47,45c-.16,0-.33-.05-.5-.06a4.31,4.31,0,0,0,.26-.47A26.88,26.88,0,0,0,49,39.24h0a27.34,27.34,0,0,0,.78-3.15s0,0,0,0c.05-.32.11-.63.16-.95a27.71,27.71,0,0,0,.32-4.21A28,28,0,0,0,42.24,11.2c-.22-.23-.44-.44-.66-.65a28.44,28.44,0,0,0-6-4.37h.07a28.12,28.12,0,0,1,19.92,16A27.89,27.89,0,0,1,56.18,28.09Z"/><path class="cls-3" d="M28.87,44.91c-.25,0-.5,0-.76,0h0v0Z"/><path class="cls-3" d="M28.87,44.91c-.25,0-.5,0-.76,0h0v0Z"/><path class="cls-3" d="M28.87,44.91c-.25,0-.5,0-.76,0h0v0Z"/><path class="cls-4" d="M12.78,20.39c-.06.11-.11.22-.16.33h0C12.66,20.61,12.72,20.5,12.78,20.39Z"/><path class="cls-4" d="M12.91,36a16.76,16.76,0,0,1-2-7.95c0-.25,0-.5,0-.75a1.69,1.69,0,0,0,0-.23c0-.06,0-.11,0-.16s0-.37,0-.56l0-.25.06-.48s0,0,0,0c0-.23.07-.47.11-.7s0-.25.08-.38.05-.23.08-.34l.12-.52c0-.13.08-.25.11-.37s.09-.29.14-.43.1-.3.15-.45a2.77,2.77,0,0,1,.1-.26,3.89,3.89,0,0,1,.16-.41c0-.13.1-.25.16-.38-.1.22-.19.45-.27.68a1,1,0,0,0-.06.16c-.06.15-.11.3-.16.46s-.2.6-.29.92c0,.05,0,.1,0,.16s0,0,0,0l-.06.26-.12.5-.09.49c0,.12-.05.24-.06.35s-.08.5-.1.76c0,.1,0,.21,0,.31,0,.26,0,.54,0,.81s0,.54,0,.82a16.62,16.62,0,0,0,2,7.89v0A.06.06,0,0,1,12.91,36Z"/><path class="cls-4" d="M13.11,19.79l-.15.27h0C13,20,13.05,19.88,13.11,19.79Z"/><path class="cls-4" d="M29.16,11.29H29l-.29,0,.29,0Z"/><path class="cls-4" d="M32,11.78a.1.1,0,0,0-.07,0h0S32,11.76,32,11.78Z"/><path class="cls-4" d="M36.43,13.63l-.61-.35c-.21-.11-.41-.22-.63-.32A11.38,11.38,0,0,1,36.43,13.63Z"/><path class="cls-4" d="M39,15.48h0Z"/><path class="cls-4" d="M39,15.55h0s0,0,0,0v0h0Z"/><path class="cls-4" d="M39.11,15.63,39,15.56h0A.46.46,0,0,1,39.11,15.63Z"/><path class="cls-4" d="M39.16,15.67l0,0h0Z"/><path class="cls-4" d="M39.2,15.71h0l0,0h0Z"/><path class="cls-4" d="M44.46,25.77h0a16,16,0,0,0-.65-2.86,15.75,15.75,0,0,1,.64,2.65,2.34,2.34,0,0,0,0,.26Z"/><path class="cls-4" d="M56.2,28.09a26.36,26.36,0,0,1-.32,4.2l0,.12a5.49,5.49,0,0,1-.12.61l.12-.73a28.05,28.05,0,0,0-.3-10.09l0,.07A27.89,27.89,0,0,1,56.2,28.09Z"/><path class="cls-4" d="M4.73,43.67h0a.08.08,0,0,1,0,0l0,0,0,0v0l-.08-.11c-.21-.32-.42-.65-.61-1-.1-.15-.19-.31-.28-.47-.45-.79-.87-1.61-1.25-2.45h0a.08.08,0,0,1,0,0c.07.15.14.31.22.47s.2.44.32.65.2.41.31.61.21.41.33.61.23.41.35.61.39.64.6,1h0C4.61,43.49,4.67,43.58,4.73,43.67Z"/><path class="cls-4" d="M4.75,43.71a.6.6,0,0,1,.09.13l0,0,0-.06,0,0Z"/><polygon class="cls-4" points="4.9 43.91 4.9 43.92 4.89 43.91 4.9 43.91"/><path class="cls-4" d="M5,44h0a0,0,0,0,0,0,0s0,0,0,0h0Z"/><path class="cls-4" d="M6.91,46.51h0l-.07-.07h0L6.49,46c-.18-.22-.36-.44-.53-.67s-.27-.35-.4-.52-.23-.3-.33-.45a2.4,2.4,0,0,1-.18-.26l.08.1.16.23.38.51c.3.39.61.78.93,1.16C6.7,46.27,6.8,46.39,6.91,46.51Z"/><path class="cls-4" d="M7.61,47.29Z"/><path class="cls-4" d="M7.65,47.35l0,0h0A.05.05,0,0,1,7.65,47.35Z"/><path class="cls-4" d="M7.69,47.37h0Z"/><path class="cls-4" d="M7.78,47.48h0Z"/><polygon class="cls-4" points="7.79 47.48 7.79 47.48 7.78 47.48 7.79 47.48"/><path class="cls-4" d="M8.06,47.76h0l-.15-.15h0s0,0,0,0l0,0s0,0,0,0Z"/><path class="cls-4" d="M8.24,47.94h0s0,0,0,0l-.16-.15h0l.15.15h0Z"/><path class="cls-4" d="M8.23,47.93Z"/><path class="cls-4" d="M24,49.59Z"/><path class="cls-4" d="M24.3,49.7l-.06,0h0Z"/><path class="cls-5" d="M56.6,55.52a.85.85,0,0,1-.82.62H50.47A11.31,11.31,0,0,0,47,50.51h.25a11.17,11.17,0,0,1,4.45.92A11.31,11.31,0,0,1,56.25,55c.11.14.21.29.31.44Z"/><path class="cls-5" d="M20.16,47.66h-.11l-.12,0h-.11l-.31,0h-.07a7.58,7.58,0,0,1-.83-.15l-.4-.08-.2-.05a2.6,2.6,0,0,1-.4-.1l-.5-.14-.49-.15-.45-.15-.05,0-.5-.2-.21-.08h0l-.18-.07-.38-.17-.07,0-.46-.23h0L14,45.78a.7.7,0,0,1-.17-.09.83.83,0,0,1-.16-.09l-.07,0L13,45.18l-.06,0a3.75,3.75,0,0,1-.36-.24.24.24,0,0,1-.09-.06.42.42,0,0,1-.12-.08l-.17-.12h0l-.06,0,0,0,0,0L12,44.5l-.06,0a.31.31,0,0,1-.09-.07l-.1-.07-.14-.11-.15-.11,0,0,0,0c-.13-.1-.26-.2-.39-.32s-.44-.38-.65-.58L10.24,43l-.45-.45-.7-.78-.51-.63c-.1-.13-.2-.26-.29-.4s-.33-.45-.48-.69a3.28,3.28,0,0,1-.2-.31l-.15-.25c-.09-.14-.17-.29-.25-.43h0A16.87,16.87,0,0,1,17.72,14.57c-.35.26-.69.53-1,.81l-.58.54-.55.55-.53.58c-.16.18-.32.37-.47.56l-.44.58c-.29.4-.57.81-.82,1.23-.07.13-.15.24-.21.37S13,20,13,20.06h0c-.06.12-.12.22-.17.33s-.12.22-.17.33h0l-.3.66c-.06.12-.11.25-.16.38a3.89,3.89,0,0,0-.16.41l-.05.13,0,.13c-.05.15-.11.3-.15.45s-.09.29-.14.43-.07.24-.11.37-.05.2-.07.31a1.6,1.6,0,0,0-.05.21c0,.11,0,.22-.08.34s0,.25-.08.38-.08.46-.11.7c0,0,0,0,0,0l-.06.48a1.36,1.36,0,0,0,0,.2l0,.22A2.56,2.56,0,0,0,11,27c0,.05,0,.1,0,.16a1.69,1.69,0,0,1,0,.23c0,.25,0,.5,0,.75a16.76,16.76,0,0,0,2,8h0a16.6,16.6,0,0,0,2,5.85h0c.16.29.33.57.51.85.07.11.13.21.21.32s.25.38.4.57l.38.51c.28.35.57.68.87,1s.41.43.62.63l.73.67.27.23c.15.13.32.27.49.39l.38.29.4.27Z"/><path class="cls-4" d="M11,26.14l.06-.48-.06.46c0,.15,0,.3,0,.44A2.56,2.56,0,0,0,11,27c0-.19,0-.37,0-.56Z"/><path class="cls-4" d="M11.89,22.44a2.77,2.77,0,0,1,.1-.26c0,.09-.07.18-.1.26Z"/><path class="cls-4" d="M12.61,20.72c.05-.11.11-.22.17-.33-.06.11-.11.22-.16.33Z"/><path class="cls-4" d="M13.11,19.79l-.15.27h0C13,20,13.05,19.88,13.11,19.79Z"/><path class="cls-4" d="M50.47,56.14H29.54a8.92,8.92,0,0,1-.9,0H26.83l-.9-.06c-.32,0-.63-.05-.95-.09l-1-.13-.17,0L23,55.71l-1-.2c-.33-.07-.66-.15-1-.24L20,55l-.23-.07c-.56-.17-1.13-.37-1.68-.58L17.19,54l-.91-.4-.89-.44-.75-.4a.51.51,0,0,1-.16-.09c-.28-.14-.55-.3-.81-.46l-.84-.52-.09-.06-.08-.06h0l0,0h0l-.5-.33-.19-.14-.17-.11h0v0a.6.6,0,0,1-.13-.09l-.08-.06h0l-.06,0h0l-.06,0-.15-.12c-.24-.17-.46-.35-.68-.53s-.44-.36-.66-.54l-.65-.57-.53-.49-.1-.09c-.12-.13-.24-.25-.37-.37h0l-.15-.15h0l-.05,0s0,0,0,0l0,0s0,0,0,0h0l-.1-.1,0,0h0v0s0,0,0,0l0,0h0a.05.05,0,0,0,0,0h0v0h0l0,0,0,0,0,0h0l0-.06A1.14,1.14,0,0,1,7.34,47h0l-.1-.11-.12-.12-.19-.23,0,0h0c-.11-.12-.21-.24-.31-.37-.32-.38-.63-.77-.93-1.16l-.38-.51-.16-.23-.08-.1H5l0-.05L5,44v0l0-.06h0l-.16-.24c-.07-.09-.12-.18-.18-.27h0c-.21-.31-.41-.63-.6-1s-.24-.4-.35-.61-.23-.41-.33-.61-.21-.4-.31-.61-.22-.43-.32-.65-.15-.32-.22-.47v0h0a28,28,0,0,1-.6-5.76c0-.3,0-.59,0-.89v-.26c0-.29,0-.59,0-.88s0-.28,0-.41,0-.28,0-.41H2c0-.14,0-.28,0-.42l.09-.69c0-.12,0-.23.05-.34L2.22,29l0-.1s0-.08,0-.12.06-.34.1-.51,0-.09,0-.13l0-.15c0-.22.09-.43.15-.65a.29.29,0,0,1,0-.09.13.13,0,0,1,0-.06s0,0,0,0,0,0,0,0a.5.5,0,0,1,0-.16c0-.06,0-.11,0-.16a1,1,0,0,1,.06-.25l.12-.47L3,25.79c.09-.31.19-.62.29-.93s.21-.62.32-.92.23-.61.36-.91l.18-.44c.06-.15.13-.3.2-.44A1,1,0,0,1,4.38,22l.13-.29h0l.21-.42.1-.21c.07-.15.15-.29.23-.43l.11-.22c.15-.28.31-.57.47-.84s.34-.58.52-.86a.21.21,0,0,1,0-.06l0-.07.2-.31s0-.07.07-.1.19-.3.29-.44l.08-.12.19-.25.1-.15.23-.3,0-.05c.1-.13.2-.27.31-.4s.42-.54.64-.81l.29-.33q.48-.55,1-1.08h0c.22-.22.44-.45.67-.67s.24-.24.37-.35l.1-.1.07-.06a2.73,2.73,0,0,1,.25-.23.87.87,0,0,1,.11-.09l.34-.31.17-.14L12,12.1l0,0a1.49,1.49,0,0,1,.14-.12l.13-.11.05,0,.08-.06c.2-.16.4-.32.61-.47l.11-.09.1-.07h0l.53-.38.35-.25.05,0,0,0,.07,0,.41-.27.18-.12L15,9.93s0,0,0,0l.06,0,.3-.18.11-.07.12-.07.07,0A3.09,3.09,0,0,1,16,9.32l.44-.25.06,0,.86-.45a27.91,27.91,0,0,1,12.6-3,27.62,27.62,0,0,1,5.65.57,28.44,28.44,0,0,1,6,4.37c.22.21.44.42.66.65a28,28,0,0,1,8.07,19.69A27.71,27.71,0,0,1,50,35.1c-.05.32-.11.63-.16.95,0,0,0,0,0,0A27.34,27.34,0,0,1,49,39.24h0a26.88,26.88,0,0,1-2.25,5.25,4.31,4.31,0,0,1-.26.47l-.51,0h-4.5a15.74,15.74,0,0,0,2.65-3.1,14.63,14.63,0,0,0,1.37-2.63,0,0,0,0,0,0,0,.19.19,0,0,0,0-.08A16.55,16.55,0,0,0,46.44,33a16.85,16.85,0,0,0-.17-1.77c0-.21-.07-.4-.1-.6l0-.1s0,0,0,0c-.08-.41-.17-.82-.28-1.22,0-.14-.08-.28-.13-.42a3.37,3.37,0,0,0-.1-.34c-.05-.16-.11-.33-.17-.49s-.09-.26-.15-.39-.09-.23-.14-.35c-.21-.49-.43-1-.68-1.44a2.34,2.34,0,0,1,0-.26,15.75,15.75,0,0,0-.64-2.65c0-.05,0-.1,0-.15s-.11-.3-.17-.46-.19-.52-.3-.77-.21-.48-.33-.73-.22-.44-.33-.66l-.18-.31c-.08-.14-.15-.28-.24-.41s-.23-.38-.36-.57-.21-.32-.32-.47-.27-.38-.41-.56c-.25-.33-.52-.64-.79-.95h0c-.21-.23-.42-.46-.64-.67l-.13-.13h0s0,0,0,0h0l0,0h0l-.1-.1h0s0,0,0,0h0s0,0,0,0a.14.14,0,0,0-.06-.07l-.05,0a.05.05,0,0,0,0,0h0l0,0h0l0,0h0v0l0,0h0s0,0,0,0a.46.46,0,0,0-.07-.07h0l0,0s0,0,0,0h0a.13.13,0,0,0-.06-.05h0l0,0h0a.87.87,0,0,0-.15-.13h0L38.42,15h0l0,0-.06,0c-.24-.19-.48-.38-.74-.56L37,14c-.19-.13-.39-.25-.59-.37s-.41-.25-.61-.36l.61.35A11.38,11.38,0,0,0,35.19,13c.22.1.42.21.63.32-.21-.11-.41-.22-.63-.32l-.38-.18-.44-.2-.1-.05-.6-.23-.27-.1L33,12.06a1.14,1.14,0,0,0-.26-.09l-.51-.15H32s-.05,0-.07,0h-.08l-.15,0h0l-.19,0-.15,0h0a1,1,0,0,0-.17,0l-.09,0H31l-.05,0-.23,0h-.25a0,0,0,0,0,0,0h0l-.08,0h-.14c-.22,0-.45-.07-.67-.09l-.21,0-.19,0h0l-.19,0-.29,0,.29,0-.29,0h-.09c-.26,0-.53,0-.8,0h-.73l-.31,0c-.28,0-.56,0-.84.07l-.63.08c-.59.09-1.18.22-1.76.36l-.58.16-.71.23-.5.19c-.34.13-.68.27-1,.43l-.49.23c-.33.17-.64.34-1,.53l-.46.28c-.37.23-.72.48-1.08.73h0a16.61,16.61,0,0,0-4.3,1.78A16.85,16.85,0,0,0,7.21,39.09h0c.08.14.16.29.25.43l.15.25a3.28,3.28,0,0,0,.2.31q.23.36.48.69c.09.14.19.27.29.4l.51.63.7.78.45.45.09.08c.21.2.43.4.65.58s.26.22.39.32l0,0,0,0,.15.11.14.11.1.07a.31.31,0,0,0,.09.07l.06,0,.08.06,0,0,0,0,.06,0h0l.17.12a.42.42,0,0,0,.12.08.24.24,0,0,0,.09.06,3.75,3.75,0,0,0,.36.24l.06,0,.63.38.07,0a.83.83,0,0,0,.16.09.7.7,0,0,0,.17.09l.23.13h0l.46.23.07,0,.38.17.18.07h0l.21.08.5.2.05,0,.45.15.49.15.5.14a2.6,2.6,0,0,0,.4.1l.2.05.4.08a7.58,7.58,0,0,0,.83.15h.07l.31,0h.11l.12,0h.12l0,0,.11.07c.11.08.23.15.35.22l.52.32a4.82,4.82,0,0,0,.5.27.11.11,0,0,0,.06,0,5.28,5.28,0,0,0,.53.27l.56.26c.18.08.37.16.57.23a3.61,3.61,0,0,0,.42.16l.12,0h0l.08,0,.09,0h.08l.06,0,.28.09c.33.11.66.2,1,.28l.32.08.07,0,.43.08.62.11.63.08c.21,0,.43.05.64.06l.42,0c.29,0,.58,0,.88,0h.32a6.57,6.57,0,0,0,.78,0H47a11.31,11.31,0,0,1,3.47,5.63Z"/><path class="cls-4" d="M30.45,11.45h-.08Z"/><path class="cls-4" d="M32,11.78a.1.1,0,0,0-.07,0l-.08,0H32S32,11.76,32,11.78Z"/><path class="cls-4" d="M4.51,21.71,4.38,22c0-.09.08-.2.13-.29Z"/><path class="cls-4" d="M7.78,47.48h0Z"/><path class="cls-4" d="M7.93,47.64h0Z"/><path class="cls-4" d="M8,47.71l0,0,0,0S8,47.7,8,47.71Z"/><path class="cls-4" d="M11.45,50.7Z"/><polygon class="cls-4" points="13.24 11.1 13.24 11.1 13.24 11.1 13.24 11.1"/><path class="cls-4" d="M15.37,9.67l-.3.18.15-.09Z"/><path class="cls-4" d="M24.3,49.7l-.06,0h0Z"/><path class="cls-4" d="M29.16,11.29H29l-.29,0,.29,0Z"/><path class="cls-4" d="M32,11.78a.1.1,0,0,0-.07,0h0S32,11.76,32,11.78Z"/><path class="cls-4" d="M36.43,13.63l-.61-.35c-.21-.11-.41-.22-.63-.32A11.38,11.38,0,0,1,36.43,13.63Z"/><path class="cls-4" d="M39,15.55h0s0,0,0,0v0h0Z"/><path class="cls-4" d="M39.11,15.63,39,15.56h0A.46.46,0,0,1,39.11,15.63Z"/><path class="cls-3" d="M0,29.11c0,.1,0,.22,0,.32s0,0,0,0Z"/><path class="cls-3" d="M.12,30.55l.06.54c0-.14,0-.28,0-.42A.49.49,0,0,0,.12,30.55Z"/><path class="cls-3" d="M2.25,17.12l0,0h0A0,0,0,0,1,2.25,17.12Z"/><polygon class="cls-3" points="2.25 17.11 2.25 17.12 2.25 17.11 2.25 17.11"/><path class="cls-3" d="M2.29,39.15l0,.08c-.07-.13-.12-.27-.18-.4C2.2,38.93,2.24,39,2.29,39.15Z"/><path class="cls-3" d="M2.43,39.46h0a.47.47,0,0,0-.05-.1.78.78,0,0,1,0-.14l.1.22Z"/><path class="cls-3" d="M2.6,16.33a.54.54,0,0,1,0-.11c-.06.12-.12.24-.17.37A1.23,1.23,0,0,1,2.6,16.33Z"/><path class="cls-3" d="M4.51,21.71,4.38,22c0-.09.08-.2.13-.29Z"/><path class="cls-3" d="M13.24,11.1h0l-.1.07.1-.07Z"/><path class="cls-3" d="M15.48,9.6l-.11.07-.3.18.15-.09Z"/><path class="cls-3" d="M29.67,3.79l.48.14-.82-.22Z"/><path class="cls-3" d="M35.64,6.19h-.07a27.62,27.62,0,0,0-5.65-.57,27.91,27.91,0,0,0-12.6,3c-.29.15-.58.29-.86.45.28-.16.57-.31.86-.46a27.91,27.91,0,0,1,12.6-3,28.34,28.34,0,0,1,5.65.57,28.36,28.36,0,0,0-5.42-2.24l.15,0c.18.06.38.11.56.18l.12,0q.27.08.54.18h0l.51.18.12,0,.58.23.59.24.59.26C34.5,5.6,35.07,5.89,35.64,6.19Z"/><path class="cls-3" d="M2.24,17.13v0h0l0,0h0Z"/><path class="cls-3" d="M2.42,16.7h0l-.18.42h0Z"/><path class="cls-3" d="M2.43,16.68h0Z"/><path class="cls-3" d="M2.65,16.22c-.06.12-.12.24-.17.37a1.23,1.23,0,0,1,.12-.26A.54.54,0,0,1,2.65,16.22Z"/><path class="cls-3" d="M4.84,43.84l0,0,0-.06,0,0v0l0,0a.08.08,0,0,1,0,0l0,0,0,0v0l-.08-.11c-.21-.32-.42-.65-.61-1-.1-.15-.19-.31-.28-.47-.45-.79-.87-1.61-1.25-2.45h0a1.47,1.47,0,0,1-.06-.14.27.27,0,0,1,0-.11s0,0,0,0v0c0-.11-.1-.21-.14-.32-.19-.45-.36-.9-.53-1.35-.08-.23-.16-.46-.23-.69-.13-.39-.25-.78-.36-1.18S.8,34.8.7,34.35c0-.22-.1-.45-.14-.67l-.12-.61-.15-.9c0-.16,0-.33-.07-.5l-.06-.56c0-.19,0-.38,0-.57s0-.41,0-.61l0-.48v-.12l0-.47c0-.26,0-.5,0-.76H0c0-.53,0-1,.06-1.55,0,.14,0,.29,0,.44s0,.37,0,.56v.55c0,.25,0,.51,0,.76a2.35,2.35,0,0,0,0,.26c0,.1,0,.22,0,.32s0,.28,0,.41,0,.32,0,.48v.23l.06.54c0,.24.05.49.08.73,0,.07,0,.15,0,.23l0,.24.06.39c0,.2.07.4.11.6a2.56,2.56,0,0,0,.05.27,2.61,2.61,0,0,0,.06.27.78.78,0,0,0,0,.14l0,.11c0,.08,0,.16,0,.25l.12.5a0,0,0,0,1,0,0l0,.14.12.44c.06.23.13.46.2.69s.14.46.21.7l.12.34.11.33c.08.24.17.46.25.68l.27.67c.05.1.09.21.14.32l0,.08a.78.78,0,0,0,0,.14.47.47,0,0,1,.05.1v0c.07.15.14.31.22.47s.2.44.32.65.2.41.31.61.21.41.33.61.23.41.35.61.39.64.6,1h0c.06.09.11.18.18.27Z"/><polygon class="cls-3" points="4.9 43.91 4.9 43.92 4.89 43.91 4.9 43.91"/><path class="cls-3" d="M5,44l0,0h0a0,0,0,0,0,0,0s0,0,0,0h0L5,44Z"/><path class="cls-3" d="M6.91,46.51h0l-.07-.07h0L6.49,46c-.18-.22-.36-.44-.53-.67s-.27-.35-.4-.52-.23-.3-.33-.45a2.4,2.4,0,0,1-.18-.26l.08.1.16.23.38.51c.3.39.61.78.93,1.16C6.7,46.27,6.8,46.39,6.91,46.51Z"/><path class="cls-3" d="M7.61,47.29Z"/><path class="cls-3" d="M7.65,47.35l0,0h0A.05.05,0,0,1,7.65,47.35Z"/><path class="cls-3" d="M7.69,47.37h0Z"/><path class="cls-3" d="M7.81,47.51l0,0h0Z"/><path class="cls-3" d="M8.06,47.76h0l-.15-.15h0s0,0,0,0l0,0s0,0,0,0Z"/><path class="cls-3" d="M8.23,47.93h0l-.16-.15h0l.15.15Z"/><path class="cls-3" d="M24,49.59Z"/><path class="cls-3" d="M24.3,49.7l-.06,0h0Z"/><path class="cls-3" d="M29.16,11.29H29l-.29,0,.29,0Z"/><path class="cls-3" d="M32,11.78a.1.1,0,0,0-.07,0h0S32,11.76,32,11.78Z"/><path class="cls-3" d="M36.43,13.63l-.61-.35c-.21-.11-.41-.22-.63-.32A11.38,11.38,0,0,1,36.43,13.63Z"/><path class="cls-3" d="M39,15.48h0Z"/><path class="cls-3" d="M39,15.55h0s0,0,0,0v0h0Z"/><path class="cls-3" d="M39.11,15.63,39,15.56h0A.46.46,0,0,1,39.11,15.63Z"/><path class="cls-3" d="M39.16,15.67l0,0h0Z"/><path class="cls-3" d="M39.2,15.71h0l0,0h0Z"/><path class="cls-3" d="M44.46,25.77h0a16,16,0,0,0-.65-2.86,15.75,15.75,0,0,1,.64,2.65,2.34,2.34,0,0,0,0,.26Z"/><path class="cls-2" d="M7.78,47.48h0Zm.45.45ZM8,47.69l0,0,0,0S8,47.7,8,47.69Zm-.06-.06h0ZM29,11.27l-.29,0,.29,0h.19ZM6.6,46.14c-.32-.38-.63-.77-.93-1.16l-.38-.51-.16-.23-.08-.1a2.4,2.4,0,0,0,.18.26q.15.23.33.45c.13.17.26.35.4.52s.35.45.53.67l.35.4h0l.07.07h0C6.8,46.39,6.7,46.27,6.6,46.14ZM27.11,3.22l-.61-.1L25.79,3l-.7-.08-.24,0-.29,0-.18,0-.72,0c-.22,0-.43,0-.65,0H21.49l-.72,0a3,3,0,0,0-.42,0,3.44,3.44,0,0,0-.46,0L19.3,3c-.38,0-.77.09-1.15.15a5.81,5.81,0,0,0-.58.09c-.38.06-.75.13-1.13.21-.55.11-1.1.24-1.64.39.54-.14,1.09-.27,1.64-.39.38-.07.75-.15,1.13-.21l.58-.09L19.3,3l.59-.06.46,0c.14,0,.28,0,.42,0l.72,0h.72l.8,0,.65,0,.72.05.71.06.7.08.71.09.61.1.07,0A.11.11,0,0,0,27.11,3.22ZM13.19,4.28l0,0-.1.06c-.64.4-1.25.83-1.85,1.28S10,6.57,9.47,7.06h0c.56-.5,1.14-1,1.73-1.42s1.21-.87,1.85-1.27l.1-.07,0,0h0ZM8.93,7.56l.54-.49h0Zm-.53.5h0l.53-.5C8.75,7.72,8.58,7.88,8.4,8.06ZM4.74,43.67c-.07-.09-.12-.18-.18-.27h0c-.21-.31-.41-.63-.6-1s-.24-.4-.35-.61-.23-.41-.33-.61-.21-.4-.31-.61-.22-.43-.32-.65-.15-.32-.22-.47v0h0l-.1-.22,0-.08c0-.11-.09-.22-.14-.32l-.27-.67c-.08-.22-.17-.44-.25-.68l-.11-.33-.12-.34c-.07-.24-.15-.47-.21-.7s-.14-.46-.2-.69L.87,35l0-.14a0,0,0,0,0,0,0l-.12-.5c0-.09,0-.17,0-.25l0-.11a.78.78,0,0,1,0-.14,2.61,2.61,0,0,1-.06-.27,2.56,2.56,0,0,1-.05-.27c0-.2-.07-.4-.11-.6l-.06-.39,0-.24c0-.08,0-.16,0-.23,0-.24-.06-.49-.08-.73l-.06-.54v-.23c0-.16,0-.32,0-.48s0-.27,0-.41,0-.22,0-.32a2.35,2.35,0,0,1,0-.26c0-.25,0-.51,0-.76v-.55c0-.19,0-.38,0-.56s0-.3,0-.44c0,.51-.06,1-.06,1.55H0c0,.26,0,.5,0,.76l0,.47v.12l0,.48c0,.2,0,.4.05.61s0,.38.05.57l.06.56c0,.17.05.34.07.5l.15.9.12.61c0,.22.09.45.14.67.1.45.22.89.34,1.33s.23.79.36,1.18c.07.23.15.46.23.69.17.45.34.9.53,1.35,0,.11.09.21.14.32v0s0,0,0,0a.27.27,0,0,0,0,.11,1.47,1.47,0,0,0,.06.14h0c.38.84.8,1.66,1.25,2.45.09.16.18.32.28.47.19.34.4.67.61,1l.08.11v0l0,0,0,0,0,0h0l0,0v0l0,0,0,.06,0,0v0s0,0,0,0h0Zm-2.31-27h0Zm0,0-.17.41h0l.18-.42ZM35.19,13c.22.1.42.21.63.32l.61.35A11.38,11.38,0,0,0,35.19,13ZM39,15.55h0Zm0,0h0s0,0,0,0h0a.23.23,0,0,1,0,.05Zm5.49,10.29a2.34,2.34,0,0,1,0-.26,15.75,15.75,0,0,0-.64-2.65,16,16,0,0,1,.65,2.86h0ZM24,49.59h0l.08,0A.11.11,0,0,0,24,49.59Z"/><path class="cls-2" d="M35.57,6.17a28.34,28.34,0,0,0-5.65-.57,27.91,27.91,0,0,0-12.6,3c-.29.15-.58.3-.86.46l-.06,0L16,9.32a3.09,3.09,0,0,0-.29.17.13.13,0,0,0-.07,0l-.12.07-.26.16-.15.09-.06,0s0,0,0,0l-.09.05a.71.71,0,0,0-.18.12,4.81,4.81,0,0,0-.41.27l-.07,0,0,0-.05,0,0,0-.3.21a5.82,5.82,0,0,0-.53.38h0l-.1.07-.11.09c-.21.15-.41.3-.61.47l-.08.06-.05,0-.13.11a1.49,1.49,0,0,0-.14.12l0,0a1.92,1.92,0,0,0-.23.19l-.17.14-.34.31a.44.44,0,0,0-.11.09,2.73,2.73,0,0,0-.25.23l-.07.06-.1.1c-.13.11-.25.23-.37.35s-.45.45-.67.67h0c-.34.35-.68.71-1,1.08l-.29.33c-.22.27-.44.54-.64.81s-.21.27-.31.4l0,.05-.23.3-.1.15-.19.25-.08.12c-.1.14-.2.29-.29.44s0,.07-.07.1a3.28,3.28,0,0,0-.2.31l0,.07a.21.21,0,0,0,0,.06c-.18.28-.35.57-.52.86s-.32.56-.47.84l-.11.22c-.08.14-.16.28-.23.43l-.1.21-.21.42h0c0,.09-.09.2-.13.29a1,1,0,0,0-.07.15c-.07.14-.14.29-.2.44L3.93,23c-.13.3-.24.61-.36.91s-.22.61-.32.92-.2.62-.29.93l-.09.31-.12.47a1,1,0,0,0-.06.25c0,.05,0,.1,0,.16a.5.5,0,0,0,0,.16s0,0,0,0,0,0,0,0a.13.13,0,0,0,0,.06.29.29,0,0,0,0,.09,5.08,5.08,0,0,0-.15.65l0,.15s0,.08,0,.13-.07.34-.1.51,0,.08,0,.12l0,.1-.06.36c0,.11,0,.22-.05.34L2,30.41c0,.14,0,.28,0,.42H2c0,.13,0,.27,0,.41s0,.27,0,.41,0,.59,0,.88v.26c0,.3,0,.59,0,.89a28,28,0,0,0,.6,5.76l-.1-.22,0-.08c0-.11-.09-.22-.14-.32l-.27-.67c-.08-.22-.17-.44-.25-.68l-.11-.33-.12-.34c-.07-.24-.15-.47-.21-.7s-.14-.46-.2-.69L.87,35l0-.14a0,0,0,0,0,0,0l-.12-.5c0-.09,0-.17,0-.25l0-.11a.78.78,0,0,1,0-.14,2.61,2.61,0,0,1-.06-.27,2.56,2.56,0,0,1-.05-.27c0-.2-.07-.4-.11-.6l-.06-.39,0-.24c0-.08,0-.16,0-.23,0-.24-.06-.49-.08-.73l-.06-.54v-.23c0-.16,0-.32,0-.48s0-.27,0-.41,0-.22,0-.32a2.35,2.35,0,0,1,0-.26c0-.25,0-.51,0-.76v-.55c0-.19,0-.38,0-.56s0-.3,0-.44h0c0-.07,0-.15,0-.22s0,0,0,0c0-.18,0-.36,0-.54a.76.76,0,0,1,0-.15c0-.13,0-.26,0-.38s0-.4.07-.59v-.05c.09-.7.2-1.38.33-2.06.05-.26.11-.52.17-.77a.43.43,0,0,1,0-.05s0,0,0-.06c.06-.24.11-.47.17-.7a.25.25,0,0,1,0-.07c0-.13.07-.26.11-.4v0c0-.09.05-.18.08-.27a.84.84,0,0,1,0-.12.83.83,0,0,1,0-.15c0-.11.07-.23.11-.34l.12-.36q.08-.27.18-.54c.15-.43.32-.86.5-1.28h0s0,0,0,0v0l.06-.14h0l.18-.42h0s0,0,0,0l0-.06c0-.13.11-.25.17-.37s.08-.18.13-.27h0c.05-.12.11-.24.17-.37l.1-.2L3.23,15l.4-.74A28.56,28.56,0,0,1,6.91,9.64h0c.33-.36.65-.72,1-1.07l.51-.51.53-.5.54-.49h0c.56-.5,1.14-1,1.73-1.42s1.21-.87,1.85-1.27l.1-.07,0,0c.53-.18,1.06-.35,1.61-.5s1.09-.27,1.64-.39c.38-.07.75-.15,1.13-.21l.58-.09L19.3,3l.59-.06.46,0c.14,0,.28,0,.42,0l.72,0h.72l.8,0,.65,0,.72.05.71.06.7.08.71.09.61.1.07,0h0l.16,0,.41.07.49.1.72.17.08,0,.29.08.82.22A28.36,28.36,0,0,1,35.57,6.17Z"/><path class="cls-2" d="M47,50.51H30.7a6.57,6.57,0,0,1-.78,0H29.6c-.3,0-.59,0-.88,0l-.42,0c-.21,0-.43,0-.64-.06L27,50.36l-.62-.11L26,50.17l-.07,0-.32-.08c-.35-.08-.68-.17-1-.28l-.28-.09-.05,0h-.09l-.09,0a.11.11,0,0,0-.08,0h0l-.12,0-.12,0a0,0,0,0,1,0,0l-.29-.11c-.2-.07-.39-.15-.57-.23l-.56-.26a5.28,5.28,0,0,1-.53-.27.11.11,0,0,1-.06,0,4.82,4.82,0,0,1-.5-.27L20.67,48c-.12-.07-.24-.14-.35-.22l-.11-.07,0,0h0l.17,0h.1l.42,0h1.36c.27,0,.53,0,.79,0H39.58a11.27,11.27,0,0,1,4.43.9l0,0A11.11,11.11,0,0,1,47,50.51Z"/><path class="cls-2" d="M21.33,47.74h0Z"/><path class="cls-2" d="M24.07,49.62l-.08,0h0A.11.11,0,0,1,24.07,49.62Z"/><path class="cls-5" d="M45.58,39.07a.19.19,0,0,1,0,.08,0,0,0,0,1,0,0,14.63,14.63,0,0,1-1.37,2.63,15.74,15.74,0,0,1-2.65,3.1H28.89A16.28,16.28,0,0,0,32,44.42,16.85,16.85,0,0,0,44.63,28.09c0-.39,0-.77,0-1.14s-.07-.79-.13-1.18l0,.05c.25.46.47.95.68,1.44,0,.12.1.24.14.35l.15.39c.06.16.12.33.17.49a3.37,3.37,0,0,1,.1.34c.05.14.09.28.13.42.11.4.2.81.28,1.22,0,0,0,0,0,0l0,.1c0,.2.07.39.1.6A16.85,16.85,0,0,1,46.44,33,16.55,16.55,0,0,1,45.58,39.07Z"/><path class="cls-3" d="M2.24,17.13v0h0l0,0h0Z"/><path class="cls-3" d="M2.42,16.7h0l-.18.42h0Z"/><path class="cls-3" d="M2.43,16.68h0Z"/><path class="cls-3" d="M2.65,16.22c-.06.12-.12.24-.17.37a1.23,1.23,0,0,1,.12-.26A.54.54,0,0,1,2.65,16.22Z"/><path class="cls-6" d="M55.56,22.2a28.12,28.12,0,0,0-19.92-16c-.57-.3-1.14-.59-1.72-.86l-.59-.26-.59-.24-.58-.23-.12,0-.51-.18h0q-.27-.11-.54-.18l-.12,0c-.18-.07-.38-.12-.56-.18l-.15,0-.48-.14-.34-.08L29,3.63l-.08,0-.72-.17-.49-.1-.41-.07-.16,0h0a.11.11,0,0,0-.07,0l-.61-.1L25.79,3l-.7-.08-.24,0-.29,0-.18,0-.72,0c-.22,0-.43,0-.65,0H21.49l-.72,0a3,3,0,0,0-.42,0,3.44,3.44,0,0,0-.46,0L19.3,3c-.38,0-.77.09-1.15.15a5.81,5.81,0,0,0-.58.09c-.38.06-.75.13-1.13.21-.55.11-1.1.24-1.64.39s-1.08.32-1.61.5h0c.2-.13.4-.26.61-.38l.83-.47L15.5,3l.72-.35q.72-.33,1.47-.63l.64-.25.86-.31.91-.28q1-.3,2.1-.54l.87-.17.87-.14.69-.1c.51-.06,1-.11,1.52-.14l.4,0L27,0h1.78c.48,0,1,0,1.43.07L31,.15l.64.07.2,0L33,.43h.05c.58.1,1.16.22,1.72.36l.37.09.57.15.55.17.9.29c.58.2,1.15.42,1.71.65.28.11.55.23.83.36l.78.37,0,0,.65.33.26.14.14.07.12.07c.22.12.45.25.67.39l.14.08.1.06.28.17.29.18.36.23.28.19.58.4a30.37,30.37,0,0,1,2.51,2l.36.33.11.11c.16.14.31.3.47.45l0,0c.14.13.29.27.42.41l.44.48c.12.12.23.25.35.38l.08.09c.29.32.56.65.83,1l.1.12c.08.1.16.21.25.31l0,.05.15.2s0,0,0,.05l0,0h0c.09.11.18.23.26.35l0,0a2.2,2.2,0,0,1,.17.25.64.64,0,0,1,.1.13h0a.71.71,0,0,1,.1.14l.11.15h0l0,0,.07.11.08.11c0,.09.11.18.17.27h0s0,.06.07.1.17.27.26.42l0,.06q.15.24.3.51a1,1,0,0,1,.08.14h0s0,0,0,0,.12.19.17.29l.13.23a.13.13,0,0,0,0,.05h0l0,.09a.33.33,0,0,1,0,.06h0c.14.24.27.5.39.75s.17.35.25.53l.17.36.07.18h0l.27.61s0,0,0,.05h0a.14.14,0,0,1,0,.06l0,.05c.06.14.11.29.16.43s.11.29.17.43.13.35.19.53l.12.37a1,1,0,0,1,0,.16,1.72,1.72,0,0,1,.07.21l.19.61c.1.35.19.71.28,1.07S55.5,21.91,55.56,22.2Z"/><path class="cls-6" d="M24.56,2.9h-.18l-.72-.05-.65,0-.8,0h-.72l-.72,0c-.14,0-.28,0-.42,0l-.46,0L19.3,3l-1.15.14-.58.09c-.38.06-.75.14-1.13.21-.55.12-1.1.25-1.64.39.54-.15,1.09-.28,1.64-.39.38-.08.75-.15,1.13-.21a5.81,5.81,0,0,1,.58-.09C18.53,3,18.92,3,19.3,3l.59-.05a3.44,3.44,0,0,1,.46,0,3,3,0,0,1,.42,0l.72,0H23c.22,0,.43,0,.65,0l.72,0Z"/><path class="cls-6" d="M27.11,3.22a.11.11,0,0,1,.07,0l-.07,0-.61-.1L25.79,3,25.09,3l-.24,0,.24,0,.7.08.71.1Z"/><path class="cls-3" d="M42.51,4h0l-.14-.08Z"/><path class="cls-3" d="M47.38,7.67l-.11-.11.09.09Z"/><path class="cls-3" d="M34.78.8C34.22.66,33.64.54,33.06.44,33.64.54,34.21.66,34.78.8Z"/><path class="cls-3" d="M36.43,13.63l-.61-.35c-.21-.11-.41-.22-.63-.32A11.38,11.38,0,0,1,36.43,13.63Z"/><path class="cls-3" d="M39,15.48h0Z"/><path class="cls-3" d="M39,15.55h0s0,0,0,0v0h0Z"/><path class="cls-3" d="M39.11,15.63,39,15.56h0A.46.46,0,0,1,39.11,15.63Z"/><path class="cls-3" d="M39.16,15.67l0,0h0Z"/><path class="cls-3" d="M39.2,15.71h0l0,0h0Z"/><path class="cls-3" d="M42.61,4,42.51,4l-.14-.08.14.08A.33.33,0,0,1,42.61,4Z"/><path class="cls-3" d="M47.38,7.67l-.11-.11.09.09Z"/><path class="cls-3" d="M54.65,18.91c-.11-.32-.23-.65-.36-1,.06.15.11.29.17.43S54.59,18.73,54.65,18.91Z"/><path class="cls-3" d="M24,49.59Z"/><path class="cls-3" d="M24.3,49.7l-.06,0h0Z"/><path class="cls-6" d="M21.33,47.74h0Z"/><path class="cls-3" d="M18.2,42a16.36,16.36,0,0,1-4.1-4A17.06,17.06,0,0,0,18.2,42Z"/><path class="cls-6" d="M56.63,55.21a.6.6,0,0,1,0,.19h0a.35.35,0,0,1,0,.11l0-.05c-.1-.15-.2-.3-.31-.44a11.31,11.31,0,0,0-4.55-3.6,11.17,11.17,0,0,0-4.45-.92H47a11.11,11.11,0,0,0-3-1.88l0,0a11.27,11.27,0,0,0-4.43-.9H23c-.26,0-.52,0-.79,0H20.85l-.42,0h-.1l-.17,0,0,0-.4-.27-.38-.29c-.17-.12-.34-.26-.49-.39l-.27-.23-.73-.67c-.21-.2-.42-.41-.62-.63s-.59-.66-.87-1L16,43.64c-.15-.19-.27-.38-.4-.57s-.14-.21-.21-.32c-.18-.28-.35-.56-.51-.85h0a16.6,16.6,0,0,1-2-5.85,13,13,0,0,0,.72,1.19c.15.24.3.46.47.69a16.36,16.36,0,0,0,4.1,4l.43.28c.32.21.65.41,1,.59l.4.22.18.09h0l.39.19.51.23a2.75,2.75,0,0,0,.36.15l.24.1.44.16.53.18.27.08.51.14c.34.09.69.18,1,.25l.66.11h.07l.59.08a4.4,4.4,0,0,0,.51.05,3.55,3.55,0,0,0,.46,0l.25,0,.69,0h.38c.26,0,.51,0,.76,0H46l.51,0c.17,0,.34,0,.5.06l.29,0,.21,0,.3.07a9.17,9.17,0,0,1,1,.27l.49.16h0l.51.21h0a12,12,0,0,1,1.07.55,8.73,8.73,0,0,1,1.15.75c.17.12.33.25.49.38l.44.38.43.42a4.48,4.48,0,0,1,.36.4,4.2,4.2,0,0,1,.29.32l.32.4A11.05,11.05,0,0,1,56.63,55.21Z"/><path class="cls-5" d="M72.2,12.52a16.86,16.86,0,0,1-8.17,0,27.81,27.81,0,0,0-4.56-6.83V.44l.32-.33L70.7,11Z"/><path class="cls-2" d="M99.76,48.87h-.14c-.23,0-.47,0-.7,0H98.6A16.77,16.77,0,0,1,90.77,47l-7.1-7.1a16.85,16.85,0,0,1,.08-15.81l5.5,5.5A28,28,0,0,0,99.76,48.87Z"/><path class="cls-3" d="M90.87,17.07a28,28,0,0,0-1.75,9.69l-4.35-4.34A16.82,16.82,0,0,1,90.87,17.07Z"/><path class="cls-2" d="M90.87,17.07a28,28,0,0,0-1.75,9.69l-4.35-4.34A16.82,16.82,0,0,1,90.87,17.07Z"/><path class="cls-4" d="M100.73,15.34,89.21,26.85l-.09-.09a28,28,0,0,1,1.75-9.69A16.75,16.75,0,0,1,98.6,15.2,15,15,0,0,1,100.73,15.34Z"/><path class="cls-4" d="M108.55,48.87H99.76a28,28,0,0,1-10.51-19.3Z"/><path class="cls-4" d="M81,21.31a28.11,28.11,0,0,1-9,2.89,27.7,27.7,0,0,1-5.23.24,27.89,27.89,0,0,0-2.69-12,16.86,16.86,0,0,0,8.17,0l3.59,3.59Z"/><path class="cls-5" d="M112.35,3.71l-2.47,2.47-9.15,9.16a15,15,0,0,0-2.13-.14,16.75,16.75,0,0,0-7.73,1.87,28.14,28.14,0,0,1,16-16.36A11.21,11.21,0,0,1,112.35,3.71Z"/><path class="cls-6" d="M81.74,32.05a16.77,16.77,0,0,0,1.93,7.83l-13-13V56.07H59.47V50.41A11.18,11.18,0,0,0,66.69,53V25.82c0-.27,0-.54,0-.81s0-.36,0-.54v0A27.7,27.7,0,0,0,72,24.2a28.11,28.11,0,0,0,9-2.89l2.76,2.76A16.78,16.78,0,0,0,81.74,32.05Z"/><path class="cls-6" d="M106.92.71a28.14,28.14,0,0,0-16,16.36,16.82,16.82,0,0,0-6.1,5.35l-3.51-3.51,15.2-15.2A11.23,11.23,0,0,1,106.92.71Z"/><path class="cls-5" d="M126.21,54.91h-7.66q-.39,0-.81,0h-.53a28.39,28.39,0,0,1-6.89-.85,27.92,27.92,0,0,1-10.56-5.23h16.49a11.24,11.24,0,0,1,10,6Z"/><path class="cls-4" d="M110.32,54.1a11.24,11.24,0,0,1-14-1.54L90.77,47a16.77,16.77,0,0,0,7.83,1.93h.32c.23,0,.47,0,.7,0h.14A27.92,27.92,0,0,0,110.32,54.1Z"/><path class="cls-4" d="M64,12.47a16.58,16.58,0,0,1-4.56-1.94V5.64A27.81,27.81,0,0,1,64,12.47Z"/><path class="cls-2" d="M66.72,24.44v0c0,.18,0,.36,0,.54s0,.54,0,.81V53a11.18,11.18,0,0,1-7.22-2.63V10.53A16.58,16.58,0,0,0,64,12.47,27.89,27.89,0,0,1,66.72,24.44Z"/><path class="cls-6" d="M138.06,55.2a14.6,14.6,0,0,1-5.73-1,10.7,10.7,0,0,1-3.66-2.34,3.62,3.62,0,0,1-1.28-2.26,2.07,2.07,0,0,1,.23-.89,2.26,2.26,0,0,1,.6-.75,1.22,1.22,0,0,1,.73-.29,1.5,1.5,0,0,1,1.07.65,16.32,16.32,0,0,0,1.46,1.51,8.1,8.1,0,0,0,2.42,1.51,10.14,10.14,0,0,0,3.95.65,9.88,9.88,0,0,0,4.19-.81,5.67,5.67,0,0,0,2.65-2.39,7.89,7.89,0,0,0,.91-4,7.68,7.68,0,0,0-.93-4,7.57,7.57,0,0,0-2.47-2.5,20.24,20.24,0,0,0-3.36-1.67l-3.67-1.4a15.71,15.71,0,0,1-3.38-1.77,8.09,8.09,0,0,1-2.5-2.81,9.17,9.17,0,0,1-1-4.45,9.33,9.33,0,0,1,1-4.69,8.11,8.11,0,0,1,2.68-2.86,11.29,11.29,0,0,1,3.56-1.48,16.45,16.45,0,0,1,3.75-.44,19.28,19.28,0,0,1,3,.23,18.54,18.54,0,0,1,2.84.65,7.84,7.84,0,0,1,2.11,1,1.62,1.62,0,0,1,.8,1.3,2.21,2.21,0,0,1-.18.81,2.86,2.86,0,0,1-.49.78,1.11,1.11,0,0,1-.84.34,2.9,2.9,0,0,1-1.3-.5,12.52,12.52,0,0,0-2.26-1,11.68,11.68,0,0,0-3.72-.49,11.85,11.85,0,0,0-3.62.55,6,6,0,0,0-2.84,1.84,5.56,5.56,0,0,0-1.09,3.65,5.43,5.43,0,0,0,1,3.35,7.23,7.23,0,0,0,2.5,2.06,28.28,28.28,0,0,0,3.36,1.43c1.21.43,2.44.92,3.67,1.46a14.59,14.59,0,0,1,3.38,2,8.78,8.78,0,0,1,2.47,3.2,11.82,11.82,0,0,1,.94,5.1,11.72,11.72,0,0,1-1.41,6.06,8.59,8.59,0,0,1-3.87,3.51A13.34,13.34,0,0,1,138.06,55.2Z"/><path class="cls-7" d="M163.4,55.2a9.13,9.13,0,0,1-4.89-1.38,10.89,10.89,0,0,1-3.62-3.65,9.15,9.15,0,0,1-1.38-4.86V39.64a9,9,0,0,1,1.36-4.82,10.54,10.54,0,0,1,3.59-3.56,9.39,9.39,0,0,1,4.94-1.36,9.61,9.61,0,0,1,4.92,1.33,10.49,10.49,0,0,1,3.62,3.51,9.14,9.14,0,0,1,1.35,4.9v5.67a9.39,9.39,0,0,1-1.35,4.84,10.51,10.51,0,0,1-3.62,3.67A9.28,9.28,0,0,1,163.4,55.2Zm0-3.13a5.82,5.82,0,0,0,3.28-1A7.26,7.26,0,0,0,169,48.59a6.58,6.58,0,0,0,.89-3.28V39.64a6.38,6.38,0,0,0-.86-3.18A7.09,7.09,0,0,0,166.71,34a6,6,0,0,0-3.31-1,5.84,5.84,0,0,0-3.28,1,7.47,7.47,0,0,0-2.34,2.47,6.21,6.21,0,0,0-.88,3.18v5.67a6.56,6.56,0,0,0,.88,3.28,7.16,7.16,0,0,0,2.37,2.52A5.86,5.86,0,0,0,163.4,52.07Z"/><path class="cls-7" d="M180.52,54.83a1.81,1.81,0,0,1-1.14-.36,1.15,1.15,0,0,1-.47-.94V24.7a9.27,9.27,0,0,1,1.27-4.81,9.86,9.86,0,0,1,3.39-3.46,8.56,8.56,0,0,1,4.6-1.3h1.3a1.32,1.32,0,0,1,1.1.46,1.77,1.77,0,0,1,.36,1.1,1.66,1.66,0,0,1-.36,1,1.32,1.32,0,0,1-1.1.47h-.88a6.1,6.1,0,0,0-3.2.85,6.22,6.22,0,0,0-2.24,2.29,6.71,6.71,0,0,0-.86,3.1v5.78h7.44a1.06,1.06,0,0,1,.89.41,1.52,1.52,0,0,1,.31.94,1.73,1.73,0,0,1-.31,1,1,1,0,0,1-.89.44h-7.44v20.5a1.1,1.1,0,0,1-.52.94A2.14,2.14,0,0,1,180.52,54.83Z"/><path class="cls-7" d="M202.9,54.83A9.17,9.17,0,0,1,196.76,53c-1.42-1.21-2.13-3.16-2.13-5.83V19.76a1,1,0,0,1,.54-.91,2.09,2.09,0,0,1,1.12-.34,2.13,2.13,0,0,1,1.2.34,1,1,0,0,1,.52.91V30.22h6.76a1,1,0,0,1,.84.41,1.74,1.74,0,0,1,0,2,1,1,0,0,1-.84.42H198V47.18a4.75,4.75,0,0,0,1.09,3.57,5.62,5.62,0,0,0,3.8,1h1.46a1.44,1.44,0,0,1,1.12.44,1.57,1.57,0,0,1,.39,1.07,1.64,1.64,0,0,1-.39,1.09,1.36,1.36,0,0,1-1.12.47Z"/><path class="cls-7" d="M217.37,55.25a1.43,1.43,0,0,1-.86-.24,1.56,1.56,0,0,1-.55-.8L207.84,32.4c0-.1-.07-.23-.13-.39a1.24,1.24,0,0,1-.07-.39,1.05,1.05,0,0,1,.31-.75,2.34,2.34,0,0,1,.78-.55,2.24,2.24,0,0,1,.93-.21,1.43,1.43,0,0,1,.73.21.94.94,0,0,1,.47.57l6.66,18.53,5.36-16.91a1.2,1.2,0,0,1,.5-.68,1.59,1.59,0,0,1,.86-.21,1.63,1.63,0,0,1,.83.21,1.15,1.15,0,0,1,.52.68l5.15,17.12,6.82-18.74a1,1,0,0,1,1.14-.78,2.39,2.39,0,0,1,.94.19,2,2,0,0,1,.78.52,1.12,1.12,0,0,1,.31.8,1.27,1.27,0,0,1-.08.42,3.65,3.65,0,0,1-.12.36l-8.12,22a1.09,1.09,0,0,1-.55.65,1.91,1.91,0,0,1-.81.18,1.48,1.48,0,0,1-1.4-.78l-5.41-16.92-5.36,16.66a1.34,1.34,0,0,1-.58.78A1.74,1.74,0,0,1,217.37,55.25Z"/><path class="cls-7" d="M250.2,55.2a7.71,7.71,0,0,1-5-1.69,6.28,6.28,0,0,1-2.08-5.18,6,6,0,0,1,1.53-4.4,8.46,8.46,0,0,1,4.27-2.13,29.69,29.69,0,0,1,6.32-.6h2.66V40a9.61,9.61,0,0,0-.6-3.31,6,6,0,0,0-1.93-2.7,5.62,5.62,0,0,0-3.62-1.07,8.75,8.75,0,0,0-2.8.37,8,8,0,0,0-1.72.75,2.14,2.14,0,0,1-1,.39,1.11,1.11,0,0,1-1-.62,2.35,2.35,0,0,1-.37-1.2c0-.45.36-.88,1.07-1.28a10.83,10.83,0,0,1,2.71-1,13.45,13.45,0,0,1,3.25-.4,9.5,9.5,0,0,1,5.54,1.44,8.08,8.08,0,0,1,3,3.72,13.2,13.2,0,0,1,.91,4.89V53.48a1.24,1.24,0,0,1-.44,1,1.81,1.81,0,0,1-1.23.39,1.66,1.66,0,0,1-1.09-.39,1.21,1.21,0,0,1-.47-1V51.19A15.81,15.81,0,0,1,254.78,54,8.24,8.24,0,0,1,250.2,55.2Zm.84-2.87a6.59,6.59,0,0,0,3.28-.88,8.8,8.8,0,0,0,2.57-2.16,4,4,0,0,0,1-2.42V43.54h-2.19a33.27,33.27,0,0,0-4.45.29,7.58,7.58,0,0,0-3.43,1.22,3.35,3.35,0,0,0-1.33,3,3.88,3.88,0,0,0,1.33,3.28A5,5,0,0,0,251,52.33Z"/><path class="cls-7" d="M269.2,54.83a1.79,1.79,0,0,1-1.17-.41,1.22,1.22,0,0,1-.5-.94v-22a1,1,0,0,1,.5-.91,2,2,0,0,1,1.17-.34,1.86,1.86,0,0,1,1.14.34,1,1,0,0,1,.47.91V34a7.9,7.9,0,0,1,1.56-2,8.13,8.13,0,0,1,2.34-1.54,7.54,7.54,0,0,1,3.07-.6h1.83a1.22,1.22,0,0,1,1,.45,1.63,1.63,0,0,1,.39,1.12,1.66,1.66,0,0,1-.39,1.09,1.21,1.21,0,0,1-1,.47h-1.83a6.52,6.52,0,0,0-3.3.91,7,7,0,0,0-2.58,2.6,8,8,0,0,0-1,4.09V53.48a1.22,1.22,0,0,1-.5.94A1.87,1.87,0,0,1,269.2,54.83Z"/><path class="cls-2" d="M293.92,55.2A13,13,0,0,1,288.11,54a9.73,9.73,0,0,1-3.95-3.46,9.28,9.28,0,0,1-1.43-5.18V39.48a9,9,0,0,1,1.35-4.79,10.07,10.07,0,0,1,3.62-3.48,10,10,0,0,1,13.35,3.27,9,9,0,0,1,1.35,4.9,4.72,4.72,0,0,1-.68,2.88A2.79,2.79,0,0,1,300,43.33a10.62,10.62,0,0,1-2.16.21H286.11v1.93a6,6,0,0,0,2.24,4.94A8.71,8.71,0,0,0,294,52.23a8,8,0,0,0,3.23-.52,8.56,8.56,0,0,0,1.79-1,2,2,0,0,1,1.23-.52,1.15,1.15,0,0,1,.75.28,2,2,0,0,1,.52.66,1.5,1.5,0,0,1,.18.67q0,.57-.93,1.41a8,8,0,0,1-2.71,1.43A13,13,0,0,1,293.92,55.2ZM286.11,41h10.41a4.22,4.22,0,0,0,2.08-.34c.35-.22.52-.7.52-1.43a6.59,6.59,0,0,0-.81-3.17A6.41,6.41,0,0,0,296,33.65a6.25,6.25,0,0,0-3.4-.94,6.43,6.43,0,0,0-3.26.86A6.73,6.73,0,0,0,287,35.86a6,6,0,0,0-.89,3.2Z"/></g></g></svg>