<svg xmlns="http://www.w3.org/2000/svg" viewBox="0 0 225.16 100"><defs><style>.cls-1{fill:#cd99e1;}.cls-2{fill:#503f9a;}.cls-3{fill:#fff;}.cls-4{fill:#a556bf;}.cls-5{fill:#3a2790;}.cls-6{fill:none;}</style></defs><g id="Layer_2" data-name="Layer 2"><g id="Layer_1-2" data-name="Layer 1"><path class="cls-1" d="M129,22.29a30,30,0,0,1-14.55-.1A49.59,49.59,0,0,0,106.36,10V.78l.58-.58,19.42,19.42Z"/><path class="cls-2" d="M178.08,87h-.25c-.41,0-.83.05-1.25.05H176a29.82,29.82,0,0,1-13.93-3.43L149.44,71a30,30,0,0,1,.14-28.14l9.79,9.79A49.87,49.87,0,0,0,178.08,87Z"/><path class="cls-3" d="M162.26,30.39a49.79,49.79,0,0,0-3.12,17.25l-7.73-7.73A29.81,29.81,0,0,1,162.26,30.39Z"/><path class="cls-2" d="M162.26,30.39a49.79,49.79,0,0,0-3.12,17.25l-7.73-7.73A29.81,29.81,0,0,1,162.26,30.39Z"/><path class="cls-4" d="M179.8,27.3,159.3,47.8l-.16-.16a49.79,49.79,0,0,1,3.12-17.25A29.76,29.76,0,0,1,176,27.05,27.8,27.8,0,0,1,179.8,27.3Z"/><path class="cls-4" d="M193.73,87H178.08a49.87,49.87,0,0,1-18.71-34.36Z"/><path class="cls-4" d="M144.67,37.93a49.92,49.92,0,0,1-16.1,5.14,49,49,0,0,1-9.3.43,49.68,49.68,0,0,0-4.79-21.31,30,30,0,0,0,14.55.1l6.38,6.38Z"/><path class="cls-1" d="M198.49,4.86a2.33,2.33,0,0,1,.25,3.5L196.1,11,179.8,27.3a27.8,27.8,0,0,0-3.78-.25,29.76,29.76,0,0,0-13.76,3.34A50.09,50.09,0,0,1,190.83,1.26,19.88,19.88,0,0,1,198.49,4.86Z"/><path class="cls-5" d="M146,57.05A29.82,29.82,0,0,0,149.44,71L126.36,47.9V99.8h-20V89.73a20,20,0,0,0,12.85,4.67V46c0-.48,0-1,0-1.45,0-.32,0-.63,0-.95V43.5a49,49,0,0,0,9.3-.43,49.92,49.92,0,0,0,16.1-5.14l4.91,4.91A29.86,29.86,0,0,0,146,57.05Z"/><path class="cls-5" d="M190.83,1.26a50.09,50.09,0,0,0-28.57,29.13,29.81,29.81,0,0,0-10.85,9.52l-6.25-6.25,27.05-27A20,20,0,0,1,190.83,1.26Z"/><path class="cls-1" d="M225.16,97.74H211.53c-.48,0-1,0-1.45,0-.32,0-.63,0-1,0a50.51,50.51,0,0,1-12.26-1.51A49.84,49.84,0,0,1,178.08,87h29.34a20,20,0,0,1,17.74,10.75Z"/><path class="cls-4" d="M196.87,96.29A20,20,0,0,1,172,93.55l-9.93-9.93A29.82,29.82,0,0,0,176,87.05h.57c.42,0,.84,0,1.25-.05h.25A49.84,49.84,0,0,0,196.87,96.29Z"/><path class="cls-4" d="M114.48,22.19a29.49,29.49,0,0,1-8.12-3.44V10A49.59,49.59,0,0,1,114.48,22.19Z"/><path class="cls-2" d="M119.27,43.5v.06c0,.32,0,.63,0,.95,0,.49,0,1,0,1.45V94.4a20,20,0,0,1-12.85-4.67v-71a29.49,29.49,0,0,0,8.12,3.44A49.68,49.68,0,0,1,119.27,43.5Z"/><path class="cls-6" d="M28.87,4.69c.86-.4,1.73-.78,2.61-1.13C30.6,3.9,29.73,4.28,28.87,4.69Zm22.7,15.38L51,20q.43,0,.87.06Zm5.51.91s0,0,0,0h0Zm-1.78-.41-.11,0-.08,0-.41-.07.76.15Zm1.1.24-.34-.08-.26-.05.66.15Zm.46.11-.14,0,.14,0A.31.31,0,0,1,57,21Zm-2.81-.57h-.11l.11,0,.14,0A.58.58,0,0,0,54.05,20.35Zm9.71,3.29c-.37-.2-.74-.39-1.12-.57.75.37,1.49.77,2.2,1.2Q64.3,23.94,63.76,23.64Zm6.65,4.94h0Zm0,0,0,0h0S70.4,28.55,70.39,28.56ZM51.57,20.07,51,20q.43,0,.87.06Zm5.51.91s0,0,0,0h0Zm-1.78-.41-.11,0-.08,0-.41-.07.76.15Zm1.1.24-.34-.08-.26-.05.66.15Zm.46.11-.14,0,.14,0A.31.31,0,0,1,57,21Zm-2.81-.57h-.11l.11,0,.14,0A.58.58,0,0,0,54.05,20.35Zm9.71,3.29c-.37-.2-.74-.39-1.12-.57.75.37,1.49.77,2.2,1.2Q64.3,23.94,63.76,23.64Zm6.65,4.94h0Zm0,0,0,0h0S70.4,28.55,70.39,28.56ZM51.57,20.07,51,20q.43,0,.87.06Zm5.51.91s0,0,0,0h0Zm-1.78-.41-.11,0-.08,0-.41-.07.76.15Zm1.1.24-.34-.08-.26-.05.66.15Zm.46.11-.14,0,.14,0A.31.31,0,0,1,57,21Zm-2.81-.57h-.11l.11,0,.14,0A.58.58,0,0,0,54.05,20.35Zm9.71,3.29c-.37-.2-.74-.39-1.12-.57.75.37,1.49.77,2.2,1.2Q64.3,23.94,63.76,23.64Zm6.65,4.94h0Zm0,0,0,0h0S70.4,28.55,70.39,28.56ZM79.18,46l-.06-.45A27.54,27.54,0,0,0,78,40.78a29.73,29.73,0,0,1,1.16,5.08h0ZM50,79.93V80h0c.46,0,.91,0,1.36-.06ZM25.09,67.51a29.47,29.47,0,0,0,7.31,7.17A30.36,30.36,0,0,1,25.09,67.51ZM22.45,36.88h0c-.19.39-.37.79-.54,1.19.18-.4.36-.8.55-1.19h0Zm1.81,29.41c-.35-.55-.69-1.11-1-1.69h0L23,64.07v0A29.71,29.71,0,0,1,19.46,50c0-.49,0-1,0-1.46s.05-1,.1-1.44c0-.18,0-.36.06-.54q.07-.69.18-1.35c0-.21.07-.42.11-.63s.11-.59.17-.88.13-.6.21-.89.07-.31.11-.46c0,.13-.07.25-.11.37s-.07.25-.1.38-.09.4-.13.6-.1.46-.14.69c-.08.41-.15.82-.21,1.24a.43.43,0,0,1,0,.05c0,.27-.07.54-.1.82a0,0,0,0,0,0,0c0,.12,0,.25,0,.37l0,.39c0,.23,0,.45-.06.68s0,.19,0,.29,0,.28,0,.42c0,.44,0,.88,0,1.33A29.75,29.75,0,0,0,23,64.15h0A23.1,23.1,0,0,0,24.26,66.29ZM21.34,39.47l-.09.24c0,.08-.05.16-.08.24s-.09.29-.14.44c.09-.28.18-.55.29-.82a2.49,2.49,0,0,1,.11-.29q.22-.62.48-1.2C21.71,38.54,21.52,39,21.34,39.47Zm2-4.25-.27.48h0l-.31.58c-.1.2-.19.39-.28.59.39-.79.81-1.56,1.25-2.31C23.58,34.79,23.45,35,23.33,35.22Zm47.08-6.64h0Zm0,0,0,0h0S70.4,28.55,70.39,28.56Zm-6.63-4.92c-.37-.2-.74-.39-1.12-.57.75.37,1.49.77,2.2,1.2Q64.3,23.94,63.76,23.64ZM57.08,21s0,0,0,0h0Zm-1.78-.41-.11,0-.08,0-.41-.07.76.15Zm1.1.24-.34-.08-.26-.05.66.15Zm.46.11-.14,0,.14,0A.31.31,0,0,1,57,21Zm-2.81-.57h-.11l.11,0,.14,0A.58.58,0,0,0,54.05,20.35Zm-2.48-.28L51,20q.43,0,.87.06Zm18.84,8.51h0Zm0,0,0,0h0S70.4,28.55,70.39,28.56Zm-6.63-4.92c-.37-.2-.74-.39-1.12-.57.75.37,1.49.77,2.2,1.2Q64.3,23.94,63.76,23.64ZM57.08,21s0,0,0,0h0Zm-1.78-.41-.11,0-.08,0-.41-.07.76.15Zm1.1.24-.34-.08-.26-.05.66.15Zm.46.11-.14,0,.14,0A.31.31,0,0,1,57,21Zm-2.81-.57h-.11l.11,0,.14,0A.58.58,0,0,0,54.05,20.35Zm-2.48-.28L51,20q.43,0,.87.06Zm18.84,8.51h0Zm0,0,0,0h0S70.4,28.55,70.39,28.56Zm-6.63-4.92c-.37-.2-.74-.39-1.12-.57.75.37,1.49.77,2.2,1.2Q64.3,23.94,63.76,23.64ZM57.08,21s0,0,0,0h0Zm-1.78-.41-.11,0-.08,0-.41-.07.76.15Zm1.1.24-.34-.08-.26-.05.66.15Zm.46.11-.14,0,.14,0A.31.31,0,0,1,57,21Zm-2.81-.57h-.11l.11,0,.14,0A.58.58,0,0,0,54.05,20.35Zm-2.48-.28L51,20q.43,0,.87.06ZM20.37,90.24a0,0,0,0,0,0,0h0ZM8.43,77.72c-.11-.15-.21-.31-.32-.48h0c-.36-.55-.72-1.12-1.06-1.69-.21-.36-.42-.72-.62-1.08s-.41-.73-.6-1.1-.37-.71-.55-1.07-.39-.78-.57-1.17-.26-.56-.38-.84v-.06l-.18-.39-.06-.15c-.09-.19-.17-.38-.25-.57-.17-.39-.32-.79-.48-1.19s-.3-.79-.44-1.2l-.21-.6c-.07-.2-.14-.41-.2-.61q-.21-.62-.39-1.23c-.12-.41-.24-.82-.35-1.24l-.21-.78L1.49,62a.43.43,0,0,0,0-.05l-.21-.89c0-.15-.07-.29-.1-.44s0-.12,0-.19,0-.18,0-.26S1,59.88,1,59.71a3.55,3.55,0,0,1-.09-.47c-.07-.36-.13-.71-.19-1.08,0-.22-.08-.45-.11-.69L.53,57c0-.14,0-.27-.06-.41-.06-.42-.11-.86-.15-1.29s-.07-.64-.1-1l0-.42q0-.42-.06-.84c0-.24,0-.49,0-.73,0,0,0,0,0-.07l0-1c0-.45,0-.9,0-1.35s0-.66,0-1,0-.66,0-1,0-.53,0-.79C0,48.14,0,49.05,0,50v0c0,.45,0,.89,0,1.34l0,.84a1.48,1.48,0,0,0,0,.21c0,.29,0,.57.05.86s.05.72.08,1.08.06.69.1,1,.07.66.11,1l.12.89c.08.54.17,1.08.27,1.61.06.36.13.72.2,1.07s.17.8.26,1.2q.27,1.2.6,2.37c.2.71.41,1.41.64,2.1.13.41.27.82.42,1.22q.44,1.22.93,2.4c.08.2.16.38.25.58a.1.1,0,0,1,0,0,.25.25,0,0,0,0,.07.88.88,0,0,0,.09.2c0,.08.07.16.11.25h0v0c.67,1.49,1.41,2.95,2.22,4.36.16.28.32.56.49.84.35.59.72,1.18,1.09,1.75l.14.2,0,0a.08.08,0,0,1,0,0l0,.05,0,0h0l0,.06s0,0,0,0l0,0,.06.09,0,.06s0,0,0,0l0,.07,0,0h0C8.62,78,8.52,77.87,8.43,77.72Zm3.31,4.41q-.86-1-1.65-2.07c-.23-.3-.45-.6-.67-.91l-.29-.4c-.05-.06-.09-.13-.15-.19.1.16.22.32.33.47s.38.54.58.8.47.63.71.93.63.79,1,1.19c.21.23.41.47.62.71h0a1.59,1.59,0,0,0,.13.13h0ZM8.82,78.32l-.07-.11h0l0,0h0v0s0,0,0,0,0,0,0,0l0,0s0,0,0,0A.08.08,0,0,0,8.82,78.32Zm5.56,6.73h0l.27.27h0Zm-.52-.53h0l.06.06ZM4,30.46H4Zm66.41-1.88h0Zm0,0,0,0h0S70.4,28.55,70.39,28.56Zm-6.63-4.92c-.37-.2-.74-.39-1.12-.57.75.37,1.49.77,2.2,1.2Q64.3,23.94,63.76,23.64ZM50,79.93V80h0c.46,0,.91,0,1.36-.06ZM22.45,36.88h0c-.19.39-.37.79-.54,1.19.18-.4.36-.8.55-1.19h0Zm1.81,29.41c-.35-.55-.69-1.11-1-1.69h0L23,64.07v0A29.71,29.71,0,0,1,19.46,50c0-.49,0-1,0-1.46s.05-1,.1-1.44c0-.18,0-.36.06-.54q.07-.69.18-1.35c0-.21.07-.42.11-.63s.11-.59.17-.88.13-.6.21-.89.07-.31.11-.46c0,.13-.07.25-.11.37s-.07.25-.1.38-.09.4-.13.6-.1.46-.14.69c-.08.41-.15.82-.21,1.24a.43.43,0,0,1,0,.05c0,.27-.07.54-.1.82a0,0,0,0,0,0,0c0,.12,0,.25,0,.37l0,.39c0,.23,0,.45-.06.68s0,.19,0,.29,0,.28,0,.42c0,.44,0,.88,0,1.33A29.75,29.75,0,0,0,23,64.15h0A23.1,23.1,0,0,0,24.26,66.29ZM21.34,39.47l-.09.24c0,.08-.05.16-.08.24s-.09.29-.14.44c.09-.28.18-.55.29-.82a2.49,2.49,0,0,1,.11-.29q.22-.62.48-1.2C21.71,38.54,21.52,39,21.34,39.47Zm2-4.25-.27.48h0l-.31.58c-.1.2-.19.39-.28.59.39-.79.81-1.56,1.25-2.31C23.58,34.79,23.45,35,23.33,35.22Zm1.76,32.29a29.47,29.47,0,0,0,7.31,7.17A30.36,30.36,0,0,1,25.09,67.51ZM22.45,36.88h0c-.19.39-.37.79-.54,1.19.18-.4.36-.8.55-1.19h0Zm1.81,29.41c-.35-.55-.69-1.11-1-1.69h0L23,64.07v0A29.71,29.71,0,0,1,19.46,50c0-.49,0-1,0-1.46s.05-1,.1-1.44c0-.18,0-.36.06-.54q.07-.69.18-1.35c0-.21.07-.42.11-.63s.11-.59.17-.88.13-.6.21-.89.07-.31.11-.46c0,.13-.07.25-.11.37s-.07.25-.1.38-.09.4-.13.6-.1.46-.14.69c-.08.41-.15.82-.21,1.24a.43.43,0,0,1,0,.05c0,.27-.07.54-.1.82a0,0,0,0,0,0,0c0,.12,0,.25,0,.37l0,.39c0,.23,0,.45-.06.68s0,.19,0,.29,0,.28,0,.42c0,.44,0,.88,0,1.33A29.75,29.75,0,0,0,23,64.15h0A23.1,23.1,0,0,0,24.26,66.29ZM21.34,39.47l-.09.24c0,.08-.05.16-.08.24s-.09.29-.14.44c.09-.28.18-.55.29-.82a2.49,2.49,0,0,1,.11-.29q.22-.62.48-1.2C21.71,38.54,21.52,39,21.34,39.47Zm2-4.25-.27.48h0l-.31.58c-.1.2-.19.39-.28.59.39-.79.81-1.56,1.25-2.31C23.58,34.79,23.45,35,23.33,35.22Zm1.76,32.29a29.47,29.47,0,0,0,7.31,7.17A30.36,30.36,0,0,1,25.09,67.51ZM50,79.93V80h0c.46,0,.91,0,1.36-.06Zm1.57-59.86L51,20q.43,0,.87.06Zm5.51.91s0,0,0,0h0Zm-1.78-.41-.11,0-.08,0-.41-.07.76.15Zm1.1.24-.34-.08-.26-.05.66.15Zm.46.11-.14,0,.14,0A.31.31,0,0,1,57,21Zm-2.81-.57h-.11l.11,0,.14,0A.58.58,0,0,0,54.05,20.35Zm9.71,3.29c-.37-.2-.74-.39-1.12-.57.75.37,1.49.77,2.2,1.2Q64.3,23.94,63.76,23.64Zm6.65,4.94h0Zm0,0,0,0h0S70.4,28.55,70.39,28.56ZM79.18,46l-.06-.45A27.54,27.54,0,0,0,78,40.78a29.73,29.73,0,0,1,1.16,5.08h0Zm0,0-.06-.45A27.54,27.54,0,0,0,78,40.78a29.73,29.73,0,0,1,1.16,5.08h0ZM70.41,28.58h0Zm0,0,0,0h0S70.4,28.55,70.39,28.56Zm-6.63-4.92c-.37-.2-.74-.39-1.12-.57.75.37,1.49.77,2.2,1.2Q64.3,23.94,63.76,23.64ZM57.08,21s0,0,0,0h0Zm-1.78-.41-.11,0-.08,0-.41-.07.76.15Zm1.1.24-.34-.08-.26-.05.66.15Zm.46.11-.14,0,.14,0A.31.31,0,0,1,57,21Zm-2.81-.57h-.11l.11,0,.14,0A.58.58,0,0,0,54.05,20.35Zm-2.48-.28L51,20q.43,0,.87.06ZM50,79.93V80h0c.46,0,.91,0,1.36-.06ZM25.09,67.51a29.47,29.47,0,0,0,7.31,7.17A30.36,30.36,0,0,1,25.09,67.51ZM22.45,36.88h0c-.19.39-.37.79-.54,1.19.18-.4.36-.8.55-1.19h0Zm1.81,29.41c-.35-.55-.69-1.11-1-1.69h0L23,64.07v0A29.71,29.71,0,0,1,19.46,50c0-.49,0-1,0-1.46s.05-1,.1-1.44c0-.18,0-.36.06-.54q.07-.69.18-1.35c0-.21.07-.42.11-.63s.11-.59.17-.88.13-.6.21-.89.07-.31.11-.46c0,.13-.07.25-.11.37s-.07.25-.1.38-.09.4-.13.6-.1.46-.14.69c-.08.41-.15.82-.21,1.24a.43.43,0,0,1,0,.05c0,.27-.07.54-.1.82a0,0,0,0,0,0,0c0,.12,0,.25,0,.37l0,.39c0,.23,0,.45-.06.68s0,.19,0,.29,0,.28,0,.42c0,.44,0,.88,0,1.33A29.75,29.75,0,0,0,23,64.15h0A23.1,23.1,0,0,0,24.26,66.29ZM21.34,39.47l-.09.24c0,.08-.05.16-.08.24s-.09.29-.14.44c.09-.28.18-.55.29-.82a2.49,2.49,0,0,1,.11-.29q.22-.62.48-1.2C21.71,38.54,21.52,39,21.34,39.47Zm2-4.25-.27.48h0l-.31.58c-.1.2-.19.39-.28.59.39-.79.81-1.56,1.25-2.31C23.58,34.79,23.45,35,23.33,35.22Z"/><path class="cls-2" d="M100,50a48.41,48.41,0,0,1-.57,7.48c-.07.44-.14.87-.22,1.3a2,2,0,0,1,0,.24,49.27,49.27,0,0,1-9.09,20.87c-.41.56-.85,1.12-1.29,1.66-.3-.13-.6-.25-.91-.36l0,0L87,80.88a16.45,16.45,0,0,0-1.83-.49l-.54-.11a2.2,2.2,0,0,0-.37-.06,3,3,0,0,0-.52-.08,8.65,8.65,0,0,0-.89-.11c.17-.28.32-.56.47-.84a48.63,48.63,0,0,0,4-9.34h0a49.45,49.45,0,0,0,1.4-5.61.17.17,0,0,1,0-.07c.1-.56.2-1.12.28-1.69A48.41,48.41,0,0,0,89.54,55,49.82,49.82,0,0,0,75.18,19.93c-.39-.4-.78-.78-1.18-1.16A50,50,0,0,0,63.31,11l.12,0A50,50,0,0,1,98.89,39.51,49.65,49.65,0,0,1,100,50Z"/><path class="cls-3" d="M51.39,79.93c-.45,0-.9.06-1.36.06h0v-.06Z"/><path class="cls-3" d="M51.39,79.93c-.45,0-.9.06-1.36.06h0v-.06Z"/><path class="cls-3" d="M51.39,79.93c-.45,0-.9.06-1.36.06h0v-.06Z"/><path class="cls-4" d="M22.74,36.29c-.1.2-.19.39-.28.59h0C22.54,36.68,22.64,36.49,22.74,36.29Z"/><path class="cls-4" d="M23,64.15A29.75,29.75,0,0,1,19.43,50c0-.45,0-.89,0-1.33,0-.14,0-.28,0-.42s0-.19,0-.29c0-.33.05-.65.08-1,0-.15,0-.31.05-.46s.07-.57.11-.85a.43.43,0,0,0,0-.05c.06-.41.13-.83.21-1.24,0-.23.09-.46.14-.69s.08-.4.13-.6.15-.62.23-.92.13-.45.19-.67.15-.51.24-.76.18-.53.27-.79.11-.33.18-.48.18-.49.28-.73.19-.44.29-.66q-.26.59-.48,1.2a2.49,2.49,0,0,0-.11.29c-.11.27-.2.54-.29.82-.19.53-.35,1.07-.5,1.63a2.45,2.45,0,0,0-.08.29s0,0,0,0-.08.3-.11.46-.15.59-.21.89-.12.58-.17.88-.08.42-.11.63q-.11.66-.18,1.35c0,.18,0,.36-.06.54-.05.47-.08,1-.1,1.44s0,1,0,1.46A29.71,29.71,0,0,0,23,64.05v0S23,64.13,23,64.15Z"/><path class="cls-4" d="M23.33,35.22l-.27.48h0C23.14,35.54,23.23,35.38,23.33,35.22Z"/><path class="cls-4" d="M51.91,20.09l-.34,0L51,20l.53,0Z"/><path class="cls-4" d="M57,21a.31.31,0,0,0-.13,0h0Z"/><path class="cls-4" d="M64.84,24.26l-1.08-.62-1.12-.58A22.25,22.25,0,0,1,64.84,24.26Z"/><path class="cls-4" d="M69.33,27.56h0l0,0S69.32,27.54,69.33,27.56Z"/><path class="cls-4" d="M69.46,27.68h0s0,0,0,0v0l0,0S69.44,27.65,69.46,27.68Z"/><path class="cls-4" d="M69.61,27.82l-.13-.12,0,0s0,0,0,0A.53.53,0,0,1,69.61,27.82Z"/><path class="cls-4" d="M69.7,27.9l-.07-.07,0,0Z"/><path class="cls-4" d="M69.77,28h0l0,0h0S69.76,28,69.77,28Z"/><path class="cls-4" d="M79.14,45.87h0A29.73,29.73,0,0,0,78,40.78a27.54,27.54,0,0,1,1.14,4.72l.06.45Z"/><path class="cls-4" d="M100,50a47.2,47.2,0,0,1-.57,7.48l0,.21c-.06.37-.13.74-.22,1.09.08-.43.15-.86.22-1.3A48.41,48.41,0,0,0,100,50a49.65,49.65,0,0,0-1.11-10.49l.06.13A49.81,49.81,0,0,1,100,50Z"/><path class="cls-4" d="M8.42,77.73h0s0,0,0-.06l0-.05a.08.08,0,0,0,0,0l0,0-.14-.2c-.37-.57-.74-1.16-1.09-1.75-.17-.28-.33-.56-.49-.84C5.76,73.35,5,71.89,4.35,70.4v0h0a.25.25,0,0,1,0-.08c.12.28.25.56.38.84s.37.79.57,1.17.36.72.55,1.07.39.74.6,1.1.41.72.62,1.08c.34.57.7,1.14,1.06,1.69h0C8.21,77.41,8.32,77.57,8.42,77.73Z"/><path class="cls-4" d="M8.46,77.8l.16.23,0-.06-.06-.09,0,0S8.47,77.81,8.46,77.8Z"/><polygon class="cls-4" points="8.72 78.16 8.72 78.17 8.71 78.16 8.72 78.16"/><path class="cls-4" d="M8.82,78.32h0l0,0s0,0,0,0,0,0,0,0v0h0l0,0h0Z"/><path class="cls-4" d="M12.3,82.79h0a1.59,1.59,0,0,1-.13-.13h0c-.21-.24-.41-.48-.62-.71-.32-.4-.64-.79-1-1.19s-.48-.62-.71-.93-.4-.53-.58-.8-.23-.31-.33-.47c.06.06.1.13.15.19l.29.4c.22.31.44.61.67.91q.79,1.05,1.65,2.07Z"/><path class="cls-4" d="M13.54,84.17h0l0,0Z"/><path class="cls-4" d="M13.62,84.27a.13.13,0,0,1-.06-.07h0Z"/><path class="cls-4" d="M13.68,84.32h0s0,0,0,0Z"/><path class="cls-4" d="M13.84,84.51a0,0,0,0,0,0,0h0S13.84,84.49,13.84,84.51Z"/><polygon class="cls-4" points="13.86 84.51 13.86 84.52 13.85 84.51 13.86 84.51"/><path class="cls-4" d="M14.34,85h0c-.09-.08-.17-.17-.26-.26h0s0,0,0,0h0s0,0,0,0,0,0,.06,0,0,0,0,0A.38.38,0,0,1,14.34,85Z"/><path class="cls-4" d="M14.66,85.33h0a0,0,0,0,1,0,0l-.27-.27h0l.26.26h0Z"/><path class="cls-4" d="M14.65,85.31h0Z"/><path class="cls-4" d="M42.7,88.26h0l-.07,0Z"/><path class="cls-4" d="M43.26,88.46l-.12,0h0Z"/><path class="cls-1" d="M100.74,98.82a1.51,1.51,0,0,1-1.46,1.11H89.83a20.07,20.07,0,0,0-6.17-10h.44A19.94,19.94,0,0,1,92,91.54a20.16,20.16,0,0,1,8.09,6.4c.19.26.38.52.56.79Z"/><path class="cls-1" d="M35.88,84.83l-.19,0a1.52,1.52,0,0,1-.21,0h-.2l-.55-.07-.13,0c-.5-.07-1-.15-1.47-.26q-.36-.06-.72-.15l-.36-.08c-.24-.05-.48-.11-.71-.18s-.59-.16-.88-.25l-.87-.27-.81-.27a.2.2,0,0,0-.09,0l-.89-.35-.37-.15-.06,0-.31-.13c-.24-.1-.46-.21-.69-.3l-.12-.07-.81-.4-.07,0L25,81.49l-.3-.16-.29-.17-.12-.07-1.12-.67-.1-.06c-.22-.13-.44-.27-.65-.42a.76.76,0,0,1-.16-.11.85.85,0,0,1-.21-.14l-.3-.21s0,0,0,0l-.1-.07-.07,0-.05,0-.13-.1a.47.47,0,0,1-.12-.09.83.83,0,0,1-.16-.12l-.17-.13-.25-.19-.26-.2-.08-.06-.06-.06q-.35-.27-.69-.57c-.39-.33-.78-.68-1.15-1a1.14,1.14,0,0,1-.16-.15c-.27-.26-.54-.53-.8-.8-.43-.45-.85-.92-1.25-1.39s-.61-.73-.9-1.11c-.18-.23-.36-.47-.53-.71-.3-.4-.58-.81-.85-1.23-.12-.18-.24-.36-.35-.55s-.19-.3-.27-.45-.31-.51-.45-.77h0a30,30,0,0,1,11-40.48,29.47,29.47,0,0,1,7.66-3.16q-.93.69-1.8,1.44c-.35.31-.7.63-1,.95s-.66.65-1,1-.63.68-.94,1-.57.66-.84,1-.53.69-.79,1c-.51.71-1,1.44-1.45,2.19-.13.22-.26.43-.38.65s-.19.32-.28.48h0l-.31.58c-.1.2-.2.39-.29.59h0c-.19.39-.37.79-.54,1.19-.1.21-.2.43-.29.66s-.19.48-.28.73l-.09.24-.09.24c-.09.26-.19.53-.27.79s-.16.51-.24.76-.13.44-.19.67-.09.36-.13.54-.07.25-.1.38-.09.4-.13.6-.1.46-.14.69c-.08.41-.15.82-.21,1.24a.43.43,0,0,1,0,.05c0,.28-.08.57-.11.85,0,.12,0,.25,0,.37l0,.39c0,.23,0,.45-.06.68s0,.19,0,.29,0,.28,0,.42c0,.44,0,.88,0,1.33A29.75,29.75,0,0,0,23,64.15h0a29.68,29.68,0,0,0,3.5,10.41h0c.29.51.59,1,.91,1.51.12.19.24.38.37.57.23.34.46.68.71,1s.45.61.69.91c.49.63,1,1.22,1.54,1.8.36.39.73.77,1.11,1.13s.85.8,1.29,1.18l.48.41c.28.24.58.48.88.7s.45.35.68.51l.7.49Z"/><path class="cls-4" d="M19.63,46.52c0-.28.07-.57.11-.85,0,.27-.07.54-.1.82s-.06.53-.08.79,0,.45-.06.68c0-.33.05-.65.08-1C19.6,46.83,19.61,46.67,19.63,46.52Z"/><path class="cls-4" d="M21.16,40c.06-.16.11-.33.18-.48-.06.16-.12.32-.17.48Z"/><path class="cls-4" d="M22.45,36.88c.09-.2.19-.39.29-.59-.1.2-.19.39-.28.59Z"/><path class="cls-4" d="M23.33,35.22l-.27.48h0C23.14,35.54,23.23,35.38,23.33,35.22Z"/><path class="cls-4" d="M89.83,99.93H52.58c-.53,0-1.06,0-1.6,0-.32,0-.63,0-.95,0l-1.46,0-.82,0-1.6-.11c-.57,0-1.12-.09-1.68-.16s-1.19-.14-1.77-.22l-.31,0-1.53-.26Q40,99,39.09,98.8c-.59-.13-1.17-.27-1.75-.43s-1.14-.3-1.7-.47l-.41-.13c-1-.31-2-.65-3-1-.55-.21-1.1-.43-1.64-.66s-1.08-.47-1.62-.72-1.06-.5-1.58-.77-.9-.46-1.34-.71l-.29-.16c-.49-.26-1-.54-1.44-.83s-1-.61-1.49-.93l-.16-.1-.15-.11s0,0,0,0a.1.1,0,0,1-.05,0s0,0,0,0l-.88-.6-.35-.24-.29-.21h0l0,0-.23-.16a.67.67,0,0,0-.14-.11l0,0-.12-.09a0,0,0,0,1,0,0h0a.41.41,0,0,1-.11-.07L20,90c-.41-.31-.81-.62-1.2-.94s-.79-.64-1.18-1-.77-.67-1.15-1l-.95-.88L15.33,86c-.22-.23-.44-.44-.66-.66h0l-.26-.26h0l0,0h0a.38.38,0,0,0-.09-.09s0,0,0,0,0,0-.06,0,0,0,0,0h0s0,0,0,0h0a1.53,1.53,0,0,0-.18-.18l0,0h0s0,0,0,0h0l0,0s0,0,0,0a.76.76,0,0,1-.09-.09h0s0,0,0,0l0,0,0-.06h0s0,0,0,0h0l0,0a.1.1,0,0,0,0-.05L13.41,84a.1.1,0,0,1,0-.05h0s0,0,0,0a.39.39,0,0,1-.08-.1,1.8,1.8,0,0,1-.19-.2h0l-.19-.2-.2-.22-.35-.4,0,0h0l-.56-.66q-.86-1-1.65-2.07c-.23-.3-.45-.6-.67-.91l-.29-.4c-.05-.06-.09-.13-.15-.19s0,0,0,0a.24.24,0,0,0-.06-.09.28.28,0,0,0-.07-.09.08.08,0,0,0,0,0l-.07-.11h0l0,0h0v0c-.1-.15-.2-.29-.29-.44s-.21-.31-.32-.48h0c-.36-.55-.72-1.12-1.06-1.69-.21-.36-.42-.72-.62-1.08s-.41-.73-.6-1.1-.37-.71-.55-1.07-.39-.78-.57-1.17-.26-.56-.38-.84v-.06A50.13,50.13,0,0,1,3.26,60c0-.53,0-1,0-1.58,0-.16,0-.31,0-.47,0-.52.05-1.05.09-1.57,0-.24,0-.49.06-.73s0-.49.07-.73v0c0-.25,0-.5.08-.75,0-.41.1-.82.16-1.22l.09-.61c0-.22.07-.43.11-.64l0-.18a1.18,1.18,0,0,1,0-.2c0-.31.1-.62.17-.92a1.43,1.43,0,0,1,0-.22,2.56,2.56,0,0,1,0-.27c.07-.39.16-.77.26-1.16a1.36,1.36,0,0,1,0-.17.36.36,0,0,1,0-.1s0,0,0-.06,0,0,0-.07A1.57,1.57,0,0,1,4.7,48l.08-.29c0-.15.07-.29.11-.44s.14-.55.22-.83.1-.37.16-.55c.16-.56.33-1.11.51-1.66s.38-1.1.58-1.64S6.77,41.53,7,41l.33-.79c.11-.27.23-.53.35-.79l.12-.26L8,38.64H8c.12-.25.24-.51.37-.76l.18-.37c.13-.26.26-.52.4-.77l.21-.39c.27-.5.55-1,.83-1.49s.61-1,.93-1.53a.61.61,0,0,1,.07-.1l.08-.13c.12-.18.24-.37.37-.55a1.88,1.88,0,0,1,.12-.18c.16-.27.34-.53.52-.79l.14-.2q.15-.23.33-.45l.19-.27c.12-.18.26-.36.4-.54l.06-.08q.25-.36.54-.72c.37-.48.76-1,1.15-1.43.16-.2.33-.39.52-.59.56-.66,1.15-1.3,1.75-1.93h0c.39-.4.79-.8,1.19-1.19.22-.22.44-.43.67-.63a1.37,1.37,0,0,1,.17-.17l.12-.11a6,6,0,0,1,.46-.42l.18-.16c.2-.19.41-.37.62-.54l.3-.26c.13-.12.27-.23.41-.34l.09-.07c.08-.07.16-.15.24-.21a2.11,2.11,0,0,1,.23-.19L22,21l.13-.1c.36-.29.72-.57,1.09-.84l.19-.15.18-.13h0c.31-.23.62-.46.94-.67l.63-.44a.24.24,0,0,1,.09-.06l.07,0,.12-.08.72-.47.32-.21.16-.1a.27.27,0,0,1,.1-.06l.11-.07.52-.32.21-.13.21-.13.13-.07a3.39,3.39,0,0,1,.51-.3c.26-.16.52-.31.78-.44a.24.24,0,0,1,.11-.06l1.52-.8A50.06,50.06,0,0,1,63.31,11,50,50,0,0,1,74,18.77c.4.38.79.76,1.18,1.16A49.82,49.82,0,0,1,89.54,55,48.41,48.41,0,0,1,89,62.47c-.08.57-.18,1.13-.28,1.69a.17.17,0,0,0,0,.07,49.45,49.45,0,0,1-1.4,5.61h0a48.63,48.63,0,0,1-4,9.34c-.15.28-.3.56-.47.84-.3,0-.6-.06-.9-.07s-.7,0-1,0h-7a28.1,28.1,0,0,0,4.72-5.51,26.16,26.16,0,0,0,2.44-4.69s0,0,0,0a.88.88,0,0,0,0-.15,30,30,0,0,0,1.22-14.05c0-.36-.11-.71-.18-1.06a1.16,1.16,0,0,0,0-.18s0,0,0,0c-.14-.73-.31-1.46-.51-2.17-.07-.25-.14-.5-.22-.75s-.12-.4-.19-.6-.19-.58-.3-.87-.16-.46-.26-.69-.16-.42-.25-.63c-.37-.88-.77-1.74-1.22-2.57l-.06-.45A27.54,27.54,0,0,0,78,40.78a2.76,2.76,0,0,0-.08-.27c-.09-.28-.19-.54-.29-.82-.17-.46-.35-.92-.54-1.36s-.38-.87-.58-1.3-.39-.79-.6-1.18c-.1-.19-.21-.38-.32-.56a7.74,7.74,0,0,0-.43-.73c-.2-.33-.41-.67-.63-1s-.37-.57-.57-.84-.49-.68-.74-1c-.44-.58-.91-1.14-1.4-1.68h0c-.37-.41-.74-.81-1.13-1.19l-.24-.23h0s0,0,0,0h0a.05.05,0,0,0,0,0h0l-.19-.17s0,0,0,0,0,0,0,0,0,0,0,0,0-.05,0,0a.34.34,0,0,0-.12-.12.17.17,0,0,0-.08-.07.19.19,0,0,0-.07-.06h0l0,0h0s0,0,0,0h0s0,0,0,0l0,0,0,0s0,0,0,0a.53.53,0,0,0-.13-.13s0,0,0,0,0-.05-.06-.05,0,0,0,0l0,0h0s0,0,0,0h0s0,0,0,0h0c0-.05-.06-.07-.1-.08s0,0,0,0,0,0,0,0h0a1.79,1.79,0,0,0-.26-.23h0c-.15-.14-.31-.27-.47-.4a0,0,0,0,0,0,0l0,0-.11-.08c-.43-.33-.86-.67-1.31-1s-.68-.48-1-.71-.7-.45-1.06-.67-.72-.43-1.08-.63l1.08.62a22.25,22.25,0,0,0-2.2-1.2l1.12.58c-.37-.2-.74-.39-1.12-.57L62,22.75c-.26-.13-.51-.25-.78-.36L61,22.31l-1.06-.41a4.68,4.68,0,0,0-.48-.18c-.25-.1-.5-.18-.76-.26a3.68,3.68,0,0,0-.47-.15c-.3-.1-.61-.18-.91-.27l-.1,0h-.05l-.06,0h0s0,0,0,0H57l-.13,0-.14,0a1.22,1.22,0,0,0-.26-.06l-.06,0-.34-.08-.26-.05h0a1.59,1.59,0,0,0-.3-.06l-.16,0-.11,0-.08,0-.41-.07-.12,0-.17,0h-.22a.58.58,0,0,0-.14,0H53.8c-.39-.06-.79-.11-1.18-.15l-.38,0-.33,0-.34,0,.34,0-.34,0L51,20l.53,0L51,20h-.15c-.47,0-1,0-1.43,0h-.12q-.59,0-1.17,0a5.07,5.07,0,0,0-.55,0c-.5,0-1,.07-1.51.12L45,20.33c-1.06.16-2.11.38-3.14.64-.35.08-.69.18-1,.29s-.85.26-1.28.41l-.89.33c-.6.23-1.2.48-1.79.76-.3.13-.59.28-.88.42-.58.29-1.14.6-1.7.93-.28.16-.55.33-.82.5-.66.42-1.29.86-1.92,1.31h0a29.47,29.47,0,0,0-7.66,3.16,30,30,0,0,0-11,40.48h0c.14.26.29.52.45.77s.17.3.27.45.23.37.35.55c.27.42.55.83.85,1.23.17.24.35.48.53.71q.44.57.9,1.11c.4.47.82.94,1.25,1.39.26.27.53.54.8.8a1.14,1.14,0,0,0,.16.15c.37.36.76.71,1.15,1q.34.3.69.57l.06.06.08.06.26.2.25.19.17.13a.83.83,0,0,0,.16.12.47.47,0,0,0,.12.09l.13.1.05,0,.07,0,.1.07s0,0,0,0l.3.21a.85.85,0,0,0,.21.14.76.76,0,0,0,.16.11c.21.15.43.29.65.42l.1.06,1.12.67.12.07.29.17.3.16.42.22.07,0,.81.4.12.07c.23.09.45.2.69.3l.31.13.06,0,.37.15.89.35a.2.2,0,0,1,.09,0l.81.27.87.27c.29.09.58.18.88.25s.47.13.71.18l.36.08q.36.09.72.15c.48.11,1,.19,1.47.26l.13,0,.55.07h.2a1.52,1.52,0,0,0,.21,0l.19,0a0,0,0,0,1,0,0h0l.08.06.18.12.63.4c.31.2.62.38.93.56s.58.34.88.49l.12.06c.3.17.62.33.93.47s.66.32,1,.46.67.29,1,.42.5.2.75.28l.22.08.07,0,.15,0,.15.05,0,0,.07,0h0l.12,0,.49.16c.59.19,1.18.35,1.79.5l.58.14.13,0,.75.15c.36.07.73.14,1.11.19s.75.11,1.12.15.76.08,1.14.11l.75,0c.52,0,1,0,1.57,0h.57a12.82,12.82,0,0,0,1.39-.06h29a20.07,20.07,0,0,1,6.17,10Z"/><path class="cls-4" d="M54.19,20.38l-.14,0-.11,0h.11A.58.58,0,0,1,54.19,20.38Z"/><path class="cls-4" d="M57,21a.31.31,0,0,0-.13,0l-.14,0,.14,0Z"/><path class="cls-4" d="M8,38.64l-.24.52c.07-.17.15-.35.23-.52Z"/><path class="cls-4" d="M13.84,84.51a0,0,0,0,0,0,0h0S13.84,84.49,13.84,84.51Z"/><path class="cls-4" d="M14.12,84.79l0,0h0S14.12,84.78,14.12,84.79Z"/><path class="cls-4" d="M14.25,84.92l-.08-.08s0,0,.06,0S14.24,84.91,14.25,84.92Z"/><path class="cls-4" d="M20.38,90.24h0a0,0,0,0,1,0,0Z"/><polygon class="cls-4" points="23.57 19.75 23.56 19.76 23.56 19.75 23.57 19.75"/><path class="cls-4" d="M27.35,17.22l-.52.32a2.85,2.85,0,0,1,.26-.17Z"/><path class="cls-4" d="M43.26,88.46l-.12,0h0Z"/><path class="cls-4" d="M51.91,20.09l-.34,0L51,20l.53,0Z"/><path class="cls-4" d="M57,21a.31.31,0,0,0-.13,0h0Z"/><path class="cls-4" d="M64.84,24.26l-1.08-.62-1.12-.58A22.25,22.25,0,0,1,64.84,24.26Z"/><path class="cls-4" d="M69.46,27.68h0s0,0,0,0v0l0,0S69.44,27.65,69.46,27.68Z"/><path class="cls-4" d="M69.61,27.82l-.13-.12,0,0s0,0,0,0A.53.53,0,0,1,69.61,27.82Z"/><path class="cls-3" d="M.07,51.81c0,.19,0,.39,0,.58,0,0,0,0,0-.07S.07,52,.07,51.81Z"/><path class="cls-3" d="M.22,54.38c0,.32.06.64.1,1,0-.25-.06-.5-.08-.75C.23,54.52.23,54.45.22,54.38Z"/><path class="cls-3" d="M4,30.47l0,.06s0,0,0,0S4,30.48,4,30.47Z"/><polygon class="cls-3" points="4.01 30.46 4 30.47 4 30.46 4.01 30.46"/><path class="cls-3" d="M4.08,69.68l.06.15c-.12-.23-.21-.48-.31-.72C3.91,69.3,4,69.49,4.08,69.68Z"/><path class="cls-3" d="M4.33,70.24v0l-.09-.19a2.44,2.44,0,0,1-.1-.24l.18.39Z"/><path class="cls-3" d="M4.62,29.06l.09-.19-.3.65A4.69,4.69,0,0,1,4.62,29.06Z"/><path class="cls-3" d="M8,38.64l-.24.52c.07-.17.15-.35.23-.52Z"/><path class="cls-3" d="M23.57,19.75h0l-.18.13.18-.14Z"/><path class="cls-3" d="M27.56,17.09l-.21.13-.52.32a2.85,2.85,0,0,1,.26-.17C27.25,17.27,27.4,17.17,27.56,17.09Z"/><path class="cls-3" d="M52.81,6.75l.86.25-1.46-.4Z"/><path class="cls-3" d="M63.43,11l-.12,0a50.06,50.06,0,0,0-32.49,4.29c-.51.26-1,.52-1.52.8.5-.29,1-.55,1.52-.81A50.06,50.06,0,0,1,63.31,11a49.8,49.8,0,0,0-9.64-4l.26.07,1,.31.21.07,1,.32h0l.9.32.22.09,1,.4L59.33,9l1.05.46C61.41,10,62.43,10.48,63.43,11Z"/><path class="cls-3" d="M4,30.49l0,0H4l0,.06s0,0,0,0Z"/><path class="cls-3" d="M4.31,29.73s0,0,0,0c-.11.25-.22.51-.32.76H4C4.09,30.22,4.2,30,4.31,29.73Z"/><path class="cls-3" d="M4.33,29.69h0Z"/><path class="cls-3" d="M4.71,28.87l-.3.65a4.69,4.69,0,0,1,.21-.46Z"/><path class="cls-3" d="M8.62,78l0-.06-.06-.09,0,0s0,0,0,0l0-.06s0,0,0-.06l0-.05a.08.08,0,0,0,0,0l0,0-.14-.2c-.37-.57-.74-1.16-1.09-1.75-.17-.28-.33-.56-.49-.84C5.76,73.35,5,71.89,4.35,70.4v0h0c0-.09-.08-.17-.11-.25a.88.88,0,0,1-.09-.2.25.25,0,0,1,0-.07.1.1,0,0,0,0,0c-.09-.2-.17-.38-.25-.58q-.5-1.19-.93-2.4c-.15-.4-.29-.81-.42-1.22-.23-.69-.44-1.39-.64-2.1s-.43-1.57-.6-2.37c-.09-.4-.18-.8-.26-1.2s-.14-.71-.2-1.07C.69,58.34.6,57.8.52,57.26L.4,56.37c0-.33-.08-.66-.11-1s-.07-.69-.1-1-.06-.72-.08-1.08,0-.57,0-.86a1.48,1.48,0,0,1,0-.21l0-.84c0-.45,0-.89,0-1.34v0c0-.94,0-1.85.11-2.76,0,.26,0,.53,0,.79s0,.66,0,1,0,.66,0,1,0,.9,0,1.35c0,.15,0,.31,0,.46s0,.39,0,.58,0,.49,0,.73,0,.56.06.84l0,.42c0,.32.06.64.1,1s.09.87.15,1.29c0,.14,0,.27.06.41l.06.43c0,.24.07.47.11.69.06.37.12.72.19,1.08a3.55,3.55,0,0,0,.09.47c0,.17.06.32.1.48s0,.17,0,.26,0,.13,0,.19.06.29.1.44l.21.89a.43.43,0,0,1,0,.05l.06.24.21.78c.11.42.23.83.35,1.24s.25.82.39,1.23c.06.2.13.41.2.61l.21.6c.14.41.29.81.44,1.2s.31.8.48,1.19c.08.19.16.38.25.57l.06.15a2.44,2.44,0,0,0,.1.24l.09.19v0c.12.28.25.56.38.84s.37.79.57,1.17.36.72.55,1.07.39.74.6,1.1.41.72.62,1.08c.34.57.7,1.14,1.06,1.69h0c.11.17.21.33.32.48S8.56,77.93,8.62,78Z"/><polygon class="cls-3" points="8.72 78.16 8.72 78.17 8.71 78.16 8.72 78.16"/><path class="cls-3" d="M8.84,78.36s0,0,0,0l0,0s0,0,0,0,0,0,0,0v0h0l0,0h0l.07.11A.08.08,0,0,1,8.84,78.36Z"/><path class="cls-3" d="M12.3,82.79h0a1.59,1.59,0,0,1-.13-.13h0c-.21-.24-.41-.48-.62-.71-.32-.4-.64-.79-1-1.19s-.48-.62-.71-.93-.4-.53-.58-.8-.23-.31-.33-.47c.06.06.1.13.15.19l.29.4c.22.31.44.61.67.91q.79,1.05,1.65,2.07Z"/><path class="cls-3" d="M13.54,84.17h0l0,0Z"/><path class="cls-3" d="M13.62,84.27a.13.13,0,0,1-.06-.07h0Z"/><path class="cls-3" d="M13.68,84.32h0s0,0,0,0Z"/><path class="cls-3" d="M13.9,84.57l-.06-.06h0Z"/><path class="cls-3" d="M14.34,85h0c-.09-.08-.17-.17-.26-.26h0s0,0,0,0h0s0,0,0,0,0,0,.06,0,0,0,0,0A.38.38,0,0,1,14.34,85Z"/><path class="cls-3" d="M14.65,85.31h0l-.27-.27h0l.26.26Z"/><path class="cls-3" d="M42.7,88.26h0l-.07,0Z"/><path class="cls-3" d="M43.26,88.46l-.12,0h0Z"/><path class="cls-3" d="M51.91,20.09l-.34,0L51,20l.53,0Z"/><path class="cls-3" d="M57,21a.31.31,0,0,0-.13,0h0Z"/><path class="cls-3" d="M64.84,24.26l-1.08-.62-1.12-.58A22.25,22.25,0,0,1,64.84,24.26Z"/><path class="cls-3" d="M69.33,27.56h0l0,0S69.32,27.54,69.33,27.56Z"/><path class="cls-3" d="M69.46,27.68h0s0,0,0,0v0l0,0S69.44,27.65,69.46,27.68Z"/><path class="cls-3" d="M69.61,27.82l-.13-.12,0,0s0,0,0,0A.53.53,0,0,1,69.61,27.82Z"/><path class="cls-3" d="M69.7,27.9l-.07-.07,0,0Z"/><path class="cls-3" d="M69.77,28h0l0,0h0S69.76,28,69.77,28Z"/><path class="cls-3" d="M79.14,45.87h0A29.73,29.73,0,0,0,78,40.78a27.54,27.54,0,0,1,1.14,4.72l.06.45Z"/><path class="cls-2" d="M13.85,84.51h0Zm.79.8h0Zm-.41-.42s0,0-.06,0l.08.08S14.23,84.9,14.23,84.89Zm-.12-.12h0l0,0S14.12,84.77,14.11,84.77ZM51.57,20.06,51,20l.53,0,.34,0ZM11.74,82.13q-.86-1-1.65-2.07c-.23-.3-.45-.6-.67-.91l-.29-.4c-.05-.06-.09-.13-.15-.19.1.16.22.32.33.47s.38.54.58.8.47.63.71.93.63.79,1,1.19c.21.23.41.47.62.71h0a1.59,1.59,0,0,0,.13.13h0ZM48.25,5.73l-1.09-.18-1.25-.17-1.26-.14-.42,0-.52,0-.32,0c-.43,0-.85-.06-1.28-.08S41.35,5,41,5,40,5,39.54,5h-.11L38.25,5c-.43,0-.86,0-1.28,0-.25,0-.5,0-.75,0s-.55,0-.82.06-.69,0-1,.09c-.69.08-1.38.16-2.06.26l-1,.16c-.68.11-1.35.24-2,.38-1,.2-2,.43-2.92.7,1-.26,1.94-.49,2.92-.69.67-.14,1.34-.27,2-.38l1-.16c.68-.1,1.37-.18,2.06-.26.35,0,.69-.07,1-.09s.54,0,.82-.06.5,0,.75-.05c.42,0,.85,0,1.28,0l1.18,0h.11c.48,0,1,0,1.42,0s.77,0,1.15,0,.85,0,1.28.08l1.26.11,1.26.14,1.25.17,1.09.18.12,0ZM23.48,7.62l-.08,0-.18.11c-1.13.71-2.22,1.47-3.28,2.27s-2.09,1.65-3.08,2.52h0c1-.88,2-1.72,3.08-2.52s2.15-1.56,3.28-2.27l.18-.11.08,0,0,0Zm-7.59,5.83,1-.87h0Zm-.93.89h0c.31-.31.62-.6.93-.9C15.58,13.74,15.27,14,15,14.34ZM8.43,77.72c-.11-.15-.21-.31-.32-.48h0c-.36-.55-.72-1.12-1.06-1.69-.21-.36-.42-.72-.62-1.08s-.41-.73-.6-1.1-.37-.71-.55-1.07-.39-.78-.57-1.17-.26-.56-.38-.84v-.06l-.18-.39-.06-.15c-.09-.19-.17-.38-.25-.57-.17-.39-.32-.79-.48-1.19s-.3-.79-.44-1.2l-.21-.6c-.07-.2-.14-.41-.2-.61q-.21-.62-.39-1.23c-.12-.41-.24-.82-.35-1.24l-.21-.78L1.49,62a.43.43,0,0,0,0-.05l-.21-.89c0-.15-.07-.29-.1-.44s0-.12,0-.19,0-.18,0-.26S1,59.88,1,59.71a3.55,3.55,0,0,1-.09-.47c-.07-.36-.13-.71-.19-1.08,0-.22-.08-.45-.11-.69L.53,57c0-.14,0-.27-.06-.41-.06-.42-.11-.86-.15-1.29s-.07-.64-.1-1l0-.42q0-.42-.06-.84c0-.24,0-.49,0-.73s0-.39,0-.58,0-.31,0-.46c0-.45,0-.9,0-1.35s0-.66,0-1,0-.66,0-1,0-.53,0-.79C0,48.14,0,49.05,0,50v0c0,.45,0,.89,0,1.34l0,.84a1.48,1.48,0,0,0,0,.21c0,.29,0,.57.05.86s.05.72.08,1.08.06.69.1,1,.07.66.11,1l.12.89c.08.54.17,1.08.27,1.61.06.36.13.72.2,1.07s.17.8.26,1.2q.27,1.2.6,2.37c.2.71.41,1.41.64,2.1.13.41.27.82.42,1.22q.44,1.22.93,2.4c.08.2.16.38.25.58a.1.1,0,0,1,0,0,.25.25,0,0,0,0,.07.88.88,0,0,0,.09.2c0,.08.07.16.11.25h0v0c.67,1.49,1.41,2.95,2.22,4.36.16.28.32.56.49.84.35.59.72,1.18,1.09,1.75l.14.2,0,0a.08.08,0,0,1,0,0l0,.05,0,0h0l0,.06s0,0,0,0l0,0,.06.09,0,.06s0,0,0,0l0,.07,0,0h0C8.62,78,8.52,77.87,8.43,77.72Zm-4.1-48h0Zm0,0c-.11.24-.22.49-.31.73H4c.1-.25.21-.51.32-.76C4.32,29.71,4.31,29.72,4.31,29.73Zm58.33-6.67,1.12.58,1.08.62A22.25,22.25,0,0,0,62.64,23.06Zm6.82,4.62,0,0h0S69.47,27.67,69.46,27.68Zm0,0,0,0s0,0,0,0l0,0a.38.38,0,0,1,.09.09ZM79.18,46l-.06-.45A27.54,27.54,0,0,0,78,40.78a29.73,29.73,0,0,1,1.16,5.08h0ZM42.7,88.26h0l.15,0A.47.47,0,0,0,42.7,88.26Z"/><path class="cls-2" d="M63.31,11a50.06,50.06,0,0,0-32.49,4.29c-.51.26-1,.52-1.52.81a.24.24,0,0,0-.11.06c-.26.13-.52.28-.78.44a3.39,3.39,0,0,0-.51.3.28.28,0,0,0-.13.07l-.21.13c-.16.08-.31.18-.47.28a2.85,2.85,0,0,0-.26.17l-.11.07a.27.27,0,0,0-.1.06l-.16.1a1.46,1.46,0,0,0-.32.21c-.24.14-.48.3-.72.47l-.12.08-.07,0a.24.24,0,0,0-.09.06l-.1.06c-.18.12-.35.24-.53.38s-.63.43-.94.67h0l-.18.14a1.39,1.39,0,0,0-.19.15c-.37.26-.73.54-1.09.84L22,21l-.1.08a2.11,2.11,0,0,0-.23.19c-.08.06-.16.14-.24.21l-.09.07a4.35,4.35,0,0,0-.41.34,3.48,3.48,0,0,0-.3.26c-.21.17-.42.35-.62.54a1.29,1.29,0,0,0-.18.16,6,6,0,0,0-.46.42l-.12.11a1.37,1.37,0,0,0-.17.17c-.23.2-.45.41-.67.63-.41.39-.8.79-1.19,1.19h0c-.61.63-1.2,1.27-1.75,1.93-.19.2-.36.39-.52.59-.39.47-.78.95-1.15,1.43q-.29.36-.54.72l-.06.08c-.14.18-.28.36-.4.54l-.19.27q-.18.22-.33.45l-.14.2c-.18.26-.36.52-.52.79a1.88,1.88,0,0,0-.12.18,4.81,4.81,0,0,0-.37.55l-.08.13a.61.61,0,0,0-.07.1q-.48.75-.93,1.53c-.29.49-.57,1-.83,1.49L9,36.73c-.14.25-.27.51-.4.77l-.18.37c-.13.25-.25.51-.37.76H8c-.08.17-.16.35-.23.52l-.12.26c-.12.26-.24.52-.35.79S7.1,40.73,7,41c-.22.53-.43,1.07-.63,1.61S6,43.7,5.78,44.25s-.35,1.1-.51,1.66c-.06.18-.11.37-.16.55s-.15.55-.22.83-.08.29-.11.44L4.7,48a1.57,1.57,0,0,0-.06.28s0,.05,0,.07,0,0,0,.06a.36.36,0,0,0,0,.1,1.36,1.36,0,0,0,0,.17c-.11.39-.19.77-.26,1.16a2.56,2.56,0,0,0,0,.27,1.43,1.43,0,0,0,0,.22,9.32,9.32,0,0,0-.17.92,1.18,1.18,0,0,0,0,.2l0,.18c0,.21-.08.42-.11.64l-.09.61c-.06.4-.11.81-.16,1.22,0,.25-.06.5-.08.75v0c0,.24,0,.48-.07.73s-.05.49-.06.73c0,.52-.07,1-.09,1.57,0,.16,0,.31,0,.47,0,.53,0,1,0,1.58A50.13,50.13,0,0,0,4.32,70.22l-.18-.39-.06-.15c-.09-.19-.17-.38-.25-.57-.17-.39-.32-.79-.48-1.19s-.3-.79-.44-1.2l-.21-.6c-.07-.2-.14-.41-.2-.61q-.21-.62-.39-1.23c-.12-.41-.24-.82-.35-1.24l-.21-.78L1.49,62a.43.43,0,0,0,0-.05l-.21-.89c0-.15-.07-.29-.1-.44s0-.12,0-.19,0-.18,0-.26S1,59.88,1,59.71a3.55,3.55,0,0,1-.09-.47c-.07-.36-.13-.71-.19-1.08,0-.22-.08-.45-.11-.69L.53,57c0-.14,0-.27-.06-.41-.06-.42-.11-.86-.15-1.29s-.07-.64-.1-1l0-.42q0-.42-.06-.84c0-.24,0-.49,0-.73s0-.39,0-.58,0-.31,0-.46c0-.45,0-.9,0-1.35s0-.66,0-1,0-.66,0-1,0-.53,0-.79h0c0-.13,0-.26,0-.39a.22.22,0,0,1,0-.08c0-.32,0-.64.07-1a2.28,2.28,0,0,1,0-.26c0-.23.05-.46.07-.68s.07-.7.12-1.05c0,0,0-.06,0-.09C.58,42.47.78,41.25,1,40c.09-.46.19-.92.3-1.37a.29.29,0,0,1,0-.09l0-.1c.1-.42.2-.83.31-1.24a.27.27,0,0,1,0-.12c.06-.24.12-.48.19-.72a0,0,0,0,1,0,0c0-.16.09-.32.13-.48a1.42,1.42,0,0,0,.07-.22,2.76,2.76,0,0,1,.08-.27c.06-.2.13-.4.19-.61l.21-.63q.15-.48.33-1c.27-.77.57-1.53.89-2.29h0l0-.07,0-.06.1-.24a0,0,0,0,0,0,0H4l0,0H4c.1-.25.21-.51.32-.76h0v0l0,0a1.17,1.17,0,0,0,0-.11l.3-.65.23-.48h0c.09-.22.2-.43.31-.66l.18-.36c.1-.21.21-.41.32-.62.23-.45.48-.89.72-1.33a50.33,50.33,0,0,1,5.83-8.25h0c.58-.64,1.16-1.28,1.75-1.89l.91-.91c.31-.31.62-.6.93-.9l1-.87h0c1-.88,2-1.72,3.08-2.52s2.15-1.56,3.28-2.27l.18-.11.08,0c.94-.32,1.89-.61,2.86-.88s1.94-.49,2.92-.69c.67-.14,1.34-.27,2-.38l1-.16c.68-.1,1.37-.18,2.06-.26.35,0,.69-.07,1-.09s.54,0,.82-.06.5,0,.75-.05c.42,0,.85,0,1.28,0l1.18,0h.11c.48,0,1,0,1.42,0s.77,0,1.15,0,.85,0,1.28.08l1.26.11,1.26.14,1.25.17,1.09.18.12,0h0l.28.06c.25,0,.5.08.74.13l.86.18,1.29.3.13,0,.53.14,1.46.4A49.8,49.8,0,0,1,63.31,11Z"/><path class="cls-2" d="M83.66,89.91h-29c-.46,0-.92.06-1.39.06h-.57c-.53,0-1,0-1.57,0l-.75,0c-.38,0-.76-.06-1.14-.11s-.75-.09-1.12-.15-.75-.12-1.11-.19l-.75-.15-.13,0-.58-.14c-.61-.15-1.2-.31-1.79-.5l-.49-.16-.1,0h0l-.07,0,0,0-.15-.05a.47.47,0,0,0-.15-.06l-.07,0-.22-.08-.2-.08h0l-.52-.19c-.34-.13-.68-.27-1-.42s-.67-.29-1-.46-.63-.3-.93-.47l-.12-.06c-.3-.15-.59-.31-.88-.49s-.62-.36-.93-.56l-.63-.4L36,84.9l-.08-.06h0a0,0,0,0,0,0,0l.3,0h.18c.25,0,.5,0,.76.06s.25,0,.37,0H38c.31,0,.63,0,.95,0h.63c.47,0,.93,0,1.39-.06H70.45a19.89,19.89,0,0,1,7.88,1.61l0,0A19.92,19.92,0,0,1,83.66,89.91Z"/><path class="cls-2" d="M38,85h-.47c-.12,0-.25,0-.37,0l.37,0Z"/><path class="cls-2" d="M42.85,88.32l-.15,0-.07,0,.07,0A.47.47,0,0,1,42.85,88.32Z"/><path class="cls-1" d="M81.13,69.54a.88.88,0,0,1,0,.15s0,0,0,0a26.16,26.16,0,0,1-2.44,4.69,28.1,28.1,0,0,1-4.72,5.51H51.42a28.82,28.82,0,0,0,5.45-.87A29.59,29.59,0,0,0,68,73.54,29.93,29.93,0,0,0,79.43,50c0-.69,0-1.37-.07-2s-.12-1.4-.22-2.09l0,.08c.45.83.85,1.69,1.22,2.57.09.21.17.42.25.63s.18.46.26.69.21.58.3.87.13.4.19.6.15.5.22.75c.2.71.37,1.44.51,2.17,0,0,0,0,0,0a1.16,1.16,0,0,1,0,.18c.07.35.13.7.18,1.06a30,30,0,0,1-1.22,14.05Z"/><path class="cls-3" d="M4,30.49l0,0H4l0,.06s0,0,0,0Z"/><path class="cls-3" d="M4.31,29.73s0,0,0,0c-.11.25-.22.51-.32.76H4C4.09,30.22,4.2,30,4.31,29.73Z"/><path class="cls-3" d="M4.33,29.69h0Z"/><path class="cls-3" d="M4.71,28.87l-.3.65a4.69,4.69,0,0,1,.21-.46Z"/><path class="cls-5" d="M98.89,39.51A50,50,0,0,0,63.43,11c-1-.54-2-1-3-1.53L59.33,9l-1.06-.44-1-.4L57,8.1l-.9-.32h0l-1-.32-.21-.07-1-.31L53.67,7l-.86-.25-.6-.15-.53-.14-.13,0-1.29-.3L49.4,6c-.24,0-.49-.1-.74-.13l-.28-.06h0l-.12,0-1.09-.18-1.25-.17-1.26-.14-.42,0-.52,0-.32,0c-.43,0-.85-.06-1.28-.08S41.35,5,41,5,40,5,39.54,5h-.11L38.25,5c-.43,0-.86,0-1.28,0-.25,0-.5,0-.75,0s-.55,0-.82.06-.69,0-1,.09c-.69.08-1.38.16-2.06.26l-1,.16c-.68.11-1.35.24-2,.38-1,.2-2,.43-2.92.7s-1.92.56-2.86.88l0,0c.35-.22.72-.46,1.08-.66s1-.57,1.48-.84,1-.54,1.52-.8l1.28-.62c.86-.4,1.73-.78,2.61-1.13l1.14-.45,1.54-.54,1.61-.51c1.23-.36,2.48-.68,3.75-.95L41.06.8c.52-.09,1-.18,1.55-.25L43.84.38c.9-.11,1.8-.2,2.7-.25.24,0,.47,0,.71,0l.88,0,.58,0L50,0l1.26,0c.86,0,1.72.06,2.56.13l1.26.11,1.14.13.36,0c.72.1,1.43.21,2.14.33l.1,0c1,.18,2,.4,3,.64l.66.17,1,.27,1,.29c.54.16,1.07.34,1.6.52,1,.35,2,.74,3,1.15.5.21,1,.42,1.48.65l1.39.65.07,0c.39.19.77.39,1.15.59l.47.25.25.13a2.25,2.25,0,0,1,.21.12c.4.22.81.45,1.2.69l.25.15.17.1c.17.1.34.2.5.31a5.43,5.43,0,0,1,.51.32c.22.13.43.27.64.41s.34.22.5.34c.35.23.69.47,1,.71a49.8,49.8,0,0,1,4.47,3.59l.64.59.2.19.83.8.07.07c.25.24.5.49.74.74s.53.56.78.84.42.45.62.68a1.14,1.14,0,0,1,.15.17c.51.57,1,1.15,1.48,1.75l.17.22c.15.18.29.37.44.56a.24.24,0,0,1,.06.09c.1.11.18.22.27.34A.3.3,0,0,1,90,20l0,.07h0c.16.2.31.41.46.62a.05.05,0,0,1,0,0c.11.14.21.29.31.44l.17.24h0a2,2,0,0,1,.18.25l.19.28h0l0,0,.13.19.13.2.31.48h0l0,0,.12.17c.16.24.31.49.47.75l.06.11q.27.43.54.9l.15.26h0a.08.08,0,0,1,0,0l.31.53.22.41,0,.08s0,0,0,0l.08.15.06.11s0,0,0,0h0l0,0h0c.24.44.47.89.69,1.34s.31.63.45.95l.29.63.14.32h0c.16.36.32.71.47,1.08l0,.08h0l0,.1,0,.1c.11.25.21.51.3.76l.29.77c.12.31.23.62.34.94s.15.44.22.66l.09.28.12.38L98,36.06c.18.62.35,1.26.5,1.9S98.78,39,98.89,39.51Z"/><path class="cls-5" d="M43.71,5.16l-.32,0c-.43,0-.85-.06-1.28-.08S41.35,5,41,5,40,5,39.54,5h-.11L38.25,5c-.43,0-.86,0-1.28,0-.25,0-.5,0-.75.05s-.55,0-.82.06-.69,0-1,.09c-.69.08-1.38.16-2.06.26l-1,.16c-.68.11-1.35.24-2,.38-1,.2-2,.43-2.92.69,1-.27,1.94-.5,2.92-.7.67-.14,1.34-.27,2-.38l1-.16c.68-.1,1.37-.18,2.06-.26.35,0,.69-.07,1-.09s.54,0,.82-.06.5,0,.75,0c.42,0,.85,0,1.28,0l1.18,0h.11c.48,0,1,0,1.42,0s.77,0,1.15,0,.85,0,1.28.08Z"/><path class="cls-5" d="M48.25,5.73l.12,0-.12,0-1.09-.18-1.25-.17-1.26-.14-.42,0,.42,0,1.26.14,1.25.17Z"/><path class="cls-3" d="M75.67,7.08h0l-.25-.15Z"/><path class="cls-3" d="M84.33,13.65l-.2-.19a1.22,1.22,0,0,1,.17.15Z"/><path class="cls-3" d="M61.9,1.42c-1-.24-2-.46-3-.64C59.88,1,60.89,1.17,61.9,1.42Z"/><path class="cls-3" d="M64.84,24.26l-1.08-.62-1.12-.58A22.25,22.25,0,0,1,64.84,24.26Z"/><path class="cls-3" d="M69.33,27.56h0l0,0S69.32,27.54,69.33,27.56Z"/><path class="cls-3" d="M69.46,27.68h0s0,0,0,0v0l0,0S69.44,27.65,69.46,27.68Z"/><path class="cls-3" d="M69.61,27.82l-.13-.12,0,0s0,0,0,0A.53.53,0,0,1,69.61,27.82Z"/><path class="cls-3" d="M69.7,27.9l-.07-.07,0,0Z"/><path class="cls-3" d="M69.77,28h0l0,0h0S69.76,28,69.77,28Z"/><path class="cls-3" d="M75.84,7.19l-.17-.1-.25-.15.25.14Z"/><path class="cls-3" d="M84.33,13.65l-.2-.19a1.22,1.22,0,0,1,.17.15Z"/><path class="cls-3" d="M97.27,33.66Q97,32.79,96.64,32l.29.77C97.05,33,97.16,33.34,97.27,33.66Z"/><path class="cls-3" d="M42.7,88.26h0l-.07,0Z"/><path class="cls-3" d="M43.26,88.46l-.12,0h0Z"/><path class="cls-5" d="M38,85h-.47c-.12,0-.25,0-.37,0l.37,0Z"/><path class="cls-3" d="M32.4,74.68a29.47,29.47,0,0,1-7.31-7.17A30.36,30.36,0,0,0,32.4,74.68Z"/><path class="cls-5" d="M100.8,98.27a1.22,1.22,0,0,1,0,.33v0a.67.67,0,0,1-.05.19l-.06-.09c-.18-.27-.37-.53-.56-.79A20.16,20.16,0,0,0,92,91.54a19.94,19.94,0,0,0-7.93-1.63h-.44a19.92,19.92,0,0,0-5.28-3.36l0,0a19.89,19.89,0,0,0-7.88-1.61H40.93c-.46,0-.92.06-1.39.06h-.63c-.32,0-.64,0-.95,0l-.47,0-.37,0c-.26,0-.51,0-.76-.06h-.18l-.3,0,0,0-.7-.49c-.23-.16-.45-.34-.68-.51s-.6-.46-.88-.7l-.48-.41c-.44-.38-.87-.77-1.29-1.18s-.75-.74-1.11-1.13c-.53-.58-1.05-1.17-1.54-1.8-.24-.3-.47-.6-.69-.91s-.48-.67-.71-1c-.13-.19-.25-.38-.37-.57-.32-.49-.62-1-.91-1.51h0A29.68,29.68,0,0,1,23,64.16a23.1,23.1,0,0,0,1.28,2.13c.27.42.54.82.83,1.22a29.47,29.47,0,0,0,7.31,7.17c.25.18.5.35.76.51q.86.56,1.74,1l.71.39a2,2,0,0,1,.33.16l0,0c.23.12.45.23.68.33l.91.41.65.27.43.17c.26.11.51.2.77.29l.95.32.48.15.91.25c.61.16,1.22.31,1.85.43.39.08.78.15,1.18.21l.12,0,1,.14c.31,0,.61.07.92.09l.81,0c.14,0,.29,0,.44,0q.62,0,1.23,0H50c.46,0,.91,0,1.36-.06H80.87q.52,0,1,0c.3,0,.6,0,.9.07a8.65,8.65,0,0,1,.89.11l.52.08a2.2,2.2,0,0,1,.37.06l.54.11a16.45,16.45,0,0,1,1.83.49l.86.29,0,0c.31.11.61.23.91.36h0a18,18,0,0,1,1.91,1,16,16,0,0,1,2.05,1.34c.29.22.58.44.86.67s.53.45.78.69l.77.74c.23.24.45.47.65.71s.34.38.5.58.39.46.57.7A19.77,19.77,0,0,1,100.8,98.27Z"/></g></g></svg>