<svg xmlns="http://www.w3.org/2000/svg" viewBox="0 0 224.5 100.01"><defs><style>.cls-1{fill:none;}.cls-2{fill:#e6e6e6;}.cls-3{fill:#fff;}.cls-4{fill:#ccc;}.cls-5{fill:#a556bf;}.cls-6{fill:#f2f2f2;}</style></defs><g id="Layer_2" data-name="Layer 2"><g id="Layer_1-2" data-name="Layer 1"><path class="cls-1" d="M23.25,64.59c-.1-.17-.19-.35-.29-.53a30,30,0,0,1,3.83-33.72A30,30,0,0,0,23,64.16a23.1,23.1,0,0,0,1.28,2.13c-.35-.55-.69-1.11-1-1.69ZM50,79.93V80h0c.46,0,.91,0,1.36-.06Zm1.57-59.86L51,20q.43,0,.87.06Zm1,.1a29.74,29.74,0,0,1,5.6,1.14A28.24,28.24,0,0,0,52.62,20.17Zm10,2.9c.75.37,1.49.77,2.2,1.2A22.25,22.25,0,0,0,62.64,23.07Zm5.6,3.57q1.28,1,2.43,2.19A27.93,27.93,0,0,0,68.24,26.64ZM79.12,45.51a28,28,0,0,0-1.22-5,29.73,29.73,0,0,1,1.24,5.35l0,.08C79.16,45.79,79.14,45.66,79.12,45.51Zm0,0a28,28,0,0,0-1.22-5,29.73,29.73,0,0,1,1.24,5.35l0,.08C79.16,45.79,79.14,45.66,79.12,45.51ZM68.24,26.64q1.28,1,2.43,2.19A27.93,27.93,0,0,0,68.24,26.64Zm-5.6-3.57c.75.37,1.49.77,2.2,1.2A22.25,22.25,0,0,0,62.64,23.07Zm-10-2.9a29.74,29.74,0,0,1,5.6,1.14A28.24,28.24,0,0,0,52.62,20.17Zm-1-.1L51,20q.43,0,.87.06ZM50,79.93V80h0c.46,0,.91,0,1.36-.06ZM23.25,64.59c-.1-.17-.19-.35-.29-.53a30,30,0,0,1,3.83-33.72A30,30,0,0,0,23,64.16a23.1,23.1,0,0,0,1.28,2.13c-.35-.55-.69-1.11-1-1.69Zm0,0c-.1-.17-.19-.35-.29-.53a30,30,0,0,1,3.83-33.72A30,30,0,0,0,23,64.16a23.1,23.1,0,0,0,1.28,2.13c-.35-.55-.69-1.11-1-1.69ZM50,79.93V80h0c.46,0,.91,0,1.36-.06ZM62.64,23.07c.75.37,1.49.77,2.2,1.2A22.25,22.25,0,0,0,62.64,23.07Zm5.6,3.57q1.28,1,2.43,2.19A27.93,27.93,0,0,0,68.24,26.64ZM4,30.45v0H4A0,0,0,0,0,4,30.45Zm9.86,54.07-.07-.06.29.3c.19.19.37.38.56.56ZM51.57,20.07,51,20q.43,0,.87.06Zm1,.1a29.74,29.74,0,0,1,5.6,1.14A28.24,28.24,0,0,0,52.62,20.17Zm10,2.9c.75.37,1.49.77,2.2,1.2A22.25,22.25,0,0,0,62.64,23.07Zm5.6,3.57q1.28,1,2.43,2.19A27.93,27.93,0,0,0,68.24,26.64ZM51.57,20.07,51,20q.43,0,.87.06Zm1,.1a29.74,29.74,0,0,1,5.6,1.14A28.24,28.24,0,0,0,52.62,20.17Zm10,2.9c.75.37,1.49.77,2.2,1.2A22.25,22.25,0,0,0,62.64,23.07Zm5.6,3.57q1.28,1,2.43,2.19A27.93,27.93,0,0,0,68.24,26.64ZM51.57,20.07,51,20q.43,0,.87.06Zm1,.1a29.74,29.74,0,0,1,5.6,1.14A28.24,28.24,0,0,0,52.62,20.17Zm10,2.9c.75.37,1.49.77,2.2,1.2A22.25,22.25,0,0,0,62.64,23.07Zm5.6,3.57q1.28,1,2.43,2.19A27.93,27.93,0,0,0,68.24,26.64Zm-45,38c-.1-.17-.19-.35-.29-.53a30,30,0,0,1,3.83-33.72A30,30,0,0,0,23,64.16a23.1,23.1,0,0,0,1.28,2.13c-.35-.55-.69-1.11-1-1.69ZM50,79.93V80h0c.46,0,.91,0,1.36-.06ZM79.12,45.51a28,28,0,0,0-1.22-5,29.73,29.73,0,0,1,1.24,5.35l0,.08C79.16,45.79,79.14,45.66,79.12,45.51ZM68.24,26.64q1.28,1,2.43,2.19A27.93,27.93,0,0,0,68.24,26.64Zm-5.6-3.57c.75.37,1.49.77,2.2,1.2A22.25,22.25,0,0,0,62.64,23.07Zm-10-2.9a29.74,29.74,0,0,1,5.6,1.14A28.24,28.24,0,0,0,52.62,20.17Zm-1-.1L51,20q.43,0,.87.06Zm16.67,6.57q1.28,1,2.43,2.19A27.93,27.93,0,0,0,68.24,26.64Zm-5.6-3.57c.75.37,1.49.77,2.2,1.2A22.25,22.25,0,0,0,62.64,23.07Zm-10-2.9a29.74,29.74,0,0,1,5.6,1.14A28.24,28.24,0,0,0,52.62,20.17Zm-1-.1L51,20q.43,0,.87.06Zm16.67,6.57q1.28,1,2.43,2.19A27.93,27.93,0,0,0,68.24,26.64Zm-5.6-3.57c.75.37,1.49.77,2.2,1.2A22.25,22.25,0,0,0,62.64,23.07Zm-10-2.9a29.74,29.74,0,0,1,5.6,1.14A28.24,28.24,0,0,0,52.62,20.17Zm-1-.1L51,20q.43,0,.87.06ZM28.87,4.69c.86-.4,1.73-.78,2.61-1.13C30.6,3.9,29.73,4.28,28.87,4.69Z"/><path class="cls-2" d="M100,50a48.41,48.41,0,0,1-.57,7.48c-.07.44-.14.87-.22,1.3a2,2,0,0,1,0,.24,49.27,49.27,0,0,1-9.09,20.87c-.41.56-.85,1.12-1.29,1.66-.3-.13-.6-.25-.91-.36l0,0L87,80.88a16.45,16.45,0,0,0-1.83-.49l-.54-.11a2.2,2.2,0,0,0-.37-.06,3,3,0,0,0-.52-.08,8.65,8.65,0,0,0-.89-.11c.17-.28.32-.56.47-.84a48.63,48.63,0,0,0,4-9.34h0a49.45,49.45,0,0,0,1.4-5.61.17.17,0,0,1,0-.07c.1-.56.2-1.12.28-1.69A48.41,48.41,0,0,0,89.54,55,49.82,49.82,0,0,0,75.18,19.93c-.39-.4-.78-.78-1.18-1.16A50,50,0,0,0,63.31,11l.12,0A50,50,0,0,1,98.89,39.51,49.65,49.65,0,0,1,100,50Z"/><path class="cls-3" d="M51.39,79.93c-.45,0-.9.06-1.36.06h0v-.06Z"/><path class="cls-3" d="M51.39,79.93c-.45,0-.9.06-1.36.06h0v-.06Z"/><path class="cls-3" d="M51.39,79.93c-.45,0-.9.06-1.36.06h0v-.06Z"/><path class="cls-3" d="M3.94,30.61a.21.21,0,0,1,0-.1v0Z"/><path class="cls-3" d="M4,30.45a0,0,0,0,1,0,0H4l0,0A.14.14,0,0,1,4,30.45Z"/><path class="cls-3" d="M4.07,30.29s0,0,0,0h0S4.06,30.29,4.07,30.29Z"/><path class="cls-3" d="M4.33,29.71l0,0s0,0,0,0Z"/><path class="cls-3" d="M4.34,29.69h0Z"/><path class="cls-4" d="M98.89,39.51A50,50,0,0,0,63.43,11l-.12,0A49.46,49.46,0,0,0,48.25,5.74l-1.09-.18-1.25-.17-1.26-.14c-.42,0-.84-.09-1.26-.11s-.85-.06-1.28-.08S41.35,5,41,5,40,5,39.54,5h-.11L38.25,5c-.43,0-.86,0-1.28,0-.25,0-.5,0-.75.05s-.55,0-.82.06-.69,0-1,.09c-.69.08-1.38.16-2.06.26l-1,.16c-.68.11-1.35.24-2,.38a46.9,46.9,0,0,0-5.78,1.57c.36-.23.74-.47,1.11-.68s1-.57,1.48-.84,1-.54,1.52-.8l1.28-.62c.86-.4,1.73-.78,2.61-1.13l1.14-.45,1.54-.54,1.61-.51c1.23-.36,2.48-.68,3.75-.95L41.06.8c.52-.09,1-.18,1.55-.25L43.84.38c.9-.11,1.8-.2,2.7-.25.24,0,.47,0,.71,0l.88,0,.58,0L50,0l1.26,0c.86,0,1.72.06,2.56.13l1.26.11,1.14.13.36,0c.72.1,1.43.21,2.14.33l.1,0c1,.18,2,.4,3,.64l.66.17,1,.27,1,.29c.54.16,1.07.34,1.6.52,1,.35,2,.74,3,1.15.5.21,1,.42,1.48.65l1.39.65.07,0c.39.19.77.39,1.15.59l.47.25.25.13a2.25,2.25,0,0,1,.21.12c.4.22.81.45,1.2.69l.25.15.17.1c.17.1.34.2.5.31a5.43,5.43,0,0,1,.51.32c.22.13.43.27.64.41s.34.22.5.34c.35.23.69.47,1,.71a49.8,49.8,0,0,1,4.47,3.59l.64.59.2.19.83.8.07.07c.25.24.5.49.74.74s.53.56.78.84.42.45.62.68a1.14,1.14,0,0,1,.15.17c.51.57,1,1.15,1.48,1.75l.17.22c.15.18.29.37.44.56a.24.24,0,0,1,.06.09c.1.11.18.22.27.34A.3.3,0,0,1,90,20l0,.07h0c.16.2.31.41.46.62a.05.05,0,0,1,0,0c.11.14.21.29.31.44l.17.24h0a2,2,0,0,1,.18.25l.19.28h0l0,0,.13.19.13.2.31.48h0l0,0,.12.17c.16.24.31.49.47.75l.06.11q.27.43.54.9l.15.26h0a.08.08,0,0,1,0,0l.31.53.22.41,0,.08s0,0,0,0l.08.15.06.11s0,0,0,0h0l0,0h0c.24.44.47.89.69,1.34s.31.63.45.95l.29.63.14.32h0c.16.36.32.71.47,1.08l0,.08h0l0,.1,0,.1c.11.25.21.51.3.76l.29.77c.12.31.23.62.34.94s.15.44.22.66l.09.28.12.38L98,36.06c.18.62.35,1.26.5,1.9S98.78,39,98.89,39.51Z"/><path class="cls-3" d="M29.26,6.06A50.2,50.2,0,0,0,23.4,7.68l.08,0A46.9,46.9,0,0,1,29.26,6.06Z"/><path class="cls-3" d="M75.67,7.08h0l-.25-.15Z"/><path class="cls-3" d="M84.33,13.65l-.2-.19a1.22,1.22,0,0,1,.17.15Z"/><path class="cls-3" d="M61.9,1.42c-1-.24-2-.46-3-.64C59.88,1,60.89,1.17,61.9,1.42Z"/><path class="cls-3" d="M64.84,24.27c-.71-.43-1.45-.83-2.2-1.2A22.25,22.25,0,0,1,64.84,24.27Z"/><path class="cls-3" d="M70.67,28.83q-1.15-1.14-2.43-2.19A27.93,27.93,0,0,1,70.67,28.83Z"/><path class="cls-3" d="M75.84,7.19l-.17-.1-.25-.15.25.14Z"/><path class="cls-3" d="M84.33,13.65l-.2-.19a1.22,1.22,0,0,1,.17.15Z"/><path class="cls-3" d="M97.27,33.66Q97,32.79,96.64,32l.29.77C97.05,33,97.16,33.34,97.27,33.66Z"/><path class="cls-3" d="M43.75,88.62a21.57,21.57,0,0,1-2.09-.74C42.35,88.15,43,88.4,43.75,88.62Z"/><path class="cls-4" d="M100.8,98.27a1.22,1.22,0,0,1,0,.33v0a.67.67,0,0,1-.05.19l-.06-.09c-.18-.27-.37-.53-.56-.79A20.16,20.16,0,0,0,92,91.54a19.94,19.94,0,0,0-7.93-1.63h-.44a19.92,19.92,0,0,0-5.28-3.36l0,0a19.89,19.89,0,0,0-7.88-1.61H40.93c-.46,0-.92.06-1.39.06h-.63c-.32,0-.64,0-.95,0h-.47c-.12,0-.25,0-.37,0s-.51,0-.76-.06h-.18l-.28,0h0a0,0,0,0,0,0,0l0,0-.7-.49c-.23-.16-.45-.34-.68-.51s-.6-.46-.88-.7l-.48-.41c-.44-.38-.87-.77-1.29-1.18s-.75-.74-1.11-1.13c-.53-.58-1.05-1.17-1.54-1.8-.24-.3-.47-.6-.69-.91s-.48-.67-.71-1c-.13-.19-.25-.38-.37-.57-.32-.49-.62-1-.91-1.51h0A29.68,29.68,0,0,1,23,64.16a23.1,23.1,0,0,0,1.28,2.13c.27.42.54.82.83,1.22a30.36,30.36,0,0,0,7.31,7.17c.25.18.5.35.76.51q.86.56,1.74,1l.71.39a2,2,0,0,1,.33.16l0,0c.23.12.45.23.68.33l.91.41.65.27.43.17c.26.11.51.2.77.29l.95.32.48.15.91.25c.61.16,1.22.31,1.85.43.39.08.78.15,1.18.21l.12,0,1,.14c.31,0,.61.07.92.09l.81,0c.14,0,.29,0,.44,0q.62,0,1.23,0H50c.46,0,.91,0,1.36-.06H80.87q.52,0,1,0c.3,0,.6,0,.9.07a8.65,8.65,0,0,1,.89.11l.52.08a2.2,2.2,0,0,1,.37.06l.54.11a16.45,16.45,0,0,1,1.83.49l.86.29,0,0c.31.11.61.23.91.36h0a18,18,0,0,1,1.91,1,16,16,0,0,1,2.05,1.34c.29.22.58.44.86.67s.53.45.78.69l.77.74c.23.24.45.47.65.71s.34.38.5.58.39.46.57.7A19.77,19.77,0,0,1,100.8,98.27Z"/><path class="cls-3" d="M23.25,64.6c.32.58.66,1.14,1,1.69A23.1,23.1,0,0,1,23,64.16a30,30,0,0,1,3.81-33.82A30,30,0,0,0,23,64.06c.1.18.19.36.29.53Z"/><path class="cls-5" d="M51.91,20.1q-.44,0-.87-.06l.53,0Z"/><path class="cls-5" d="M58.22,21.31a29.74,29.74,0,0,0-5.6-1.14A28.24,28.24,0,0,1,58.22,21.31Z"/><path class="cls-5" d="M64.84,24.27c-.71-.43-1.45-.83-2.2-1.2A22.25,22.25,0,0,1,64.84,24.27Z"/><path class="cls-5" d="M70.67,28.83q-1.15-1.14-2.43-2.19A27.93,27.93,0,0,1,70.67,28.83Z"/><path class="cls-5" d="M14.65,85.32h0l-.78-.8Z"/><path class="cls-6" d="M89.84,99.94H52.59c-.53,0-1.06,0-1.6,0-.32,0-.63,0-1,0l-1.46,0-.82,0-1.6-.11c-.57,0-1.12-.09-1.68-.16s-1.19-.14-1.77-.22l-.31,0-1.53-.26Q40,99,39.1,98.81c-.59-.13-1.17-.27-1.75-.43s-1.14-.3-1.7-.47l-.41-.13c-1-.31-2-.65-3-1-.55-.21-1.1-.43-1.64-.66s-1.08-.47-1.62-.72-1.06-.5-1.58-.77-.9-.46-1.34-.71l-.29-.16c-.49-.26-1-.54-1.44-.83s-1-.61-1.49-.93c-1-.62-1.93-1.29-2.86-2-.41-.31-.81-.62-1.2-.94s-.79-.64-1.18-1-.77-.67-1.15-1l-1-.88-.85-.84-.79-.8-.07-.06c-.25-.26-.49-.52-.72-.79l-.19-.21-.2-.22-.28-.32,0,0c-.07-.07-.13-.15-.19-.22-.21-.24-.41-.48-.62-.71-.32-.4-.64-.79-1-1.19s-.48-.62-.71-.93-.4-.53-.58-.8c-.8-1.11-1.55-2.25-2.25-3.43-.17-.28-.33-.56-.49-.84C5.77,73.37,5,71.91,4.36,70.42a.59.59,0,0,1,0-.13A50,50,0,0,1,63.32,11,50,50,0,0,1,74,18.78c.4.38.79.76,1.18,1.16A49.82,49.82,0,0,1,89.55,55,48.41,48.41,0,0,1,89,62.48c-.08.57-.18,1.13-.28,1.69a.17.17,0,0,0,0,.07,49.45,49.45,0,0,1-1.4,5.61h0a48.63,48.63,0,0,1-4,9.34c-.15.28-.3.56-.47.84-.3,0-.6-.06-.9-.07s-.7,0-1.05,0h-7a28.1,28.1,0,0,0,4.72-5.51,26.16,26.16,0,0,0,2.44-4.69s0,0,0,0a.88.88,0,0,0,0-.15,30,30,0,0,0,1.22-14c0-.36-.11-.71-.18-1.06a1.16,1.16,0,0,0,0-.18s0,0,0,0c-.14-.73-.31-1.46-.51-2.17-.07-.25-.14-.5-.22-.75s-.12-.4-.19-.6-.19-.58-.3-.87-.16-.46-.26-.69-.16-.42-.25-.63c-.37-.88-.77-1.74-1.22-2.57,0-.16,0-.29-.06-.44a28,28,0,0,0-1.22-5c-.09-.28-.19-.55-.29-.83-.17-.46-.35-.92-.54-1.36s-.38-.87-.58-1.3-.39-.79-.6-1.18c-.1-.19-.21-.38-.32-.56a7.74,7.74,0,0,0-.43-.73c-.2-.33-.41-.67-.63-1s-.37-.57-.57-.84-.49-.68-.74-1c-.44-.58-.91-1.14-1.4-1.68h0c-.37-.41-.74-.81-1.13-1.19a27.93,27.93,0,0,0-2.43-2.19c-.43-.33-.86-.67-1.31-1s-.68-.48-1-.71-.7-.45-1.06-.67a22.25,22.25,0,0,0-2.2-1.2L62,22.76c-.26-.13-.51-.25-.78-.36L61,22.32l-1.06-.41a4.68,4.68,0,0,0-.48-.18c-.25-.1-.5-.18-.76-.26a3.68,3.68,0,0,0-.47-.15,28.24,28.24,0,0,0-5.6-1.14l-.38,0-.33,0-.34,0-.53,0a.75.75,0,0,0-.15,0c-.47,0-.95,0-1.43,0h-.12q-.59,0-1.17,0a5.07,5.07,0,0,0-.55,0c-.5,0-1,.07-1.51.12L45,20.34c-1.06.16-2.11.38-3.14.64-.35.08-.69.18-1,.29s-.85.26-1.28.41l-.89.33c-.6.23-1.2.48-1.79.76-.3.13-.59.28-.88.42-.58.29-1.14.6-1.7.93-.28.16-.55.33-.82.5-.66.42-1.29.86-1.92,1.31a0,0,0,0,1,0,0h0a29.47,29.47,0,0,0-7.66,3.16,30,30,0,0,0-11,40.48h0c.14.26.29.52.45.77s.17.3.27.45.23.37.35.55c.27.42.55.83.85,1.23.17.24.35.48.53.71s.59.75.9,1.11.82.94,1.25,1.39c.26.27.53.54.8.8a1.14,1.14,0,0,0,.16.15c.37.36.76.71,1.15,1q.35.3.69.57l.06.06.08.06.26.2.25.19.17.13a.83.83,0,0,0,.16.12.47.47,0,0,0,.12.09l.13.1.05,0,.07,0,.1.07s0,0,0,0l.3.21a.85.85,0,0,0,.21.14.76.76,0,0,0,.16.11c.21.15.43.29.65.42l.1.06,1.12.67.12.07.29.17.3.16.42.22.07,0,.81.4.12.07.69.3.31.13.11,0,.42.17c.26.11.52.21.79.3a.2.2,0,0,1,.09,0l.81.27.87.27c.29.09.58.18.88.25s.47.13.71.18l.36.08q.36.09.72.15c.48.11,1,.19,1.47.26l.13,0,.55.07h.2l.21,0,.2,0h0l.08.06.18.12.63.4c.31.2.62.38.93.56s.58.34.88.49l.12.06c.3.17.62.33.93.47s.66.32,1,.46.67.29,1,.42a21.57,21.57,0,0,0,2.09.74c.59.19,1.18.35,1.79.5l.58.14.13,0,.75.15c.36.07.73.14,1.11.19s.75.11,1.12.15.76.08,1.14.11l.75,0c.52,0,1,0,1.57,0h.57a12.82,12.82,0,0,0,1.39-.06h29a20.07,20.07,0,0,1,6.17,10Z"/><path class="cls-3" d="M35.89,84.84l-.2,0a1.52,1.52,0,0,1-.21,0h-.2l-.55-.07-.13,0c-.5-.07-1-.15-1.47-.26q-.36-.06-.72-.15l-.36-.08c-.24-.05-.48-.11-.71-.18s-.59-.16-.88-.25l-.87-.27-.81-.27a.2.2,0,0,0-.09,0l-.89-.35-.37-.15-.06,0-.31-.13c-.24-.1-.46-.21-.69-.3l-.12-.07-.81-.4-.07,0L25,81.49l-.3-.16-.29-.17-.12-.07-1.12-.67-.1-.06c-.22-.13-.44-.27-.65-.42a.76.76,0,0,1-.16-.11,1.33,1.33,0,0,0-.19-.14l-.32-.21s0,0,0,0l-.1-.07-.07,0-.05,0-.13-.1a.47.47,0,0,1-.12-.09.83.83,0,0,1-.16-.12l-.17-.13-.25-.19-.26-.2-.08-.06-.06-.06q-.35-.27-.69-.57c-.39-.33-.78-.68-1.15-1a1.14,1.14,0,0,1-.16-.15c-.27-.26-.54-.53-.8-.8-.43-.45-.85-.92-1.25-1.39s-.61-.73-.9-1.11c-.18-.23-.36-.47-.53-.71-.3-.4-.58-.81-.85-1.23-.12-.18-.24-.36-.35-.55s-.19-.3-.27-.45-.31-.51-.45-.77h0a30,30,0,0,1,11-40.48,29.47,29.47,0,0,1,7.66-3.16q-.93.69-1.8,1.44c-.35.31-.7.63-1,.95s-.66.65-1,1-.63.68-.94,1A30,30,0,0,0,23,64.16a29.68,29.68,0,0,0,3.5,10.41h0c.29.51.59,1,.91,1.51.12.19.24.38.37.57.23.34.46.68.71,1s.45.61.69.91c.49.63,1,1.22,1.54,1.8.36.39.73.77,1.11,1.13s.85.8,1.29,1.18l.48.41c.28.24.58.48.88.7s.45.35.68.51l.7.49,0,0A0,0,0,0,1,35.89,84.84Z"/><path class="cls-3" d="M100.74,98.82a1.51,1.51,0,0,1-1.46,1.11H89.83a20.07,20.07,0,0,0-6.17-10h.44A19.94,19.94,0,0,1,92,91.54a20.16,20.16,0,0,1,8.09,6.4c.19.26.38.52.56.79Z"/><path class="cls-3" d="M4.07,30.29s0,0,0,0h0S4.06,30.29,4.07,30.29Z"/><path class="cls-3" d="M16.85,12.58l-1,.88-.46.44.46-.45Z"/><path class="cls-3" d="M3.94,30.61a.21.21,0,0,1,0-.1v0Z"/><path class="cls-3" d="M4,30.45a0,0,0,0,1,0,0H4l0,0A.14.14,0,0,1,4,30.45Z"/><path class="cls-3" d="M4.07,30.29s0,0,0,0h0S4.06,30.29,4.07,30.29Z"/><path class="cls-3" d="M4.33,29.71l0,0s0,0,0,0Z"/><path class="cls-3" d="M4.34,29.69h0Z"/><path class="cls-3" d="M22.21,79.83a.85.85,0,0,1-.21-.14l-.3-.21.32.21A1.33,1.33,0,0,1,22.21,79.83Z"/><path class="cls-3" d="M14.65,85.32h0c-.19-.18-.37-.37-.56-.56l-.29-.3.07.06Z"/><path class="cls-3" d="M15.5,86.16c-.29-.27-.57-.54-.84-.82,0,0,0,0,0,0Z"/><path class="cls-3" d="M43.75,88.62a21.57,21.57,0,0,1-2.09-.74C42.35,88.15,43,88.4,43.75,88.62Z"/><path class="cls-3" d="M51.91,20.1q-.44,0-.87-.06l.53,0Z"/><path class="cls-3" d="M58.22,21.31a29.74,29.74,0,0,0-5.6-1.14A28.24,28.24,0,0,1,58.22,21.31Z"/><path class="cls-3" d="M64.84,24.27c-.71-.43-1.45-.83-2.2-1.2A22.25,22.25,0,0,1,64.84,24.27Z"/><path class="cls-3" d="M70.67,28.83q-1.15-1.14-2.43-2.19A27.93,27.93,0,0,1,70.67,28.83Z"/><path class="cls-2" d="M23.48,7.63l-.08,0a50.2,50.2,0,0,1,5.86-1.62A46.9,46.9,0,0,0,23.48,7.63ZM4.32,29.71s0,0,0,0l0,0ZM4,30.45v0H4A0,0,0,0,0,4,30.45Z"/><path class="cls-2" d="M63.31,11a50,50,0,0,0-59,59.28.59.59,0,0,0,0,.13A49.66,49.66,0,0,1,0,50c0-.94,0-1.86.11-2.77,0-.13,0-.26,0-.39a.22.22,0,0,1,0-.08c0-.32,0-.64.07-1a2.28,2.28,0,0,1,0-.26c0-.23.05-.46.07-.68s.07-.7.12-1c0,0,0-.06,0-.09.15-1.24.35-2.46.59-3.67.09-.46.19-.92.3-1.37a.29.29,0,0,1,0-.09l0-.1c.1-.42.2-.83.31-1.24a.27.27,0,0,1,0-.12c.06-.24.12-.48.19-.72a0,0,0,0,1,0,0c0-.16.09-.32.13-.48a1.42,1.42,0,0,0,.07-.22,2.76,2.76,0,0,1,.08-.27c.06-.2.13-.4.19-.61l.21-.63q.15-.48.33-1c.27-.77.57-1.54.89-2.3l0-.07,0-.06,0-.05s0,0,0-.05h0s0,0,0,0,0,0,0,0v0l0-.07v0l0,0H4a0,0,0,0,0,0,0H4s0-.07,0-.11,0,0,0,0,0,0,0,0l.22-.51h0l0,0h0a.05.05,0,0,1,0,0l0-.11.21-.46a2,2,0,0,1,.1-.21l.06-.12.16-.34h0c.09-.22.2-.43.31-.66l.18-.36c.1-.21.21-.41.32-.62.23-.45.48-.89.72-1.33a50.33,50.33,0,0,1,5.83-8.25h0c.58-.64,1.16-1.28,1.75-1.89.3-.31.6-.62.91-.92.15-.16.31-.3.47-.45l.46-.44,1-.88h0c1-.87,2-1.72,3.08-2.52s2.15-1.56,3.28-2.27l.18-.11a50.2,50.2,0,0,1,5.86-1.62c.67-.14,1.34-.27,2-.38l1-.16c.68-.1,1.37-.18,2.06-.26.35,0,.69-.07,1-.09s.54,0,.82-.06.5,0,.75-.05c.42,0,.85,0,1.28,0l1.18,0h.11c.48,0,1,0,1.42,0s.77,0,1.15,0,.85,0,1.28.08l1.26.11,1.26.14,1.25.17,1.09.18A49.46,49.46,0,0,1,63.31,11Z"/><path class="cls-2" d="M83.66,89.91h-29c-.46,0-.92.06-1.39.06h-.57c-.53,0-1,0-1.57,0l-.75,0c-.38,0-.76-.06-1.14-.11s-.75-.09-1.12-.15-.75-.12-1.11-.19l-.75-.15-.13,0-.58-.14c-.61-.15-1.2-.31-1.79-.5s-1.4-.47-2.09-.74c-.34-.13-.68-.27-1-.42s-.67-.29-1-.46-.63-.3-.93-.47l-.12-.06c-.3-.15-.59-.31-.88-.49s-.62-.36-.93-.56l-.63-.4L36,84.9l-.08-.06.28,0h.18c.25,0,.5,0,.76.06s.25,0,.37,0H38c.31,0,.63,0,.95,0h.63c.47,0,.93,0,1.39-.06H70.45a19.89,19.89,0,0,1,7.88,1.61l0,0A19.92,19.92,0,0,1,83.66,89.91Z"/><path class="cls-3" d="M81.13,69.54a.88.88,0,0,1,0,.15s0,0,0,0a26.16,26.16,0,0,1-2.44,4.69,28.1,28.1,0,0,1-4.72,5.51H51.42a28.82,28.82,0,0,0,5.45-.87A29.59,29.59,0,0,0,68,73.54,29.93,29.93,0,0,0,79.43,50c0-.69,0-1.37-.07-2s-.12-1.4-.22-2.09l0,.08c.45.83.85,1.69,1.22,2.57.09.21.17.42.25.63s.18.46.26.69.21.58.3.87.13.4.19.6.15.5.22.75c.2.71.37,1.44.51,2.17,0,0,0,0,0,0a1.16,1.16,0,0,1,0,.18c.07.35.13.7.18,1.06a30,30,0,0,1-1.22,14.05Z"/><path class="cls-3" d="M128.37,22.3a30,30,0,0,1-14.55-.1A49.59,49.59,0,0,0,105.7,10V.79l.58-.58L125.7,19.63Z"/><path class="cls-2" d="M177.42,87h-.25c-.41,0-.83,0-1.25,0h-.57a29.82,29.82,0,0,1-13.93-3.43L148.78,71a30,30,0,0,1,.14-28.14l9.79,9.79A49.87,49.87,0,0,0,177.42,87Z"/><path class="cls-3" d="M161.59,30.4a49.79,49.79,0,0,0-3.12,17.25l-7.73-7.73A29.81,29.81,0,0,1,161.59,30.4Z"/><path class="cls-2" d="M161.59,30.4a49.79,49.79,0,0,0-3.12,17.25l-7.73-7.73A29.81,29.81,0,0,1,161.59,30.4Z"/><path class="cls-6" d="M179.13,27.31l-20.5,20.5-.16-.16a49.79,49.79,0,0,1,3.12-17.25,29.76,29.76,0,0,1,13.76-3.34A27.8,27.8,0,0,1,179.13,27.31Z"/><path class="cls-6" d="M193.07,87H177.42a49.87,49.87,0,0,1-18.71-34.36Z"/><path class="cls-6" d="M144,37.94a49.92,49.92,0,0,1-16.1,5.14,49,49,0,0,1-9.3.43,49.68,49.68,0,0,0-4.79-21.31,30,30,0,0,0,14.55.1l6.38,6.38Z"/><path class="cls-3" d="M197.83,4.87a2.34,2.34,0,0,1,.25,3.5L195.43,11l-16.3,16.3a27.8,27.8,0,0,0-3.78-.25,29.76,29.76,0,0,0-13.76,3.34A50.09,50.09,0,0,1,190.16,1.27,19.77,19.77,0,0,1,197.83,4.87Z"/><path class="cls-4" d="M145.35,57.06A29.82,29.82,0,0,0,148.78,71L125.7,47.91v51.9h-20V89.74a20,20,0,0,0,12.85,4.67V46c0-.48,0-1,0-1.45,0-.32,0-.63,0-1v-.06a49,49,0,0,0,9.3-.43A49.92,49.92,0,0,0,144,37.94l4.91,4.91A29.86,29.86,0,0,0,145.35,57.06Z"/><path class="cls-4" d="M190.16,1.27A50.09,50.09,0,0,0,161.59,30.4a29.81,29.81,0,0,0-10.85,9.52l-6.25-6.25,27-27A20,20,0,0,1,190.16,1.27Z"/><path class="cls-3" d="M224.5,97.75H210.87c-.48,0-1,0-1.45,0-.32,0-.63,0-.95,0a50.51,50.51,0,0,1-12.26-1.51A49.84,49.84,0,0,1,177.42,87h29.34A20,20,0,0,1,224.5,97.75Z"/><path class="cls-6" d="M196.21,96.3a20,20,0,0,1-24.86-2.74l-9.93-9.93a29.82,29.82,0,0,0,13.93,3.43h.57c.42,0,.84,0,1.25,0h.25A49.84,49.84,0,0,0,196.21,96.3Z"/><path class="cls-6" d="M113.82,22.2a29.49,29.49,0,0,1-8.12-3.44V10A49.59,49.59,0,0,1,113.82,22.2Z"/><path class="cls-2" d="M118.61,43.51v.06c0,.32,0,.63,0,1,0,.49,0,1,0,1.45V94.41a20,20,0,0,1-12.85-4.67v-71a29.49,29.49,0,0,0,8.12,3.44A49.68,49.68,0,0,1,118.61,43.51Z"/></g></g></svg>