<svg xmlns="http://www.w3.org/2000/svg" viewBox="0 0 313.08 54.98"><defs><style>.cls-1{fill:none;}.cls-2{fill:#e6e6e6;}.cls-3{fill:#fff;}.cls-4{fill:#ccc;}.cls-5{fill:#a556bf;}.cls-6{fill:#f2f2f2;}</style></defs><g id="Layer_2" data-name="Layer 2"><g id="Layer_1-2" data-name="Layer 1"><path class="cls-1" d="M12.78,35.51l-.16-.29a16.52,16.52,0,0,1,2.11-18.54,16.47,16.47,0,0,0-2.1,18.59c.22.4.45.79.71,1.17-.2-.3-.38-.61-.56-.93Zm14.71,8.43v0h0c.26,0,.5,0,.75,0ZM28.35,11h-.29a3.87,3.87,0,0,1,.48,0Zm.58.06a15.88,15.88,0,0,1,3.08.63A15.17,15.17,0,0,0,28.93,11.09Zm5.51,1.59c.41.21.82.43,1.21.66C35.26,13.1,34.85,12.88,34.44,12.68Zm3.08,2c.46.38.91.78,1.33,1.2A15,15,0,0,0,37.52,14.65ZM43.5,25a16.61,16.61,0,0,0-.67-2.74,16.77,16.77,0,0,1,.68,2.94s0,0,0,0S43.51,25.1,43.5,25Zm0,0a16.61,16.61,0,0,0-.67-2.74,16.77,16.77,0,0,1,.68,2.94s0,0,0,0S43.51,25.1,43.5,25Zm-6-10.37c.46.38.91.78,1.33,1.2A15,15,0,0,0,37.52,14.65Zm-3.08-2c.41.21.82.43,1.21.66C35.26,13.1,34.85,12.88,34.44,12.68Zm-5.51-1.59a15.88,15.88,0,0,1,3.08.63A15.17,15.17,0,0,0,28.93,11.09ZM28.35,11h-.29a3.87,3.87,0,0,1,.48,0Zm-.86,32.91v0h0c.26,0,.5,0,.75,0ZM12.78,35.51l-.16-.29a16.52,16.52,0,0,1,2.11-18.54,16.47,16.47,0,0,0-2.1,18.59c.22.4.45.79.71,1.17-.2-.3-.38-.61-.56-.93Zm0,0-.16-.29a16.52,16.52,0,0,1,2.11-18.54,16.47,16.47,0,0,0-2.1,18.59c.22.4.45.79.71,1.17-.2-.3-.38-.61-.56-.93Zm14.71,8.43v0h0c.26,0,.5,0,.75,0Zm7-31.26c.41.21.82.43,1.21.66C35.26,13.1,34.85,12.88,34.44,12.68Zm3.08,2c.46.38.91.78,1.33,1.2A15,15,0,0,0,37.52,14.65ZM2.2,16.74h0ZM7.62,46.47l0,0,.16.17c.11.1.2.21.31.31ZM28.35,11h-.29a3.87,3.87,0,0,1,.48,0Zm.58.06a15.88,15.88,0,0,1,3.08.63A15.17,15.17,0,0,0,28.93,11.09Zm5.51,1.59c.41.21.82.43,1.21.66C35.26,13.1,34.85,12.88,34.44,12.68Zm3.08,2c.46.38.91.78,1.33,1.2A15,15,0,0,0,37.52,14.65ZM28.35,11h-.29a3.87,3.87,0,0,1,.48,0Zm.58.06a15.88,15.88,0,0,1,3.08.63A15.17,15.17,0,0,0,28.93,11.09Zm5.51,1.59c.41.21.82.43,1.21.66C35.26,13.1,34.85,12.88,34.44,12.68Zm3.08,2c.46.38.91.78,1.33,1.2A15,15,0,0,0,37.52,14.65ZM28.35,11h-.29a3.87,3.87,0,0,1,.48,0Zm.58.06a15.88,15.88,0,0,1,3.08.63A15.17,15.17,0,0,0,28.93,11.09Zm5.51,1.59c.41.21.82.43,1.21.66C35.26,13.1,34.85,12.88,34.44,12.68Zm3.08,2c.46.38.91.78,1.33,1.2A15,15,0,0,0,37.52,14.65ZM12.78,35.51l-.16-.29a16.52,16.52,0,0,1,2.11-18.54,16.47,16.47,0,0,0-2.1,18.59c.22.4.45.79.71,1.17-.2-.3-.38-.61-.56-.93Zm14.71,8.43v0h0c.26,0,.5,0,.75,0ZM43.5,25a16.61,16.61,0,0,0-.67-2.74,16.77,16.77,0,0,1,.68,2.94s0,0,0,0S43.51,25.1,43.5,25Zm-6-10.37c.46.38.91.78,1.33,1.2A15,15,0,0,0,37.52,14.65Zm-3.08-2c.41.21.82.43,1.21.66C35.26,13.1,34.85,12.88,34.44,12.68Zm-5.51-1.59a15.88,15.88,0,0,1,3.08.63A15.17,15.17,0,0,0,28.93,11.09ZM28.35,11h-.29a3.87,3.87,0,0,1,.48,0Zm9.17,3.62c.46.38.91.78,1.33,1.2A15,15,0,0,0,37.52,14.65Zm-3.08-2c.41.21.82.43,1.21.66C35.26,13.1,34.85,12.88,34.44,12.68Zm-5.51-1.59a15.88,15.88,0,0,1,3.08.63A15.17,15.17,0,0,0,28.93,11.09ZM28.35,11h-.29a3.87,3.87,0,0,1,.48,0Zm9.17,3.62c.46.38.91.78,1.33,1.2A15,15,0,0,0,37.52,14.65Zm-3.08-2c.41.21.82.43,1.21.66C35.26,13.1,34.85,12.88,34.44,12.68Zm-5.51-1.59a15.88,15.88,0,0,1,3.08.63A15.17,15.17,0,0,0,28.93,11.09ZM28.35,11h-.29a3.87,3.87,0,0,1,.48,0ZM15.87,2.58c.47-.22,1-.43,1.44-.62A15.23,15.23,0,0,0,15.87,2.58Z"/><path class="cls-2" d="M55,27.49a26.51,26.51,0,0,1-.32,4.11c0,.24-.07.48-.12.71a.35.35,0,0,1,0,.14,27,27,0,0,1-5,11.47c-.23.31-.47.62-.71.91l-.5-.2s0,0,0,0l-.48-.16a8.64,8.64,0,0,0-1-.26l-.3-.07-.2,0a1.45,1.45,0,0,0-.29,0,3.86,3.86,0,0,0-.49-.06l.26-.46A26.58,26.58,0,0,0,48,38.4h0a26.83,26.83,0,0,0,.77-3.09.06.06,0,0,1,0,0c.05-.31.11-.61.15-.93a26.41,26.41,0,0,0,.32-4.11A27.39,27.39,0,0,0,41.33,11c-.21-.22-.43-.43-.65-.64a27.48,27.48,0,0,0-5.87-4.27h.06a27.53,27.53,0,0,1,19.5,15.66A27.42,27.42,0,0,1,55,27.49Z"/><path class="cls-3" d="M28.25,43.94c-.25,0-.49,0-.75,0h0v0Z"/><path class="cls-3" d="M28.25,43.94c-.25,0-.49,0-.75,0h0v0Z"/><path class="cls-3" d="M28.25,43.94c-.25,0-.49,0-.75,0h0v0Z"/><path class="cls-3" d="M2.17,16.83a.14.14,0,0,1,0-.06s0,0,0,0S2.17,16.82,2.17,16.83Z"/><path class="cls-3" d="M2.2,16.74h0v0A0,0,0,0,1,2.2,16.74Z"/><path class="cls-3" d="M2.24,16.65a0,0,0,0,0,0,0h0S2.23,16.65,2.24,16.65Z"/><path class="cls-3" d="M2.38,16.33h0Z"/><path class="cls-3" d="M2.39,16.32h0Z"/><path class="cls-4" d="M54.37,21.72A27.53,27.53,0,0,0,34.87,6.06h-.06a27.07,27.07,0,0,0-8.28-2.89l-.6-.1L25.24,3l-.69-.07c-.23,0-.47-.05-.7-.06s-.46,0-.7-.05l-.63,0-.78,0H21l-.71,0-.41,0-.45,0-.57.05L17.76,3l-.56.09q-.57.09-1.11.21a25.65,25.65,0,0,0-3.18.86l.61-.37.81-.46.84-.44.7-.34c.47-.22,1-.43,1.44-.62l.62-.25.85-.3.88-.28C20.34.93,21,.76,21.73.61l.84-.17L23.43.3,24.1.21c.5-.06,1-.11,1.49-.14.13,0,.25,0,.39,0l.48,0H28.2c.47,0,.94,0,1.4.07l.7.06.62.07.2,0c.4,0,.79.11,1.18.18h.05c.57.1,1.13.22,1.68.35l.36.09L35,1l.54.16.88.29c.57.19,1.12.4,1.67.63.28.12.55.23.82.36l.76.35,0,0,.63.32.26.14.14.07.11.07c.22.12.45.24.66.38l.14.08.09.05.28.17a2.68,2.68,0,0,1,.28.18l.35.22.28.19.56.39a26,26,0,0,1,2.46,2l.35.32.11.1.46.44,0,0,.4.41c.15.15.29.31.43.46s.23.25.34.37l.08.1c.29.31.55.63.82,1l.09.12.24.31,0,0,.15.19a.09.09,0,0,1,0,.05l0,0h0l.25.35,0,0c.06.07.11.16.17.24l.09.13h0a1.13,1.13,0,0,1,.1.13l.1.16h0l0,0,.07.1.07.11a2.33,2.33,0,0,0,.17.26h0v0l.07.09.25.41,0,.06c.1.16.2.33.29.5l.09.14h0v0l.17.29a1.27,1.27,0,0,1,.12.23l0,0h0a.36.36,0,0,0,0,.09l0,.06h0l.38.73c.08.17.17.35.24.53s.11.23.16.34l.08.18h0c.09.2.18.39.26.6,0,0,0,0,0,0h0a.11.11,0,0,1,0,.05.14.14,0,0,1,0,.06c.06.13.12.28.17.41s.1.29.16.43l.18.51c.05.13.09.25.13.37a.88.88,0,0,0,0,.15l.06.21.18.59c.1.35.2.7.28,1.05S54.31,21.44,54.37,21.72Z"/><path class="cls-3" d="M16.09,3.33a27,27,0,0,0-3.23.89l.05,0A25.65,25.65,0,0,1,16.09,3.33Z"/><path class="cls-3" d="M41.6,3.89h0l-.14-.08A.61.61,0,0,1,41.6,3.89Z"/><path class="cls-3" d="M46.36,7.5l-.11-.1a.34.34,0,0,1,.09.08Z"/><path class="cls-3" d="M34,.78C33.48.65,32.92.53,32.35.43,32.92.53,33.47.64,34,.78Z"/><path class="cls-3" d="M35.65,13.34c-.39-.23-.8-.45-1.21-.66C34.85,12.88,35.26,13.1,35.65,13.34Z"/><path class="cls-3" d="M38.85,15.85c-.42-.42-.87-.82-1.33-1.2A15,15,0,0,1,38.85,15.85Z"/><path class="cls-3" d="M41.69,4,41.6,3.9l-.14-.08a.61.61,0,0,1,.14.07Z"/><path class="cls-3" d="M46.36,7.5l-.11-.1a.34.34,0,0,1,.09.08Z"/><path class="cls-3" d="M53.47,18.5c-.1-.31-.21-.63-.34-.94,0,.15.1.29.16.43Z"/><path class="cls-3" d="M24.05,48.72a12.12,12.12,0,0,1-1.15-.41C23.28,48.46,23.66,48.6,24.05,48.72Z"/><path class="cls-4" d="M55.42,54a1.15,1.15,0,0,1,0,.19h0a.45.45,0,0,1,0,.11l0,0L55,53.84a11.14,11.14,0,0,0-4.45-3.52,11,11,0,0,0-4.36-.89H46a10.69,10.69,0,0,0-2.9-1.85h0a11,11,0,0,0-4.33-.88H22.5c-.25,0-.5,0-.76,0H20.61l-.2,0c-.15,0-.28,0-.42,0h-.26l0,0-.38-.27-.38-.28a5.84,5.84,0,0,1-.48-.39,2.75,2.75,0,0,1-.26-.22c-.24-.21-.48-.42-.71-.65s-.41-.41-.61-.62-.58-.64-.85-1c-.13-.16-.26-.33-.38-.5s-.26-.37-.39-.56a3.28,3.28,0,0,1-.2-.31c-.18-.27-.34-.55-.5-.83h0a16.33,16.33,0,0,1-1.93-5.73c.22.4.45.79.71,1.17s.29.45.45.67a16.94,16.94,0,0,0,4,4l.42.28q.46.3,1,.57l.39.22a.76.76,0,0,1,.18.09h0l.37.18.5.22.36.15.24.1.42.16.52.17.27.08.5.14c.33.09.67.17,1,.24l.65.11h.07l.57.08.51.05.44,0h.24c.23,0,.46,0,.68,0h.37c.26,0,.5,0,.75,0H44.46L45,44a4,4,0,0,1,.49,0,3.86,3.86,0,0,1,.49.06l.29,0,.2,0,.3.07a8.64,8.64,0,0,1,1,.26l.48.16s0,0,0,0l.5.2a0,0,0,0,0,0,0,10.32,10.32,0,0,1,1,.53,9.14,9.14,0,0,1,1.13.74l.47.37a5.08,5.08,0,0,1,.43.38l.42.4q.2.2.36.39L53,48a3.89,3.89,0,0,1,.32.39A10.89,10.89,0,0,1,55.42,54Z"/><path class="cls-3" d="M12.78,35.51c.18.32.36.63.56.93-.26-.38-.49-.77-.71-1.17a16.47,16.47,0,0,1,2.1-18.59,16.52,16.52,0,0,0-2.11,18.54l.16.29Z"/><path class="cls-5" d="M28.54,11.05a3.87,3.87,0,0,0-.48,0h.29Z"/><path class="cls-5" d="M32,11.72a15.88,15.88,0,0,0-3.08-.63A15.17,15.17,0,0,1,32,11.72Z"/><path class="cls-5" d="M35.65,13.34c-.39-.23-.8-.45-1.21-.66C34.85,12.88,35.26,13.1,35.65,13.34Z"/><path class="cls-5" d="M38.85,15.85c-.42-.42-.87-.82-1.33-1.2A15,15,0,0,1,38.85,15.85Z"/><path class="cls-5" d="M8.05,46.91h0l-.43-.44C7.77,46.61,7.91,46.76,8.05,46.91Z"/><path class="cls-6" d="M49.39,54.94H28.91A8.53,8.53,0,0,1,28,55H26.26l-.88-.06c-.32,0-.62,0-.93-.09s-.65-.07-1-.12a.86.86,0,0,1-.17,0l-.84-.14-1-.2c-.32-.07-.64-.14-1-.23l-.93-.26-.23-.07c-.55-.17-1.1-.36-1.64-.57l-.9-.36-.89-.4c-.29-.13-.59-.27-.87-.42s-.5-.25-.74-.39l-.16-.09c-.27-.14-.53-.3-.79-.46s-.55-.33-.82-.51c-.54-.34-1.06-.71-1.57-1.1L10.33,49c-.22-.17-.44-.35-.65-.54l-.63-.55-.52-.49c-.16-.15-.32-.3-.47-.46l-.44-.44,0,0c-.14-.14-.27-.29-.4-.43l-.1-.12L7,45.77l-.16-.18h0l-.1-.12c-.12-.14-.23-.27-.35-.39l-.52-.66c-.13-.16-.26-.34-.39-.51s-.22-.29-.32-.44q-.66-.91-1.23-1.89a4.25,4.25,0,0,1-.27-.46A23.35,23.35,0,0,1,2.4,38.72a.24.24,0,0,1,0-.08A27.56,27.56,0,0,1,17,8.41,27.32,27.32,0,0,1,29.28,5.49a27.88,27.88,0,0,1,5.53.56,27.84,27.84,0,0,1,5.88,4.28l.65.63a27.41,27.41,0,0,1,7.89,19.28,26.51,26.51,0,0,1-.31,4.11c-.05.31-.1.62-.16.93v0A28.29,28.29,0,0,1,48,38.4h0a26.26,26.26,0,0,1-2.2,5.13c-.08.16-.16.31-.25.46a4.19,4.19,0,0,0-.5,0l-.58,0H40.63a15.42,15.42,0,0,0,2.6-3,14.06,14.06,0,0,0,1.34-2.58,0,0,0,0,1,0,0l0-.08a16.54,16.54,0,0,0,.67-7.73c0-.19-.06-.39-.1-.58,0,0,0-.07,0-.1h0c-.08-.4-.17-.8-.28-1.19,0-.14-.08-.28-.13-.41s-.06-.22-.1-.33-.1-.32-.16-.48-.09-.26-.15-.38-.09-.23-.13-.35c-.21-.48-.43-.95-.68-1.41,0-.09,0-.16,0-.24a15.12,15.12,0,0,0-.67-2.75c0-.15-.1-.3-.16-.45s-.19-.51-.3-.75-.2-.48-.31-.72l-.33-.64-.18-.31a3.26,3.26,0,0,0-.24-.4c-.11-.18-.22-.37-.34-.55a5.33,5.33,0,0,0-.32-.46l-.4-.56c-.25-.32-.5-.63-.77-.92h0c-.21-.22-.41-.44-.62-.65a17,17,0,0,0-1.34-1.21c-.24-.18-.47-.37-.72-.54s-.37-.27-.57-.39-.38-.25-.58-.37a12.81,12.81,0,0,0-1.21-.66l-.37-.18-.43-.19-.11-.05L33,12.05l-.26-.1a3.45,3.45,0,0,0-.42-.14,1.14,1.14,0,0,0-.26-.09,15,15,0,0,0-3.08-.62l-.21,0h-.18l-.18,0-.3,0H28l-.78,0h-.07l-.64,0a1.62,1.62,0,0,0-.31,0l-.83.06-.61.08a16.4,16.4,0,0,0-1.72.36,3.3,3.3,0,0,0-.56.16c-.24.06-.47.14-.71.22l-.49.18c-.33.13-.66.27-1,.42s-.32.15-.48.23c-.32.16-.63.33-.94.51l-.45.28c-.36.23-.71.47-1.06.72h0A16.2,16.2,0,0,0,13.13,16,16.47,16.47,0,0,0,7.06,38.26h0a4.64,4.64,0,0,0,.25.42l.14.25.2.3c.14.23.3.45.46.67l.29.39c.16.21.33.42.5.61s.45.52.69.77l.44.44.08.08c.21.2.42.39.64.57l.38.32,0,0,0,0,.15.11.13.11.1.07a.21.21,0,0,0,.08.06l.07,0s0,0,.07.06l0,0,0,0s0,0,.05,0h0l.17.12.11.07.09.07.36.23.05,0,.62.37.07,0,.16.09.16.09.23.12h0l.45.22.06,0,.38.17.17.07.06,0,.23.09.44.17.05,0,.44.15.48.15.48.14.39.1.2,0,.4.08q.39.09.81.15h.07l.3,0h.23l.11,0h0l0,0,.1.07.35.22.51.31c.16.09.32.18.49.26l.06,0,.51.26.55.25.56.23c.37.15.76.29,1.15.41s.65.19,1,.27l.32.08.07,0,.41.08.61.1c.21,0,.42.06.62.08l.63.07.41,0c.28,0,.57,0,.86,0h.31c.26,0,.52,0,.77,0H46a10.6,10.6,0,0,1,1.54,1.67A10.73,10.73,0,0,1,49.39,54.94Z"/><path class="cls-3" d="M19.73,46.64h-.11l-.11,0H19.4l-.31,0H19c-.27,0-.54-.08-.81-.14l-.39-.09-.2,0-.39-.1L16.75,46l-.48-.15-.45-.14a.05.05,0,0,0-.05,0l-.49-.19-.2-.09h0l-.17-.07-.38-.16-.07,0L14,44.94l0,0-.23-.12-.17-.09-.16-.09-.06,0c-.21-.12-.42-.24-.62-.37a.09.09,0,0,1-.05,0A3.17,3.17,0,0,1,12.3,44l-.09-.06-.1-.08-.18-.12h0l-.06,0,0,0s0,0,0,0l-.07-.05a.18.18,0,0,1-.07,0l-.09-.07-.09-.07-.14-.11-.14-.1,0,0,0,0-.38-.31c-.21-.19-.43-.38-.63-.58L10,42.11l-.44-.44c-.23-.25-.47-.5-.68-.76s-.34-.4-.5-.61l-.29-.39c-.17-.22-.32-.45-.47-.68l-.19-.3a1.65,1.65,0,0,1-.15-.25c-.09-.14-.17-.28-.25-.42h0A16.49,16.49,0,0,1,13.13,16a15.92,15.92,0,0,1,4.21-1.74c-.34.25-.67.52-1,.79l-.57.52-.54.54-.51.57a16.47,16.47,0,0,0-2.1,18.59A16.33,16.33,0,0,0,14.56,41h0c.16.28.32.56.5.83a3.28,3.28,0,0,0,.2.31c.13.19.25.38.39.56s.25.34.38.5c.27.35.56.67.85,1s.4.42.61.62.47.44.71.65a2.75,2.75,0,0,0,.26.22,5.84,5.84,0,0,0,.48.39l.38.28.38.27,0,0Z"/><path class="cls-3" d="M55.38,54.33a.83.83,0,0,1-.8.61h-5.2a10.93,10.93,0,0,0-1.84-3.84A11.16,11.16,0,0,0,46,49.43h.24a11,11,0,0,1,4.36.89A11.14,11.14,0,0,1,55,53.84l.31.44Z"/><path class="cls-3" d="M2.24,16.65a0,0,0,0,0,0,0h0S2.23,16.65,2.24,16.65Z"/><path class="cls-3" d="M9.26,6.92c-.17.16-.35.31-.52.48l-.26.24.26-.25Z"/><path class="cls-3" d="M2.17,16.83a.14.14,0,0,1,0-.06s0,0,0,0S2.17,16.82,2.17,16.83Z"/><path class="cls-3" d="M2.2,16.74h0v0A0,0,0,0,1,2.2,16.74Z"/><path class="cls-3" d="M2.24,16.65a0,0,0,0,0,0,0h0S2.23,16.65,2.24,16.65Z"/><path class="cls-3" d="M2.38,16.33h0Z"/><path class="cls-3" d="M2.39,16.32h0Z"/><path class="cls-3" d="M12.21,43.89l-.12-.08-.16-.12.18.12Z"/><path class="cls-3" d="M8.05,46.91h0c-.11-.1-.2-.21-.31-.31l-.16-.17,0,0C7.77,46.61,7.91,46.76,8.05,46.91Z"/><path class="cls-3" d="M8.52,47.37l-.46-.45a0,0,0,0,1,0,0C8.21,47.06,8.37,47.21,8.52,47.37Z"/><path class="cls-3" d="M24.05,48.72a12.12,12.12,0,0,1-1.15-.41C23.28,48.46,23.66,48.6,24.05,48.72Z"/><path class="cls-3" d="M28.54,11.05a3.87,3.87,0,0,0-.48,0h.29Z"/><path class="cls-3" d="M32,11.72a15.88,15.88,0,0,0-3.08-.63A15.17,15.17,0,0,1,32,11.72Z"/><path class="cls-3" d="M35.65,13.34c-.39-.23-.8-.45-1.21-.66C34.85,12.88,35.26,13.1,35.65,13.34Z"/><path class="cls-3" d="M38.85,15.85c-.42-.42-.87-.82-1.33-1.2A15,15,0,0,1,38.85,15.85Z"/><path class="cls-2" d="M12.91,4.19l-.05,0a27,27,0,0,1,3.23-.89A25.65,25.65,0,0,0,12.91,4.19ZM2.37,16.33h0Zm-.17.41h0Z"/><path class="cls-2" d="M34.81,6.05A27.48,27.48,0,0,0,1.79,33a27.82,27.82,0,0,0,.59,5.67s0,0,0,.07A27.33,27.33,0,0,1,0,27.49C0,27,0,26.47.06,26c0-.08,0-.15,0-.22s0,0,0,0c0-.18,0-.36,0-.53a.66.66,0,0,1,0-.14l0-.38c0-.19,0-.38.07-.58,0,0,0,0,0,0,.08-.69.19-1.36.32-2,0-.26.11-.51.17-.76a.06.06,0,0,1,0,0s0,0,0-.06c.06-.23.11-.46.17-.68a.19.19,0,0,1,0-.07c0-.13.07-.26.1-.39v0c0-.09.05-.18.07-.26a.56.56,0,0,0,0-.12c0-.05,0-.1,0-.15a3.38,3.38,0,0,0,.11-.34l.11-.34c.06-.18.12-.36.19-.53.14-.43.31-.85.48-1.27a.05.05,0,0,0,0,0l0,0s0,0,0,0,0,0,0,0h0s0,0,0,0,0,0,0,0,0,0,0,0v0h0l0-.06a0,0,0,0,1,0,0v0l.12-.28h0a0,0,0,0,1,0,0,.42.42,0,0,0,0-.06L2.54,16a1.17,1.17,0,0,1,0-.11l0-.07.09-.19h0c0-.12.11-.24.17-.37l.1-.19a3.59,3.59,0,0,1,.17-.34l.4-.74a28.25,28.25,0,0,1,3.2-4.53h0l1-1,.5-.5.26-.25.26-.24c.17-.17.35-.32.52-.48h0c.54-.48,1.11-1,1.69-1.39s1.18-.86,1.81-1.25l.09-.06a27,27,0,0,1,3.23-.89q.54-.12,1.11-.21L17.76,3l1.13-.14.57-.05.45,0,.41,0,.71,0h.71l.78,0,.63,0c.24,0,.47,0,.7.05s.47,0,.7.06l.69.07.69.1.6.1A27.07,27.07,0,0,1,34.81,6.05Z"/><path class="cls-2" d="M46,49.43H30c-.25,0-.5,0-.76,0H29l-.87,0-.41,0-.63-.06c-.2,0-.41,0-.61-.09a6,6,0,0,1-.61-.1l-.41-.08-.08,0L25,49c-.34-.08-.66-.17-1-.27s-.77-.26-1.15-.41l-.55-.23-.55-.25-.51-.26-.07,0-.48-.27L20.23,47c-.12-.07-.24-.14-.35-.22l-.1-.07,0,0H20c.14,0,.27,0,.42,0l.2,0h1.13c.26,0,.51,0,.76,0H38.73a11,11,0,0,1,4.33.88h0A10.69,10.69,0,0,1,46,49.43Z"/><path class="cls-3" d="M44.6,38.23a.11.11,0,0,1,0,.08s0,0,0,0a13.75,13.75,0,0,1-1.34,2.58,15.71,15.71,0,0,1-2.59,3H28.27a14.69,14.69,0,0,0,3-.48,16.22,16.22,0,0,0,6.14-3,16.46,16.46,0,0,0,6.27-12.94c0-.38,0-.76,0-1.12s-.07-.77-.12-1.15c0,0,0,0,0,0a15.12,15.12,0,0,1,.67,1.41c0,.12.09.24.14.35s.1.25.14.38.12.32.17.48.07.22.1.33l.12.41c.11.39.2.79.28,1.19,0,0,0,0,0,0a.44.44,0,0,1,0,.1c0,.2.08.39.1.59a14.08,14.08,0,0,1,.17,1.73A16.29,16.29,0,0,1,44.6,38.23Z"/><path class="cls-3" d="M70.57,12.26a16.41,16.41,0,0,1-8-.06,27,27,0,0,0-4.46-6.68V.43l.32-.32L69.1,10.79Z"/><path class="cls-2" d="M97.54,47.83H97.4l-.69,0H96.4A16.33,16.33,0,0,1,88.74,46L81.79,39a16.54,16.54,0,0,1,.08-15.47l5.38,5.38A27.43,27.43,0,0,0,97.54,47.83Z"/><path class="cls-3" d="M88.84,16.71a27.34,27.34,0,0,0-1.72,9.48l-4.25-4.25A16.53,16.53,0,0,1,88.84,16.71Z"/><path class="cls-2" d="M88.84,16.71a27.34,27.34,0,0,0-1.72,9.48l-4.25-4.25A16.53,16.53,0,0,1,88.84,16.71Z"/><path class="cls-6" d="M98.48,15,87.21,26.28l-.09-.09a27.34,27.34,0,0,1,1.72-9.48,16.31,16.31,0,0,1,7.56-1.84A15.79,15.79,0,0,1,98.48,15Z"/><path class="cls-6" d="M106.14,47.83h-8.6A27.43,27.43,0,0,1,87.25,28.94Z"/><path class="cls-6" d="M79.17,20.86a27.49,27.49,0,0,1-8.85,2.82,27.27,27.27,0,0,1-5.11.24A27.36,27.36,0,0,0,62.57,12.2a16.41,16.41,0,0,0,8,.06l3.51,3.51Z"/><path class="cls-3" d="M108.76,2.68a1.28,1.28,0,0,1,.13,1.92l-1.45,1.45-9,9a15.79,15.79,0,0,0-2.08-.14,16.31,16.31,0,0,0-7.56,1.84A27.54,27.54,0,0,1,98.59,4a27,27,0,0,1,6-3.25A10.89,10.89,0,0,1,108.76,2.68Z"/><path class="cls-4" d="M79.91,31.37A16.47,16.47,0,0,0,81.79,39L69.1,26.34V54.87h-11V49.33a11,11,0,0,0,7.06,2.57V25.27c0-.26,0-.53,0-.8s0-.34,0-.52v0a27.27,27.27,0,0,0,5.11-.24,27.49,27.49,0,0,0,8.85-2.82l2.7,2.7A16.42,16.42,0,0,0,79.91,31.37Z"/><path class="cls-4" d="M104.54.7a27,27,0,0,0-6,3.25,27.54,27.54,0,0,0-9.75,12.76,16.53,16.53,0,0,0-6,5.23l-3.43-3.43L94.31,3.64A11,11,0,0,1,104.54.7Z"/><path class="cls-3" d="M123.42,53.74h-7.49l-.8,0h-.52a27.65,27.65,0,0,1-6.74-.83,27.36,27.36,0,0,1-10.33-5.11h16.13a11,11,0,0,1,9.75,5.91Z"/><path class="cls-6" d="M107.87,52.94A11,11,0,0,1,94.2,51.43L88.74,46a16.33,16.33,0,0,0,7.66,1.89h.31l.69,0h.14A27.36,27.36,0,0,0,107.87,52.94Z"/><path class="cls-6" d="M62.57,12.2a16.14,16.14,0,0,1-4.46-1.89V5.52A27,27,0,0,1,62.57,12.2Z"/><path class="cls-2" d="M65.21,23.92v0c0,.18,0,.35,0,.52s0,.54,0,.8V51.9a11,11,0,0,1-7.06-2.57v-39a16.14,16.14,0,0,0,4.46,1.89A27.36,27.36,0,0,1,65.21,23.92Z"/><path class="cls-4" d="M120.43,46.66l2.8-1.67q3,5.43,6.82,5.43a6.6,6.6,0,0,0,3.11-.77,5.43,5.43,0,0,0,3-4.82A5.55,5.55,0,0,0,135,41.59a26.57,26.57,0,0,0-5.63-5.28,28.51,28.51,0,0,1-5.12-4.5,8.16,8.16,0,0,1-1.75-5,7.69,7.69,0,0,1,1-3.91,7.35,7.35,0,0,1,2.9-2.79,8.43,8.43,0,0,1,4.06-1,8.63,8.63,0,0,1,4.35,1.15,15,15,0,0,1,4.28,4.24l-2.68,2a12.9,12.9,0,0,0-3.17-3.24,5.45,5.45,0,0,0-2.85-.78,4.51,4.51,0,0,0-3.25,1.2,4,4,0,0,0-1.27,3,5.06,5.06,0,0,0,.45,2.08A7.7,7.7,0,0,0,128,30.92c.44.42,1.85,1.51,4.25,3.29a23.87,23.87,0,0,1,5.86,5.61,9,9,0,0,1,1.59,4.94A8.4,8.4,0,0,1,137,51a9.12,9.12,0,0,1-6.61,2.64,9.66,9.66,0,0,1-5.43-1.6A14.68,14.68,0,0,1,120.43,46.66Z"/><path class="cls-3" d="M157.65,27.83A12.07,12.07,0,0,1,167,31.9a13.06,13.06,0,0,1-.19,17.7,12.86,12.86,0,0,1-18.29,0,13,13,0,0,1-.19-17.67A12.06,12.06,0,0,1,157.65,27.83Zm0,3.07a9,9,0,0,0-6.71,2.88,9.66,9.66,0,0,0-2.81,7,9.92,9.92,0,0,0,1.28,4.92,9,9,0,0,0,3.46,3.52,9.83,9.83,0,0,0,9.56,0,9.05,9.05,0,0,0,3.45-3.52,9.82,9.82,0,0,0,1.28-4.92,9.66,9.66,0,0,0-2.81-7A9.07,9.07,0,0,0,157.64,30.9Z"/><path class="cls-3" d="M186.14,19.07v3.06a7.79,7.79,0,0,0-2.95-.74,2.92,2.92,0,0,0-1.52.37,1.6,1.6,0,0,0-.76.85,11.33,11.33,0,0,0-.16,2.56v3.29h5.08v2.71h-5.09V52.79H177.6V31.17h-3.2V28.46h3.2v-3.8a10.37,10.37,0,0,1,.48-3.74,3.86,3.86,0,0,1,1.63-1.8,5.43,5.43,0,0,1,2.78-.68A13.17,13.17,0,0,1,186.14,19.07Z"/><path class="cls-3" d="M193.23,19.42h3.13v9h5v2.71h-5V52.79h-3.13V31.17H189V28.46h4.27Z"/><path class="cls-3" d="M202.73,28.46H206l7.46,17.67,7.77-17.67h.56l7.82,17.67,7.6-17.67h3.26L229.85,52.79h-.58l-7.78-17.42-7.78,17.42h-.58Z"/><path class="cls-3" d="M268.33,28.46V52.79h-3.09V48.61a13.34,13.34,0,0,1-4.42,3.6,12.31,12.31,0,0,1-14.17-2.54A12.55,12.55,0,0,1,243,40.56a12.32,12.32,0,0,1,3.69-9,12,12,0,0,1,8.88-3.74A11.5,11.5,0,0,1,261,29.11a12.28,12.28,0,0,1,4.26,3.82V28.46Zm-12.52,2.39a9.46,9.46,0,0,0-8.34,4.9,9.84,9.84,0,0,0,0,9.83A9.53,9.53,0,0,0,251,49.22a9.16,9.16,0,0,0,4.77,1.31,9.81,9.81,0,0,0,4.87-1.29,9.05,9.05,0,0,0,3.54-3.51,10,10,0,0,0,1.24-5,9.65,9.65,0,0,0-2.78-7.06A9.22,9.22,0,0,0,255.81,30.85Z"/><path class="cls-3" d="M274.19,28.46h3.19V32a11.45,11.45,0,0,1,3-3.15,6,6,0,0,1,3.31-1,5.76,5.76,0,0,1,2.78.83l-1.64,2.64a4.38,4.38,0,0,0-1.65-.43,4.53,4.53,0,0,0-3,1.29,8.09,8.09,0,0,0-2.21,4,38,38,0,0,0-.59,8.41v8.23h-3.19Z"/><path class="cls-2" d="M309.63,44.72l2.64,1.38a14.16,14.16,0,0,1-3,4.12,11.9,11.9,0,0,1-3.82,2.38,13.28,13.28,0,0,1-4.82.82q-6,0-9.31-3.9A13.19,13.19,0,0,1,288,40.69a13.05,13.05,0,0,1,2.84-8.25,11.64,11.64,0,0,1,9.65-4.61,12,12,0,0,1,9.94,4.72,13.19,13.19,0,0,1,2.69,8.32h-21.9a9.92,9.92,0,0,0,2.71,7,8.65,8.65,0,0,0,6.47,2.71,10.42,10.42,0,0,0,3.62-.64,9.38,9.38,0,0,0,3-1.72A14.39,14.39,0,0,0,309.63,44.72Zm0-6.55a10.29,10.29,0,0,0-1.82-4,8.64,8.64,0,0,0-3.17-2.41,9.7,9.7,0,0,0-4.14-.92,9,9,0,0,0-6.16,2.3,10.44,10.44,0,0,0-2.84,5Z"/></g></g></svg>